<?xml version="1.0" standalone="no"?>
<!DOCTYPE svg PUBLIC "-//W3C//DTD SVG 20010904//EN"
 "http://www.w3.org/TR/2001/REC-SVG-20010904/DTD/svg10.dtd">
<svg version="1.0" xmlns="http://www.w3.org/2000/svg"
 width="512.000000pt" height="512.000000pt" viewBox="0 0 512.000000 512.000000"
 preserveAspectRatio="xMidYMid meet">

<g transform="translate(0.000000,512.000000) scale(0.100000,-0.100000)"
fill="#000000" stroke="none">
<path d="M2591 4291 c-69 -24 -99 -47 -138 -104 -54 -80 -63 -176 -26 -266 9
-21 212 -235 528 -555 l514 -521 -1287 -5 c-1440 -6 -1316 1 -1404 -78 -141
-127 -108 -358 66 -450 l51 -27 1290 -3 1289 -2 -511 -513 c-347 -347 -518
-526 -534 -557 -31 -61 -33 -165 -3 -230 27 -57 86 -117 144 -144 64 -29 169
-28 230 3 56 28 1558 1523 1597 1590 38 64 43 177 11 243 -17 36 -212 238
-781 812 -618 623 -767 770 -810 790 -72 36 -157 42 -226 17z"/>
</g>
</svg>
