<?xml version="1.0" standalone="no"?>
<!DOCTYPE svg PUBLIC "-//W3C//DTD SVG 20010904//EN"
 "http://www.w3.org/TR/2001/REC-SVG-20010904/DTD/svg10.dtd">
<svg version="1.0" xmlns="http://www.w3.org/2000/svg"
 width="512.000000pt" height="512.000000pt" viewBox="0 0 512.000000 512.000000"
 preserveAspectRatio="xMidYMid meet">

<g transform="translate(0.000000,512.000000) scale(0.100000,-0.100000)"
fill="#000000" stroke="none">
<path d="M2373 4301 c-17 -4 -51 -20 -75 -34 -56 -33 -1560 -1541 -1584 -1587
-10 -21 -19 -65 -21 -110 -3 -63 0 -83 19 -122 17 -36 212 -238 781 -812 846
-854 807 -820 941 -820 123 0 211 55 259 163 26 58 27 159 3 215 -12 26 -183
207 -531 560 l-514 521 1287 5 c1440 6 1316 -1 1404 78 141 127 108 358 -66
450 l-51 27 -1290 3 -1289 2 511 513 c347 347 518 526 534 557 31 61 33 165 3
230 -27 57 -87 117 -142 142 -49 22 -132 31 -179 19z"/>
</g>
</svg>
