<?xml version="1.0" encoding="UTF-8" standalone="no"?>
<!-- Created with Inkscape (http://www.inkscape.org/) -->

<svg
   version="1.1"
   id="svg2"
   width="816"
   height="1056"
   viewBox="0 0 816 1056"
   xmlns="http://www.w3.org/2000/svg"
   xmlns:svg="http://www.w3.org/2000/svg">
  <defs
     id="defs6" />
  <g
     id="g8"
     transform="matrix(33.076274,0,0,-30.593895,-668.63272,24219.729)">
    <g
       id="g10"
       transform="translate(32.55,774.394)">
      <g
         id="g12">
        <g
           id="g14">
          <g
             id="g16">
            <path
               d="M 11.33876,0 C 11.33876,6.2623 6.2623,11.33876 0,11.33876 -6.2623,11.33876 -11.33876,6.2623 -11.33876,0 c 0,-6.2623 5.07646,-11.33876 11.33876,-11.33876 6.2623,0 11.33876,5.07646 11.33876,11.33876 z"
               style="fill:none;stroke:#ff0000;stroke-width:1.19553;stroke-linecap:butt;stroke-linejoin:miter;stroke-miterlimit:10;stroke-dasharray:none;stroke-opacity:1"
               id="path18" />
          </g>
          <g
             id="g20">
            <path
               d="M 8.50412,0 C 8.50412,4.69675 4.69675,8.50412 0,8.50412 -4.69675,8.50412 -8.50412,4.69675 -8.50412,0 c 0,-4.69675 3.80737,-8.50412 8.50412,-8.50412 4.69675,0 8.50412,3.80737 8.50412,8.50412 z"
               style="fill:none;stroke:#ff0000;stroke-width:0.79701;stroke-linecap:butt;stroke-linejoin:miter;stroke-miterlimit:10;stroke-dasharray:none;stroke-opacity:1"
               id="path22" />
          </g>
        </g>
      </g>
    </g>
  </g>
</svg>
