<?xml version="1.0" encoding="UTF-8" standalone="no"?>
<!-- Created with Inkscape (http://www.inkscape.org/) -->

<svg
   version="1.1"
   id="svg2"
   width="796.72772"
   height="796.72772"
   viewBox="0 0 796.72772 796.72772"
   xmlns="http://www.w3.org/2000/svg"
   xmlns:svg="http://www.w3.org/2000/svg">
  <defs
     id="defs6">
    <clipPath
       clipPathUnits="userSpaceOnUse"
       id="clipPath22">
      <path
         d="M 12.75595,0 C 12.75595,7.045 7.045,12.75595 0,12.75595 -7.045,12.75595 -12.75595,7.045 -12.75595,0 -12.75595,-7.045 -7.045,-12.75595 0,-12.75595 7.045,-12.75595 12.75595,-7.045 12.75595,0 Z"
         id="path20" />
    </clipPath>
  </defs>
  <g
     id="g8"
     transform="matrix(30.28357,0,0,-30.28357,-9864.4681,11323.793)">
    <g
       id="g10"
       transform="translate(338.89109,360.77084)">
      <g
         id="g12">
        <g
           id="g14">
          <g
             id="g16">
            <g
               id="g18"
               clip-path="url(#clipPath22)">
              <g
                 id="g24">
                <path
                   d="m -12.75595,-12.75595 v 14.0316 h 25.5119 v -14.0316 z"
                   style="fill:none;fill-opacity:1;fill-rule:nonzero;stroke:none"
                   id="path26" />
              </g>
              <g
                 id="g28">
                <path
                   d="m -12.75595,1.27565 v 11.4803 h 25.5119 V 1.27565 Z"
                   style="fill:none;fill-opacity:1;fill-rule:nonzero;stroke:none"
                   id="path30" />
              </g>
            </g>
          </g>
          <g
             id="g32">
            <path
               d="M 8.54646,0 C 8.54646,4.72012 4.72012,8.54646 0,8.54646 -4.72012,8.54646 -8.54646,4.72012 -8.54646,0 c 0,-4.72012 3.82634,-8.54646 8.54646,-8.54646 4.72012,0 8.54646,3.82634 8.54646,8.54646 z"
               style="fill:none;fill-opacity:1;fill-rule:nonzero;stroke:none"
               id="path34" />
          </g>
          <g
             id="g36">
            <path
               d="M 12.75595,0 C 12.75595,7.045 7.045,12.75595 0,12.75595 -7.045,12.75595 -12.75595,7.045 -12.75595,0 -12.75595,-7.045 -7.045,-12.75595 0,-12.75595 7.045,-12.75595 12.75595,-7.045 12.75595,0 Z"
               style="fill:none;stroke:none;stroke-width:0.79701;stroke-linecap:butt;stroke-linejoin:miter;stroke-miterlimit:10;stroke-dasharray:none;stroke-opacity:1"
               id="path38" />
          </g>
          <g
             id="g40">
            <g
               id="g42" />
            <g
               id="g44"
               transform="translate(-2.864,-3.251)">
              <g
                 id="g46">
                <g
                   id="g48"
                   transform="translate(-30.903,-769.925)">
                  <text
                     xml:space="preserve"
                     transform="matrix(1,0,0,-1,30.903,769.925)"
                     style="font-variant:normal;font-weight:bold;font-size:9.9626px;font-family:LMRoman10;-inkscape-font-specification:LMRoman10-Bold;writing-mode:lr-tb;fill:none;fill-opacity:1;fill-rule:nonzero;stroke:none"
                     id="text52"><tspan
                       x="0"
                       y="0"
                       id="tspan50">8</tspan></text>
                  <g
                     id="g54"
                     transform="translate(30.903,769.925)" />
                </g>
              </g>
              <g
                 id="g56"
                 transform="translate(2.864,3.251)" />
            </g>
          </g>
        </g>
      </g>
    </g>
  </g>
</svg>
