<svg version="1.1" id="Layer_1" xmlns="http://www.w3.org/2000/svg" xmlns:xlink="http://www.w3.org/1999/xlink" x="0px" y="0px"
	 width="100%" viewBox="0 0 512 512" enable-background="new 0 0 512 512" xml:space="preserve">
<path fill="#000000" opacity="1.000000" stroke="none" 
	d="
M1.000000,456.468384 
	C34.590126,415.188385 74.691635,380.708862 111.236885,342.768738 
	C122.144875,331.444458 139.012970,330.385864 152.403839,339.058380 
	C153.508911,339.774078 154.684692,340.380585 156.218094,341.262390 
	C160.923523,337.189972 165.430099,332.908447 169.442078,327.707581 
	C155.934052,312.885040 145.350021,296.490814 137.357483,278.478912 
	C129.323593,260.373840 123.765579,241.600906 121.469658,221.799820 
	C120.338211,212.041641 119.302246,202.341278 119.677071,192.543045 
	C121.027870,157.232162 130.096527,124.248665 148.774445,93.963112 
	C157.729019,79.443588 168.117538,66.141197 180.419312,54.486897 
	C202.147064,33.902718 227.279709,18.750051 255.920380,9.697625 
	C266.339996,6.404305 276.865204,3.492221 287.814545,2.478959 
	C288.413513,2.423532 288.968384,1.892191 289.771912,1.291192 
	C307.354218,1.000000 324.708466,1.000000 342.710571,1.283785 
	C343.912170,1.900558 344.438080,2.462219 345.023682,2.533612 
	C369.699738,5.541810 392.574860,13.844604 414.116028,26.036947 
	C442.821594,42.284344 465.872040,64.402184 483.466949,92.343460 
	C494.352692,109.630356 502.226807,128.096832 507.452332,147.813126 
	C510.087646,157.756363 511.576996,167.860107 513.000000,178.000000 
	C513.000000,190.687561 513.000000,203.375122 513.000000,216.531342 
	C510.964905,231.777466 508.220398,246.361725 503.446106,260.578461 
	C495.244629,285.000366 482.539520,306.715851 465.861877,326.270508 
	C446.771576,348.654022 423.654846,365.570312 396.848511,377.435944 
	C376.543121,386.423981 355.279022,391.525940 333.074463,393.493591 
	C298.501953,396.557190 265.661835,390.342224 234.296021,376.206329 
	C217.927597,368.829468 202.516739,359.572906 189.228043,347.240784 
	C186.947067,345.123993 185.023605,344.746155 182.898010,347.210297 
	C182.789520,347.336060 182.659393,347.442932 182.542816,347.561981 
	C179.745209,350.418915 176.321259,352.897247 174.306915,356.228058 
	C171.692017,360.551941 176.805984,363.189087 178.049118,366.754517 
	C183.033478,381.050232 180.507339,393.528931 169.801285,404.266663 
	C136.856415,437.309174 103.911705,470.351837 70.914276,503.341766 
	C67.036186,507.218933 62.387459,510.112000 57.216568,512.739502 
	C50.645603,513.000000 44.291203,513.000000 37.262787,512.796875 
	C34.059944,511.388184 31.163216,510.629852 29.063633,508.902588 
	C17.776146,499.616455 6.373639,490.355377 1.000000,476.000000 
	C1.000000,469.645599 1.000000,463.291199 1.000000,456.468384 
M444.126678,78.375145 
	C427.948029,61.598381 409.514496,48.092068 388.175934,38.429028 
	C358.759277,25.107862 328.164917,20.656458 296.159210,24.236431 
	C273.251526,26.798748 251.980072,34.059864 231.837967,45.025734 
	C212.494370,55.556885 195.802780,69.482384 182.003922,86.448738 
	C164.625397,107.816452 152.543030,131.986145 146.530045,159.139740 
	C141.544647,181.652924 140.517990,204.240265 144.657410,226.813126 
	C152.327866,268.641296 172.465240,303.447174 205.042267,331.012207 
	C223.178055,346.357788 243.655716,357.447388 266.225281,364.366302 
	C292.121460,372.304993 318.722839,374.360260 345.412018,369.415558 
	C383.654144,362.330353 416.683380,345.263000 443.518982,316.567993 
	C457.283295,301.850006 468.288879,285.432800 476.309143,267.084381 
	C485.223236,246.691086 490.463135,225.340317 490.646973,202.942062 
	C490.736847,191.991852 490.692413,181.104065 488.844116,170.182770 
	C485.434021,150.033127 479.114990,131.003052 469.253265,113.138397 
	C462.409515,100.740845 454.243378,89.285454 444.126678,78.375145 
M32.856461,481.615234 
	C33.446045,482.203674 34.038319,482.789459 34.624798,483.380951 
	C44.854549,493.697693 48.053608,493.702728 58.232147,483.539673 
	C81.336601,460.470459 104.469681,437.429962 127.568092,414.354736 
	C136.288864,405.642761 145.083878,396.998474 153.585358,388.075867 
	C159.595001,381.768555 159.313278,377.487183 153.224274,371.311462 
	C149.715424,367.752655 146.170578,364.229156 142.628128,360.703674 
	C136.517746,354.622498 131.553467,354.595917 125.487793,360.663116 
	C110.295822,375.859039 95.132637,391.083710 79.939346,406.278259 
	C62.507954,423.711090 45.049519,441.116852 27.617714,458.549255 
	C21.417320,464.749878 21.370754,469.744110 27.428682,476.182251 
	C29.026138,477.879944 30.723364,479.483826 32.856461,481.615234 
z"/>
<path fill="#000000" opacity="1.000000" stroke="none" 
	d="
M453.740234,123.382248 
	C463.202148,140.653610 468.572357,158.904129 471.096100,177.923141 
	C473.131348,193.260910 472.478119,208.664749 469.965912,223.966583 
	C466.504364,245.051132 458.597717,264.429077 447.185150,282.364716 
	C441.931854,290.620636 435.632599,298.146057 428.932648,305.312225 
	C426.863159,307.525726 425.208282,307.494385 423.144928,305.282349 
	C419.853333,301.753510 416.439575,298.328094 412.922760,295.023590 
	C410.607452,292.848083 410.601807,291.331177 412.906525,288.907898 
	C429.975189,270.961212 441.251495,249.868088 446.644165,225.659286 
	C452.121063,201.072113 450.421631,176.917038 442.123138,153.215240 
	C436.192780,136.277191 427.464386,120.965996 414.917664,107.984230 
	C413.292542,106.302719 411.959473,104.461647 411.441498,103.140900 
	C416.589447,97.600929 421.419495,92.403061 426.355927,87.090683 
	C437.598236,97.593842 446.385803,109.710144 453.740234,123.382248 
z"/>
</svg>