<?xml version="1.0" encoding="UTF-8"?>
<svg version="1.1" xmlns="http://www.w3.org/2000/svg" width="512" height="512">
<path d="M0 0 C0.80918176 0.00468233 1.61836352 0.00936466 2.45206594 0.01418889 C3.31146827 0.011282 4.1708706 0.00837512 5.05631542 0.00538015 C7.96782219 -0.0019826 10.87912234 0.00505252 13.79062796 0.01190388 C15.88632837 0.00960193 17.98202798 0.0064272 20.07772589 0.00244939 C25.86136718 -0.0059437 31.64494296 -0.00175297 37.42858458 0.00442183 C43.65632602 0.00892696 49.88405579 0.00197224 56.11179495 -0.00353801 C67.61510359 -0.01193845 79.11838284 -0.01118073 90.62169135 -0.00571508 C101.24721967 -0.00069105 111.87274029 0.00063275 122.49826956 -0.00176036 C123.20210599 -0.00191313 123.90594243 -0.0020659 124.63110724 -0.0022233 C127.48795137 -0.00284594 130.34479549 -0.00348274 133.20163961 -0.00414283 C160.02063447 -0.01026576 186.83961594 -0.0047061 213.65860873 0.00605096 C237.50438014 0.01554272 261.35013018 0.01469349 285.19590139 0.00512898 C311.96472263 -0.00557198 338.73353202 -0.00983159 365.5023551 -0.00364649 C368.35410197 -0.00300502 371.20584885 -0.00237935 374.05759573 -0.00176036 C374.75980833 -0.00160221 375.46202092 -0.00144405 376.18551269 -0.00128111 C386.80636979 0.00099728 397.42721833 -0.0016731 408.04807425 -0.00671947 C420.12013015 -0.01242664 432.19215529 -0.01083924 444.26421022 -0.00015798 C450.4293977 0.00511624 456.59454171 0.00712586 462.75972891 0.00054371 C468.39493887 -0.00538184 474.03006475 -0.00219725 479.66526699 0.00849882 C481.71233473 0.01074735 483.75940947 0.00956439 485.80647278 0.00474724 C488.57235172 -0.00126605 491.33793624 0.0048335 494.10379934 0.01418889 C494.9129811 0.00950655 495.72216287 0.00482422 496.55586529 0 C502.0496319 0.03757043 502.0496319 0.03757043 504.27793264 2.26587117 C504.47527412 5.02363756 504.54557992 7.68099935 504.52961493 10.44000447 C504.53252181 11.2994068 504.53542869 12.15880912 504.53842366 13.04425395 C504.54578641 15.95576072 504.53875129 18.86706086 504.53189993 21.77856648 C504.53420188 23.8742669 504.53737661 25.96996651 504.54135442 28.06566441 C504.54974751 33.84930571 504.54555678 39.63288149 504.53938198 45.4165231 C504.53487685 51.64426454 504.54183157 57.87199431 504.54734182 64.09973347 C504.55574227 75.60304211 504.55498454 87.10632136 504.54951889 98.60962987 C504.54449486 109.2351582 504.54317106 119.86067881 504.54556417 130.48620808 C504.54579333 131.54196273 504.54579333 131.54196273 504.54602711 132.61904576 C504.54664976 135.47588989 504.54728655 138.33273401 504.54794664 141.18957813 C504.55406957 168.008573 504.54850991 194.82755446 504.53775285 221.64654726 C504.52826109 245.49231866 504.52911033 269.3380687 504.53867483 293.18383992 C504.54937579 319.95266116 504.5536354 346.72147054 504.5474503 373.49029362 C504.54680883 376.3420405 504.54618316 379.19378737 504.54556417 382.04553425 C504.54540602 382.74774685 504.54524787 383.44995945 504.54508492 384.17345122 C504.54280654 394.79430831 504.54547691 405.41515686 504.55052328 416.03601277 C504.55623045 428.10806867 504.55464305 440.18009382 504.54396179 452.25214875 C504.53868757 458.41733622 504.53667795 464.58248023 504.5432601 470.74766743 C504.54918565 476.38287739 504.54600106 482.01800327 504.53530499 487.65320551 C504.53305646 489.70027326 504.53423942 491.74734799 504.53905657 493.7944113 C504.54506986 496.56029024 504.53897031 499.32587476 504.52961493 502.09173787 C504.53429726 502.90091963 504.53897959 503.71010139 504.54380381 504.54380381 C504.50623338 510.03757043 504.50623338 510.03757043 502.27793264 512.26587117 C499.52016625 512.46321265 496.86280446 512.53351844 494.10379934 512.51755345 C493.24439702 512.52046033 492.38499469 512.52336721 491.49954987 512.52636218 C488.58804309 512.53372494 485.67674295 512.52668981 482.76523733 512.51983845 C480.66953692 512.52214041 478.57383731 512.52531514 476.4781394 512.52929294 C470.6944981 512.53768603 464.91092233 512.5334953 459.12728071 512.5273205 C452.89953927 512.52281537 446.6718095 512.52977009 440.44407034 512.53528035 C428.9407617 512.54368079 417.43748245 512.54292307 405.93417394 512.53745741 C395.30864561 512.53243339 384.683125 512.53110958 374.05759573 512.5335027 C373.35375929 512.53365547 372.64992286 512.53380824 371.92475805 512.53396564 C369.06791392 512.53458828 366.2110698 512.53522507 363.35422568 512.53588517 C336.53523081 512.5420081 309.71624935 512.53644843 282.89725655 512.52569137 C259.05148515 512.51619962 235.20573511 512.51704885 211.35996389 512.52661335 C184.59114266 512.53731431 157.82233327 512.54157392 131.05351019 512.53538883 C128.20176331 512.53474736 125.35001644 512.53412168 122.49826956 512.5335027 C121.79605696 512.53334454 121.09384436 512.53318639 120.3703526 512.53302344 C109.7494955 512.53074506 99.12864695 512.53341543 88.50779104 512.5384618 C76.43573514 512.54416897 64.36370999 512.54258158 52.29165506 512.53190032 C46.12646759 512.52662609 39.96132358 512.52461647 33.79613638 512.53119862 C28.16092642 512.53712418 22.52580054 512.53393958 16.8905983 512.52324352 C14.84353055 512.52099498 12.79645582 512.52217794 10.74939251 512.52699509 C7.98351357 512.53300838 5.21792905 512.52690883 2.45206594 512.51755345 C1.64288418 512.52223578 0.83370242 512.52691811 0 512.53174233 C-5.49376662 512.49417191 -5.49376662 512.49417191 -7.72206736 510.26587117 C-7.91940883 507.50810478 -7.98971463 504.85074298 -7.97374964 502.09173787 C-7.97665652 501.23233554 -7.9795634 500.37293321 -7.98255837 499.48748839 C-7.98992112 496.57598162 -7.982886 493.66468148 -7.97603464 490.75317585 C-7.9783366 488.65747544 -7.98151133 486.56177583 -7.98548913 484.46607792 C-7.99388222 478.68243663 -7.98969149 472.89886085 -7.98351669 467.11521924 C-7.97901156 460.8874778 -7.98596628 454.65974802 -7.99147654 448.43200886 C-7.99987698 436.92870022 -7.99911926 425.42542097 -7.9936536 413.92211246 C-7.98862957 403.29658414 -7.98730577 392.67106352 -7.98969889 382.04553425 C-7.98992804 380.9897796 -7.98992804 380.9897796 -7.99016183 379.91269657 C-7.99078447 377.05585244 -7.99142126 374.19900832 -7.99208135 371.3421642 C-7.99820429 344.52316934 -7.99264462 317.70418788 -7.98188756 290.88519508 C-7.97239581 267.03942368 -7.97324504 243.19367363 -7.98280954 219.34790242 C-7.9935105 192.57908118 -7.99777011 165.81027179 -7.99158502 139.04144871 C-7.99094355 136.18970184 -7.99031787 133.33795496 -7.98969889 130.48620808 C-7.98954073 129.78399548 -7.98938258 129.08178289 -7.98921963 128.35829112 C-7.98694125 117.73743403 -7.98961162 107.11658548 -7.99465799 96.49572957 C-8.00036516 84.42367366 -7.99877777 72.35164852 -7.98809651 60.27959359 C-7.98282228 54.11440611 -7.98081266 47.9492621 -7.98739481 41.7840749 C-7.99332037 36.14886494 -7.99013577 30.51373907 -7.97943971 24.87853682 C-7.97719117 22.83146908 -7.97837413 20.78439434 -7.98319128 18.73733103 C-7.98920457 15.97145209 -7.98310502 13.20586757 -7.97374964 10.44000447 C-7.97843197 9.63082271 -7.9831143 8.82164094 -7.98793852 7.98793852 C-7.94167611 1.22317887 -6.76475966 0.04626242 0 0 Z M2.27793264 10.26587117 C2.27793264 23.13587117 2.27793264 36.00587117 2.27793264 49.26587117 C14.70233329 47.71282109 23.86256297 42.56627972 32.27793264 33.26587117 C37.31433335 26.49388206 41.27793264 18.81923481 41.27793264 10.26587117 C28.40793264 10.26587117 15.53793264 10.26587117 2.27793264 10.26587117 Z M52.27793264 10.26587117 C51.74168264 12.67899617 51.20543264 15.09212117 50.65293264 17.57837117 C47.24623557 31.63117469 40.04979099 43.03578865 27.84043264 51.14087117 C19.35387967 56.16424863 12.05938955 58.30957979 2.27793264 60.26587117 C2.27793264 206.12587117 2.27793264 351.98587117 2.27793264 502.26587117 C48.80793264 502.26587117 95.33793264 502.26587117 143.27793264 502.26587117 C144.26793264 494.34587117 144.26793264 494.34587117 145.27793264 486.26587117 C146.04009485 482.84988513 146.80622658 479.64477964 147.84043264 476.32837117 C148.09800344 475.49483113 148.35557425 474.66129109 148.62095022 473.80249226 C153.39563753 459.12593665 161.24922155 446.88374725 171.27793264 435.26587117 C171.84769827 434.5942696 172.41746389 433.92266804 173.00449514 433.23071492 C185.19433129 420.0094311 201.69353101 412.34373009 218.27793264 406.26587117 C215.05239446 403.7198047 211.6543333 401.68110662 208.09043264 399.64087117 C202.37991565 396.36785417 202.37991565 396.36785417 201.27793264 395.26587117 C200.2065184 387.40883341 203.63761487 379.716021 207.59433889 373.04712117 C212.65836059 366.46822118 220.23085888 363.33315754 228.27793264 362.26587117 C231.28477487 362.11766929 234.28733713 362.10200875 237.29746389 362.09790242 C238.15547094 362.09457402 239.01347799 362.09124562 239.89748526 362.08781636 C241.7069942 362.08277113 243.51651238 362.08040729 245.32602835 362.08056843 C248.07122295 362.07838644 250.81601236 362.06021745 253.56113577 362.04126179 C255.32741045 362.03832633 257.09368702 362.03634256 258.85996389 362.03540242 C259.66964117 362.0282169 260.47931845 362.02103138 261.3135314 362.01362813 C272.01905114 362.05581254 280.73653884 364.47112706 288.46543264 372.14087117 C291.29495181 375.66412919 292.79599424 379.66681145 294.27793264 383.89087117 C294.51020559 384.53653035 294.74247854 385.18218953 294.98179007 385.84741414 C295.89937547 388.70433266 296.32566904 390.9471605 295.87949514 393.92602742 C293.48524592 397.42396714 290.3116533 399.04987383 286.65293264 401.07837117 C285.94652639 401.48507039 285.24012014 401.8917696 284.51230764 402.31079304 C282.7748322 403.30866745 281.02731711 404.2890251 279.27793264 405.26587117 C280.77590036 408.26180659 282.90938301 408.36038666 286.02793264 409.45337117 C311.76238777 419.11783903 332.2200111 437.70098209 343.6280303 462.78491414 C349.25043314 475.80754306 351.4938534 487.99323722 353.27793264 502.26587117 C399.80793264 502.26587117 446.33793264 502.26587117 494.27793264 502.26587117 C494.27793264 356.40587117 494.27793264 210.54587117 494.27793264 60.26587117 C488.99793264 58.94587117 483.71793264 57.62587117 478.27793264 56.26587117 C463.04275421 49.29658742 453.29925536 38.54999543 447.10215139 23.04321492 C445.86118011 18.8615534 445.13337456 14.54308076 444.27793264 10.26587117 C435.36793264 10.26587117 426.45793264 10.26587117 417.27793264 10.26587117 C417.27793264 52.83587117 417.27793264 95.40587117 417.27793264 139.26587117 C424.20793264 139.92587117 431.13793264 140.58587117 438.27793264 141.26587117 C445.73718353 143.96389808 451.14557627 147.3681753 455.27793264 154.26587117 C456.44451322 156.78245252 457.42320959 159.33644788 458.34043264 161.95337117 C458.68328299 162.91605916 458.68328299 162.91605916 459.0330596 163.89819539 C459.94590289 166.79356731 460.31106621 169.03871506 459.87168264 172.05102742 C457.89323035 174.8004942 455.9513263 175.19415711 452.81772757 176.23022664 C448.6386327 177.79198802 445.69628198 179.41791638 443.27793264 183.26587117 C441.20461061 192.97566557 441.87643106 203.17781242 442.35874319 213.03882039 C442.27793264 216.26587117 442.27793264 216.26587117 440.27793264 219.26587117 C437.46978365 219.58186623 434.87734342 219.7032504 432.06455374 219.69824421 C430.7912747 219.71353169 430.7912747 219.71353169 429.49227285 219.729128 C426.67857264 219.75939069 423.86521209 219.76854407 421.05137014 219.77758992 C419.10365547 219.79442678 417.15595173 219.81257567 415.20826101 219.8319875 C410.07577826 219.87960145 404.94333981 219.90933698 399.81070852 219.93542683 C394.57573585 219.96517502 389.34091603 220.01172495 384.10605764 220.05688679 C373.83009575 220.14304947 363.55410249 220.21033693 353.27793264 220.26587117 C353.15241018 221.3476363 353.02688772 222.42940144 352.89756155 223.54394734 C352.72509619 224.98643826 352.55239483 226.42890099 352.37949514 227.87133992 C352.29772024 228.58157307 352.21594534 229.29180623 352.13169241 230.0235616 C351.50222854 235.21887592 350.41275166 240.12212456 348.86387014 245.12915242 C348.14570275 247.37880262 348.14570275 247.37880262 348.27793264 250.26587117 C349.13959036 250.2856905 350.00124807 250.30550984 350.88901663 250.32592976 C354.12654921 250.4046447 357.36374755 250.49135489 360.60093069 250.58325398 C361.99440337 250.62122414 363.38796346 250.65612887 364.78159475 250.68774617 C377.71592484 250.98476702 388.85803597 251.60700049 398.46543264 261.14087117 C401.29495181 264.66412919 402.79599424 268.66681145 404.27793264 272.89087117 C404.51020559 273.53653035 404.74247854 274.18218953 404.98179007 274.84741414 C405.91768939 277.76135338 406.3139683 280.01607061 405.87558889 283.05493367 C403.89352179 285.79784316 401.948897 286.19496031 398.81772757 287.23022664 C394.6386327 288.79198802 391.69628198 290.41791638 389.27793264 294.26587117 C387.20461061 303.97566557 387.87643106 314.17781242 388.35874319 324.03882039 C388.27793264 327.26587117 388.27793264 327.26587117 386.27793264 330.26587117 C383.91817617 330.63336384 383.91817617 330.63336384 380.926126 330.62231648 C379.24945097 330.62681813 379.24945097 330.62681813 377.53890371 330.63141072 C375.72169569 330.61289052 375.72169569 330.61289052 373.86777639 330.59399617 C372.62999945 330.592123 371.3922225 330.59024983 370.11693716 330.5883199 C366.82424743 330.5798601 363.53199176 330.55785473 360.23941946 330.53015339 C356.88443271 330.50647899 353.52948242 330.50516712 350.17441702 330.50024617 C347.63469867 330.49107646 345.09498433 330.4807008 342.55527639 330.46899617 C341.34178015 330.46474629 340.1282839 330.46049641 338.87801504 330.45611775 C337.20606825 330.44170643 337.20606825 330.44170643 335.50034475 330.42700398 C334.51376379 330.42017598 333.52718283 330.41334797 332.51070547 330.40631306 C330.27793264 330.26587117 330.27793264 330.26587117 329.27793264 329.26587117 C329.11797098 326.6743401 329.01854568 324.10635097 328.96152639 321.51196492 C328.93035475 320.34879498 328.93035475 320.34879498 328.89855337 319.16212666 C328.83297463 316.67596809 328.77413465 314.18970072 328.71543264 311.70337117 C328.67225531 310.02171912 328.62864128 308.34007823 328.58457327 306.65844929 C328.47728486 302.52770246 328.37604132 298.39684581 328.27793264 294.26587117 C324.81293264 292.78087117 324.81293264 292.78087117 321.27793264 291.26587117 C320.59730764 291.8833321 319.91668264 292.50079304 319.21543264 293.13696492 C308.2637532 302.70512103 296.37571244 309.54297475 282.65683889 314.39087117 C280.35543962 315.04851691 280.35543962 315.04851691 279.27793264 316.26587117 C278.99314143 319.0414554 278.82950245 321.81714962 278.65683889 324.60180867 C278.27793264 327.26587117 278.27793264 327.26587117 276.27793264 330.26587117 C273.91817617 330.63336384 273.91817617 330.63336384 270.926126 330.62231648 C269.24945097 330.62681813 269.24945097 330.62681813 267.53890371 330.63141072 C265.72169569 330.61289052 265.72169569 330.61289052 263.86777639 330.59399617 C262.62999945 330.592123 261.3922225 330.59024983 260.11693716 330.5883199 C256.82424743 330.5798601 253.53199176 330.55785473 250.23941946 330.53015339 C246.88443271 330.50647899 243.52948242 330.50516712 240.17441702 330.50024617 C237.63469867 330.49107646 235.09498433 330.4807008 232.55527639 330.46899617 C231.34178015 330.46474629 230.1282839 330.46049641 228.87801504 330.45611775 C227.20606825 330.44170643 227.20606825 330.44170643 225.50034475 330.42700398 C224.51376379 330.42017598 223.52718283 330.41334797 222.51070547 330.40631306 C220.27793264 330.26587117 220.27793264 330.26587117 219.27793264 329.26587117 C219.04311572 327.08294343 218.86429942 324.89383942 218.71543264 322.70337117 C218.63164358 321.5058321 218.54785452 320.30829304 218.46152639 319.07446492 C218.40094046 318.14762898 218.34035452 317.22079304 218.27793264 316.26587117 C216.87994436 315.73800007 216.87994436 315.73800007 215.45371389 315.19946492 C201.95017509 310.01320685 190.28527078 303.7079804 179.07871389 294.52368367 C176.52407602 292.30011973 176.52407602 292.30011973 174.27793264 291.26587117 C171.55400889 292.12987144 171.55400889 292.12987144 169.27793264 294.26587117 C168.77329271 296.93687085 168.60207723 298.99978414 168.64121389 301.67212117 C168.63083593 302.39323079 168.62045797 303.11434041 168.60976553 303.85730183 C168.58005938 306.16064248 168.58346109 308.46237339 168.59043264 310.76587117 C168.58153965 313.06891691 168.56558159 315.37153077 168.53896475 317.6744405 C168.52405246 319.10673998 168.52024502 320.53920774 168.52874136 321.97155964 C168.50773005 325.63620405 168.37049484 327.12702787 166.27793264 330.26587117 C163.91817617 330.63336384 163.91817617 330.63336384 160.926126 330.62231648 C159.24945097 330.62681813 159.24945097 330.62681813 157.53890371 330.63141072 C155.72169569 330.61289052 155.72169569 330.61289052 153.86777639 330.59399617 C152.62999945 330.592123 151.3922225 330.59024983 150.11693716 330.5883199 C146.82424743 330.5798601 143.53199176 330.55785473 140.23941946 330.53015339 C136.88443271 330.50647899 133.52948242 330.50516712 130.17441702 330.50024617 C127.63469867 330.49107646 125.09498433 330.4807008 122.55527639 330.46899617 C121.34178015 330.46474629 120.1282839 330.46049641 118.87801504 330.45611775 C117.20606825 330.44170643 117.20606825 330.44170643 115.50034475 330.42700398 C114.51376379 330.42017598 113.52718283 330.41334797 112.51070547 330.40631306 C110.27793264 330.26587117 110.27793264 330.26587117 109.27793264 329.26587117 C109.31588111 326.77919812 109.40825984 324.31162103 109.52402639 321.82837117 C110.77744234 306.21783249 110.77744234 306.21783249 106.68076468 291.74536335 C102.46668485 288.00525134 97.68356706 286.53429854 92.27793264 285.26587117 C91.27793264 284.26587117 91.27793264 284.26587117 90.90293264 281.51587117 C91.03443019 273.56026966 94.97078067 264.41535461 100.47715139 258.69555867 C108.07182 252.66595192 115.94414881 251.23312111 125.42637014 250.94946492 C126.08376181 250.92868382 126.74115347 250.90790272 127.41846609 250.88649189 C129.49652626 250.82166364 131.5747012 250.76242553 133.65293264 250.70337117 C135.07091276 250.66012229 136.48888171 250.61650608 137.90683889 250.57251179 C141.36375144 250.46605199 144.8207897 250.36460133 148.27793264 250.26587117 C148.16199759 249.71237996 148.04606253 249.15888875 147.92661428 248.58862507 C147.39256149 246.02378379 146.86647332 243.4573672 146.34043264 240.89087117 C146.06682913 239.58569539 146.06682913 239.58569539 145.78769827 238.25415242 C145.52182913 236.94897664 145.52182913 236.94897664 145.25058889 235.61743367 C145.08824759 234.83191121 144.92590628 234.04638875 144.75864553 233.23706257 C144.06238804 228.93363254 143.67851252 224.6055141 143.27793264 220.26587117 C142.19021063 220.2555637 141.10248861 220.24525624 139.98180532 220.23463643 C129.75433834 220.13707757 119.52693458 220.03436058 109.29957056 219.92653191 C104.04099627 219.87125742 98.78241647 219.81783032 93.52378225 219.76855671 C88.45335201 219.72097975 83.38299168 219.66863963 78.31264448 219.61293042 C76.37368325 219.59247654 74.43470283 219.5737686 72.49570799 219.55679715 C69.7896631 219.53282 67.08375165 219.50275672 64.37778616 219.47119343 C63.56786718 219.46543797 62.75794821 219.45968251 61.92348623 219.45375264 C56.39198481 219.37992333 56.39198481 219.37992333 55.27793264 218.26587117 C55.31588111 215.77919812 55.40825984 213.31162103 55.52402639 210.82837117 C56.77744234 195.21783249 56.77744234 195.21783249 52.68076468 180.74536335 C48.46668485 177.00525134 43.68356706 175.53429854 38.27793264 174.26587117 C37.27793264 173.26587117 37.27793264 173.26587117 36.90293264 170.51587117 C37.03380868 162.597871 40.93968298 153.30163513 46.53574514 147.69165242 C56.55543073 139.49168551 65.44293437 140.58349005 79.27793264 139.26587117 C79.27793264 96.69587117 79.27793264 54.12587117 79.27793264 10.26587117 C70.36793264 10.26587117 61.45793264 10.26587117 52.27793264 10.26587117 Z M89.27793264 10.26587117 C89.27793264 52.83587117 89.27793264 95.40587117 89.27793264 139.26587117 C96.20793264 139.92587117 103.13793264 140.58587117 110.27793264 141.26587117 C117.73718353 143.96389808 123.14557627 147.3681753 127.27793264 154.26587117 C128.44451322 156.78245252 129.42320959 159.33644788 130.34043264 161.95337117 C130.56899954 162.59516316 130.79756643 163.23695515 131.0330596 163.89819539 C131.94223977 166.78194858 132.31270694 169.02717767 131.87558889 172.02758992 C129.90849655 174.783443 127.86924463 175.37382329 124.76645803 176.53564656 C120.8299592 178.12852578 117.73745201 179.71045203 115.27793264 183.26587117 C113.23991258 192.13700233 114.62838833 201.30215969 115.27793264 210.26587117 C131.11793264 210.26587117 146.95793264 210.26587117 163.27793264 210.26587117 C163.27793264 201.35587117 163.27793264 192.44587117 163.27793264 183.26587117 C158.05837094 180.34717546 158.05837094 180.34717546 152.83677053 177.43213093 C151.86598562 176.88770344 151.86598562 176.88770344 150.87558889 176.33227742 C150.21051321 175.96046345 149.54543753 175.58864949 148.86020803 175.20556843 C147.27793264 174.26587117 147.27793264 174.26587117 146.27793264 173.26587117 C145.2065184 165.40883341 148.63761487 157.716021 152.59433889 151.04712117 C157.65836059 144.46822118 165.23085888 141.33315754 173.27793264 140.26587117 C176.28477487 140.11766929 179.28733713 140.10200875 182.29746389 140.09790242 C183.15547094 140.09457402 184.01347799 140.09124562 184.89748526 140.08781636 C186.7069942 140.08277113 188.51651238 140.08040729 190.32602835 140.08056843 C193.07122295 140.07838644 195.81601236 140.06021745 198.56113577 140.04126179 C200.32741045 140.03832633 202.09368702 140.03634256 203.85996389 140.03540242 C204.66964117 140.0282169 205.47931845 140.02103138 206.3135314 140.01362813 C217.01905114 140.05581254 225.73653884 142.47112706 233.46543264 150.14087117 C236.29495181 153.66412919 237.79599424 157.66681145 239.27793264 161.89087117 C239.51020559 162.53653035 239.74247854 163.18218953 239.98179007 163.84741414 C240.91393174 166.74965389 241.31557098 169.00461682 240.87949514 172.03149617 C238.90877104 174.78089663 236.86685722 175.37471724 233.76645803 176.53564656 C229.8299592 178.12852578 226.73745201 179.71045203 224.27793264 183.26587117 C222.23991258 192.13700233 223.62838833 201.30215969 224.27793264 210.26587117 C240.44793264 210.26587117 256.61793264 210.26587117 273.27793264 210.26587117 C273.27793264 201.35587117 273.27793264 192.44587117 273.27793264 183.26587117 C268.05837094 180.34717546 268.05837094 180.34717546 262.83677053 177.43213093 C261.86598562 176.88770344 261.86598562 176.88770344 260.87558889 176.33227742 C260.21051321 175.96046345 259.54543753 175.58864949 258.86020803 175.20556843 C257.27793264 174.26587117 257.27793264 174.26587117 256.27793264 173.26587117 C255.2065184 165.40883341 258.63761487 157.716021 262.59433889 151.04712117 C267.65836059 144.46822118 275.23085888 141.33315754 283.27793264 140.26587117 C286.28477487 140.11766929 289.28733713 140.10200875 292.29746389 140.09790242 C293.15547094 140.09457402 294.01347799 140.09124562 294.89748526 140.08781636 C296.7069942 140.08277113 298.51651238 140.08040729 300.32602835 140.08056843 C303.07122295 140.07838644 305.81601236 140.06021745 308.56113577 140.04126179 C310.32741045 140.03832633 312.09368702 140.03634256 313.85996389 140.03540242 C314.66964117 140.0282169 315.47931845 140.02103138 316.3135314 140.01362813 C327.01905114 140.05581254 335.73653884 142.47112706 343.46543264 150.14087117 C346.29495181 153.66412919 347.79599424 157.66681145 349.27793264 161.89087117 C349.51020559 162.53653035 349.74247854 163.18218953 349.98179007 163.84741414 C350.91393174 166.74965389 351.31557098 169.00461682 350.87949514 172.03149617 C348.90877104 174.78089663 346.86685722 175.37471724 343.76645803 176.53564656 C339.8299592 178.12852578 336.73745201 179.71045203 334.27793264 183.26587117 C332.23991258 192.13700233 333.62838833 201.30215969 334.27793264 210.26587117 C350.11793264 210.26587117 365.95793264 210.26587117 382.27793264 210.26587117 C382.27793264 201.35587117 382.27793264 192.44587117 382.27793264 183.26587117 C377.05837094 180.34717546 377.05837094 180.34717546 371.83677053 177.43213093 C371.18958059 177.06917927 370.54239065 176.70622761 369.87558889 176.33227742 C369.21051321 175.96046345 368.54543753 175.58864949 367.86020803 175.20556843 C366.27793264 174.26587117 366.27793264 174.26587117 365.27793264 173.26587117 C364.2065184 165.40883341 367.63761487 157.716021 371.59433889 151.04712117 C375.59760783 145.84629315 380.14835043 143.5241383 386.27793264 141.26587117 C396.67293264 140.27587117 396.67293264 140.27587117 407.27793264 139.26587117 C407.27793264 96.69587117 407.27793264 54.12587117 407.27793264 10.26587117 C383.51793264 10.26587117 359.75793264 10.26587117 335.27793264 10.26587117 C335.21734671 17.3286446 335.15676077 24.39141804 335.09433889 31.66821492 C335.05386694 36.1298099 335.01310517 40.59139842 334.97129202 45.05298054 C334.90488218 52.14207018 334.8395737 59.23115847 334.78061819 66.32031453 C334.73304591 72.03264075 334.68070596 77.74490483 334.62499189 83.45715725 C334.60453589 85.64173608 334.58582832 87.82633198 334.56885862 90.01094067 C334.54488619 93.05944087 334.51482222 96.10782239 334.48325491 99.15625203 C334.47749945 100.06902913 334.47174398 100.98180623 334.46581411 101.92224324 C334.39198481 108.15181901 334.39198481 108.15181901 333.27793264 109.26587117 C331.0906434 109.36505329 328.90008651 109.39219515 326.71054983 109.39285481 C325.66902069 109.3951948 325.66902069 109.3951948 324.60645056 109.39758205 C322.26254847 109.40159428 319.9187103 109.39840157 317.57480764 109.3952657 C315.90142672 109.39661964 314.2280461 109.39839953 312.55466604 109.40057576 C307.99694484 109.40515092 303.43924618 109.40336019 298.88152456 109.40019667 C294.12270943 109.3976735 289.36389629 109.40001049 284.60508108 109.40158284 C276.61191348 109.40340466 268.6187551 109.4009979 260.62558889 109.39624226 C251.37054979 109.39079962 242.11553271 109.39256226 232.86049414 109.39806867 C224.92931189 109.40259944 216.9981363 109.40325052 209.06695318 109.40063 C204.32343322 109.39906703 199.57992363 109.398874 194.83640432 109.40216649 C190.37792312 109.40504468 185.91947044 109.40307046 181.46099234 109.39727223 C179.81982868 109.39594435 178.17866263 109.39633921 176.5374999 109.39853489 C174.30673878 109.40124533 172.07607057 109.39786661 169.84531546 109.39285481 C167.96818869 109.39228927 167.96818869 109.39228927 166.05314016 109.39171231 C163.27793264 109.26587117 163.27793264 109.26587117 162.27793264 108.26587117 C162.15256408 105.2225793 162.09180821 102.20089743 162.07261038 99.15625203 C162.06271078 98.20025609 162.05281118 97.24426014 162.0426116 96.25929463 C162.01089412 93.08312703 161.98619884 89.90694444 161.96152639 86.73071492 C161.9409657 84.53495584 161.91996948 82.3392008 161.89855337 80.1434499 C161.84324125 74.35170959 161.79387242 68.55993303 161.74570608 62.76812947 C161.68674746 55.82563237 161.62046942 48.88320183 161.55540609 41.94075978 C161.45728166 31.38250407 161.36850424 20.82420655 161.27793264 10.26587117 C137.51793264 10.26587117 113.75793264 10.26587117 89.27793264 10.26587117 Z M171.27793264 10.26587117 C171.27793264 39.96587117 171.27793264 69.66587117 171.27793264 100.26587117 C186.78793264 100.26587117 202.29793264 100.26587117 218.27793264 100.26587117 C218.27793264 91.35587117 218.27793264 82.44587117 218.27793264 73.26587117 C213.05837094 70.34717546 213.05837094 70.34717546 207.83677053 67.43213093 C207.18958059 67.06917927 206.54239065 66.70622761 205.87558889 66.33227742 C205.21051321 65.96046345 204.54543753 65.58864949 203.86020803 65.20556843 C202.27793264 64.26587117 202.27793264 64.26587117 201.27793264 63.26587117 C200.2065184 55.40883341 203.63761487 47.716021 207.59433889 41.04712117 C212.65836059 34.46822118 220.23085888 31.33315754 228.27793264 30.26587117 C231.28477487 30.11766929 234.28733713 30.10200875 237.29746389 30.09790242 C238.58447447 30.09290982 238.58447447 30.09290982 239.89748526 30.08781636 C241.7069942 30.08277113 243.51651238 30.08040729 245.32602835 30.08056843 C248.07122295 30.07838644 250.81601236 30.06021745 253.56113577 30.04126179 C255.32741045 30.03832633 257.09368702 30.03634256 258.85996389 30.03540242 C260.07447981 30.02462414 260.07447981 30.02462414 261.3135314 30.01362813 C272.01905114 30.05581254 280.73653884 32.47112706 288.46543264 40.14087117 C291.29495181 43.66412919 292.79599424 47.66681145 294.27793264 51.89087117 C294.51020559 52.53653035 294.74247854 53.18218953 294.98179007 53.84741414 C295.89529263 56.69162067 296.32057966 58.95690714 295.91074514 61.92602742 C293.39980183 65.52424523 289.98762079 67.08691954 286.15293264 69.07837117 C283.55418264 70.46024617 280.95543264 71.84212117 278.27793264 73.26587117 C278.27793264 82.17587117 278.27793264 91.08587117 278.27793264 100.26587117 C293.78793264 100.26587117 309.29793264 100.26587117 325.27793264 100.26587117 C325.27793264 70.56587117 325.27793264 40.86587117 325.27793264 10.26587117 C274.45793264 10.26587117 223.63793264 10.26587117 171.27793264 10.26587117 Z M455.27793264 10.26587117 C456.83098272 22.69027181 461.97752409 31.85050149 471.27793264 40.26587117 C478.04992176 45.30227187 485.724569 49.26587117 494.27793264 49.26587117 C494.27793264 36.39587117 494.27793264 23.52587117 494.27793264 10.26587117 C481.40793264 10.26587117 468.53793264 10.26587117 455.27793264 10.26587117 Z M243.27793264 40.26587117 C243.42230764 41.56524617 243.56668264 42.86462117 243.71543264 44.20337117 C243.79664358 44.9342696 243.87785452 45.66516804 243.96152639 46.41821492 C244.09679878 48.27727345 244.09679878 48.27727345 245.27793264 49.26587117 C247.27751628 49.306679 249.27838518 49.30841473 251.27793264 49.26587117 C253.32957501 45.80372468 253.27793264 44.67197881 253.27793264 40.26587117 C249.97793264 40.26587117 246.67793264 40.26587117 243.27793264 40.26587117 Z M218.35996389 44.84790242 C214.79137181 48.89230678 212.27793264 52.73960909 212.27793264 58.26587117 C214.25793264 58.92587117 216.23793264 59.58587117 218.27793264 60.26587117 C218.27793264 58.61587117 218.27793264 56.96587117 218.27793264 55.26587117 C221.57793264 55.26587117 224.87793264 55.26587117 228.27793264 55.26587117 C228.27213186 56.08652058 228.26633108 56.90717 228.26035452 57.75268757 C228.22388199 67.06230042 228.45216757 76.33746319 228.77793264 85.64087117 C228.94293264 90.46712117 229.10793264 95.29337117 229.27793264 100.26587117 C242.14793264 100.26587117 255.01793264 100.26587117 268.27793264 100.26587117 C268.27793264 85.41587117 268.27793264 70.56587117 268.27793264 55.26587117 C271.57793264 55.26587117 274.87793264 55.26587117 278.27793264 55.26587117 C278.27793264 56.91587117 278.27793264 58.56587117 278.27793264 60.26587117 C280.25793264 59.60587117 282.23793264 58.94587117 284.27793264 58.26587117 C283.69399085 52.13448238 281.32353085 48.49743285 277.21543264 44.01587117 C272.85176837 41.41624138 268.26302333 40.92938586 263.27793264 40.26587117 C263.24054983 41.00192585 263.20316702 41.73798054 263.16465139 42.49633992 C262.48382101 52.60199875 262.48382101 52.60199875 259.27793264 56.26587117 C255.51587215 58.96245299 252.88841377 59.67615546 248.27793264 59.64087117 C247.26730764 59.64860554 246.25668264 59.65633992 245.21543264 59.66430867 C240.98867264 59.09099814 238.31827264 57.45483116 235.52793264 54.26587117 C233.64068621 49.73647972 233.52501026 45.13074414 233.27793264 40.26587117 C227.98594081 40.26587117 222.51056641 41.42428934 218.35996389 44.84790242 Z M79.27793264 150.26587117 C79.42230764 151.56524617 79.56668264 152.86462117 79.71543264 154.20337117 C79.79664358 154.9342696 79.87785452 155.66516804 79.96152639 156.41821492 C80.09679878 158.27727345 80.09679878 158.27727345 81.27793264 159.26587117 C83.27751628 159.306679 85.27838518 159.30841473 87.27793264 159.26587117 C89.32957501 155.80372468 89.27793264 154.67197881 89.27793264 150.26587117 C85.97793264 150.26587117 82.67793264 150.26587117 79.27793264 150.26587117 Z M188.27793264 150.26587117 C188.42230764 151.56524617 188.56668264 152.86462117 188.71543264 154.20337117 C188.79664358 154.9342696 188.87785452 155.66516804 188.96152639 156.41821492 C189.09679878 158.27727345 189.09679878 158.27727345 190.27793264 159.26587117 C192.27751628 159.306679 194.27838518 159.30841473 196.27793264 159.26587117 C198.32957501 155.80372468 198.27793264 154.67197881 198.27793264 150.26587117 C194.97793264 150.26587117 191.67793264 150.26587117 188.27793264 150.26587117 Z M298.27793264 150.26587117 C298.42230764 151.56524617 298.56668264 152.86462117 298.71543264 154.20337117 C298.79664358 154.9342696 298.87785452 155.66516804 298.96152639 156.41821492 C299.09679878 158.27727345 299.09679878 158.27727345 300.27793264 159.26587117 C302.27751628 159.306679 304.27838518 159.30841473 306.27793264 159.26587117 C308.32957501 155.80372468 308.27793264 154.67197881 308.27793264 150.26587117 C304.97793264 150.26587117 301.67793264 150.26587117 298.27793264 150.26587117 Z M407.27793264 150.26587117 C407.42230764 151.56524617 407.56668264 152.86462117 407.71543264 154.20337117 C407.79664358 154.9342696 407.87785452 155.66516804 407.96152639 156.41821492 C408.09679878 158.27727345 408.09679878 158.27727345 409.27793264 159.26587117 C411.27751628 159.306679 413.27838518 159.30841473 415.27793264 159.26587117 C417.32957501 155.80372468 417.27793264 154.67197881 417.27793264 150.26587117 C413.97793264 150.26587117 410.67793264 150.26587117 407.27793264 150.26587117 Z M54.35996389 154.84790242 C50.79137181 158.89230678 48.27793264 162.73960909 48.27793264 168.26587117 C50.25793264 168.92587117 52.23793264 169.58587117 54.27793264 170.26587117 C54.27793264 168.61587117 54.27793264 166.96587117 54.27793264 165.26587117 C57.57793264 165.26587117 60.87793264 165.26587117 64.27793264 165.26587117 C64.27213186 166.08652058 64.26633108 166.90717 64.26035452 167.75268757 C64.22388199 177.06230042 64.45216757 186.33746319 64.77793264 195.64087117 C64.94293264 200.46712117 65.10793264 205.29337117 65.27793264 210.26587117 C78.14793264 210.26587117 91.01793264 210.26587117 104.27793264 210.26587117 C104.27793264 195.41587117 104.27793264 180.56587117 104.27793264 165.26587117 C107.57793264 165.26587117 110.87793264 165.26587117 114.27793264 165.26587117 C114.27793264 166.91587117 114.27793264 168.56587117 114.27793264 170.26587117 C116.25793264 169.60587117 118.23793264 168.94587117 120.27793264 168.26587117 C119.69122739 162.10546604 117.36721379 158.35515231 113.02793264 154.01587117 C108.74660508 151.29138999 104.38638322 150.26587117 99.27793264 150.26587117 C99.24054983 151.00192585 99.20316702 151.73798054 99.16465139 152.49633992 C98.48382101 162.60199875 98.48382101 162.60199875 95.27793264 166.26587117 C91.51587215 168.96245299 88.88841377 169.67615546 84.27793264 169.64087117 C83.26730764 169.64860554 82.25668264 169.65633992 81.21543264 169.66430867 C76.98867264 169.09099814 74.31827264 167.45483116 71.52793264 164.26587117 C69.64068621 159.73647972 69.52501026 155.13074414 69.27793264 150.26587117 C63.98594081 150.26587117 58.51056641 151.42428934 54.35996389 154.84790242 Z M163.46543264 154.95337117 C159.91339444 158.70838299 157.27793264 163.02164973 157.27793264 168.26587117 C159.25793264 168.92587117 161.23793264 169.58587117 163.27793264 170.26587117 C163.27793264 168.61587117 163.27793264 166.96587117 163.27793264 165.26587117 C166.57793264 165.26587117 169.87793264 165.26587117 173.27793264 165.26587117 C173.60793264 180.11587117 173.93793264 194.96587117 174.27793264 210.26587117 C187.14793264 210.26587117 200.01793264 210.26587117 213.27793264 210.26587117 C213.27793264 195.41587117 213.27793264 180.56587117 213.27793264 165.26587117 C216.57793264 165.26587117 219.87793264 165.26587117 223.27793264 165.26587117 C223.27793264 166.91587117 223.27793264 168.56587117 223.27793264 170.26587117 C225.25793264 169.60587117 227.23793264 168.94587117 229.27793264 168.26587117 C228.69122739 162.10546604 226.36721379 158.35515231 222.02793264 154.01587117 C217.74660508 151.29138999 213.38638322 150.26587117 208.27793264 150.26587117 C208.24054983 151.00192585 208.20316702 151.73798054 208.16465139 152.49633992 C207.48382101 162.60199875 207.48382101 162.60199875 204.27793264 166.26587117 C200.51587215 168.96245299 197.88841377 169.67615546 193.27793264 169.64087117 C192.26730764 169.64860554 191.25668264 169.65633992 190.21543264 169.66430867 C185.98867264 169.09099814 183.31827264 167.45483116 180.52793264 164.26587117 C178.64068621 159.73647972 178.52501026 155.13074414 178.27793264 150.26587117 C172.92072432 150.26587117 168.02664326 152.2166448 163.46543264 154.95337117 Z M273.46543264 154.95337117 C269.91339444 158.70838299 267.27793264 163.02164973 267.27793264 168.26587117 C269.25793264 168.92587117 271.23793264 169.58587117 273.27793264 170.26587117 C273.27793264 168.61587117 273.27793264 166.96587117 273.27793264 165.26587117 C276.57793264 165.26587117 279.87793264 165.26587117 283.27793264 165.26587117 C283.60793264 180.11587117 283.93793264 194.96587117 284.27793264 210.26587117 C297.14793264 210.26587117 310.01793264 210.26587117 323.27793264 210.26587117 C323.27793264 195.41587117 323.27793264 180.56587117 323.27793264 165.26587117 C326.57793264 165.26587117 329.87793264 165.26587117 333.27793264 165.26587117 C333.27793264 166.91587117 333.27793264 168.56587117 333.27793264 170.26587117 C335.25793264 169.60587117 337.23793264 168.94587117 339.27793264 168.26587117 C338.69122739 162.10546604 336.36721379 158.35515231 332.02793264 154.01587117 C327.74660508 151.29138999 323.38638322 150.26587117 318.27793264 150.26587117 C318.24054983 151.00192585 318.20316702 151.73798054 318.16465139 152.49633992 C317.48382101 162.60199875 317.48382101 162.60199875 314.27793264 166.26587117 C310.51587215 168.96245299 307.88841377 169.67615546 303.27793264 169.64087117 C302.26730764 169.64860554 301.25668264 169.65633992 300.21543264 169.66430867 C295.98867264 169.09099814 293.31827264 167.45483116 290.52793264 164.26587117 C288.64068621 159.73647972 288.52501026 155.13074414 288.27793264 150.26587117 C282.92072432 150.26587117 278.02664326 152.2166448 273.46543264 154.95337117 Z M382.46543264 154.95337117 C378.91339444 158.70838299 376.27793264 163.02164973 376.27793264 168.26587117 C378.25793264 168.92587117 380.23793264 169.58587117 382.27793264 170.26587117 C382.27793264 168.61587117 382.27793264 166.96587117 382.27793264 165.26587117 C385.57793264 165.26587117 388.87793264 165.26587117 392.27793264 165.26587117 C392.60793264 180.11587117 392.93793264 194.96587117 393.27793264 210.26587117 C406.14793264 210.26587117 419.01793264 210.26587117 432.27793264 210.26587117 C432.27793264 195.41587117 432.27793264 180.56587117 432.27793264 165.26587117 C435.57793264 165.26587117 438.87793264 165.26587117 442.27793264 165.26587117 C442.27793264 166.91587117 442.27793264 168.56587117 442.27793264 170.26587117 C444.25793264 169.60587117 446.23793264 168.94587117 448.27793264 168.26587117 C447.69122739 162.10546604 445.36721379 158.35515231 441.02793264 154.01587117 C436.74660508 151.29138999 432.38638322 150.26587117 427.27793264 150.26587117 C427.24054983 151.00192585 427.20316702 151.73798054 427.16465139 152.49633992 C426.48382101 162.60199875 426.48382101 162.60199875 423.27793264 166.26587117 C419.51587215 168.96245299 416.88841377 169.67615546 412.27793264 169.64087117 C411.26730764 169.64860554 410.25668264 169.65633992 409.21543264 169.66430867 C404.98867264 169.09099814 402.31827264 167.45483116 399.52793264 164.26587117 C397.64068621 159.73647972 397.52501026 155.13074414 397.27793264 150.26587117 C391.92072432 150.26587117 387.02664326 152.2166448 382.46543264 154.95337117 Z M154.27793264 220.26587117 C154.12444419 227.54429349 154.12444419 227.54429349 155.30137014 234.19555867 C155.51793264 235.01024617 155.73449514 235.82493367 155.95762014 236.66430867 C156.30179983 237.8902071 156.30179983 237.8902071 156.65293264 239.14087117 C156.87465139 239.98133992 157.09637014 240.82180867 157.32480764 241.68774617 C158.32839092 245.38329401 159.12685069 248.03924824 161.27793264 251.26587117 C163.12487814 252.04442973 165.0063091 252.74265806 166.90293264 253.39087117 C174.01859412 256.28826626 178.79569577 259.96238148 182.11094046 267.04565632 C184.77810416 273.47257642 186.98175333 279.28985063 185.27793264 286.26587117 C191.61265444 291.36196021 197.98979459 295.90982675 205.15293264 299.76587117 C205.77047415 300.10360554 206.38801565 300.44133992 207.02427053 300.78930867 C210.76033927 302.74233393 214.0905367 303.80487345 218.27793264 304.26587117 C218.27793264 300.96587117 218.27793264 297.66587117 218.27793264 294.26587117 C217.13453421 293.62778523 215.99113577 292.98969929 214.81308889 292.33227742 C213.32215461 291.4977293 211.83127185 290.66308912 210.34043264 289.82837117 C209.58568655 289.40749226 208.83094046 288.98661335 208.05332327 288.55298054 C207.33467093 288.15014851 206.61601858 287.74731648 205.87558889 287.33227742 C204.87797537 286.77455647 204.87797537 286.77455647 203.86020803 286.20556843 C202.27793264 285.26587117 202.27793264 285.26587117 201.27793264 284.26587117 C200.2065184 276.40883341 203.63761487 268.716021 207.59433889 262.04712117 C212.65836059 255.46822118 220.23085888 252.33315754 228.27793264 251.26587117 C231.28477487 251.11766929 234.28733713 251.10200875 237.29746389 251.09790242 C238.58447447 251.09290982 238.58447447 251.09290982 239.89748526 251.08781636 C241.7069942 251.08277113 243.51651238 251.08040729 245.32602835 251.08056843 C248.07122295 251.07838644 250.81601236 251.06021745 253.56113577 251.04126179 C255.32741045 251.03832633 257.09368702 251.03634256 258.85996389 251.03540242 C260.07447981 251.02462414 260.07447981 251.02462414 261.3135314 251.01362813 C272.01905114 251.05581254 280.73653884 253.47112706 288.46543264 261.14087117 C291.29495181 264.66412919 292.79599424 268.66681145 294.27793264 272.89087117 C294.51020559 273.53653035 294.74247854 274.18218953 294.98179007 274.84741414 C295.90477315 277.72113844 296.32183439 279.96845838 295.87949514 282.96508992 C293.499822 286.38369353 290.31705171 287.62533256 286.65293264 289.45337117 C281.29510854 292.17304212 281.29510854 292.17304212 278.28965139 297.07055867 C278.33665715 299.62333272 278.58640839 301.81224066 279.27793264 304.26587117 C290.80948132 300.8631191 302.81899282 295.00191419 311.27793264 286.26587117 C311.93514188 283.85462377 311.7494559 282.24952483 311.39121389 279.78930867 C311.09148276 273.11253936 314.95798225 265.49496599 318.96543264 260.26587117 C322.8848877 256.17334927 328.71157653 252.84058478 334.33530569 251.9343282 C334.97637259 251.71373738 335.61743948 251.49314656 336.27793264 251.26587117 C337.39054426 248.47084685 338.22197019 245.90844213 338.96543264 243.01587117 C339.17748343 242.2514571 339.38953421 241.48704304 339.60801077 240.69946492 C340.19335968 238.56118719 340.74228548 236.41705596 341.27793264 234.26587117 C341.49062796 233.44602742 341.70332327 232.62618367 341.92246389 231.78149617 C342.45978704 227.97890156 342.27793264 224.10624119 342.27793264 220.26587117 C280.23793264 220.26587117 218.19793264 220.26587117 154.27793264 220.26587117 Z M133.27793264 261.26587117 C133.42230764 262.56524617 133.56668264 263.86462117 133.71543264 265.20337117 C133.79664358 265.9342696 133.87785452 266.66516804 133.96152639 267.41821492 C134.09679878 269.27727345 134.09679878 269.27727345 135.27793264 270.26587117 C137.27751628 270.306679 139.27838518 270.30841473 141.27793264 270.26587117 C143.32957501 266.80372468 143.27793264 265.67197881 143.27793264 261.26587117 C139.97793264 261.26587117 136.67793264 261.26587117 133.27793264 261.26587117 Z M243.27793264 261.26587117 C243.42230764 262.56524617 243.56668264 263.86462117 243.71543264 265.20337117 C243.79664358 265.9342696 243.87785452 266.66516804 243.96152639 267.41821492 C244.09679878 269.27727345 244.09679878 269.27727345 245.27793264 270.26587117 C247.27751628 270.306679 249.27838518 270.30841473 251.27793264 270.26587117 C253.32957501 266.80372468 253.27793264 265.67197881 253.27793264 261.26587117 C249.97793264 261.26587117 246.67793264 261.26587117 243.27793264 261.26587117 Z M353.27793264 261.26587117 C353.42230764 262.56524617 353.56668264 263.86462117 353.71543264 265.20337117 C353.79664358 265.9342696 353.87785452 266.66516804 353.96152639 267.41821492 C354.09679878 269.27727345 354.09679878 269.27727345 355.27793264 270.26587117 C357.27751628 270.306679 359.27838518 270.30841473 361.27793264 270.26587117 C363.32957501 266.80372468 363.27793264 265.67197881 363.27793264 261.26587117 C359.97793264 261.26587117 356.67793264 261.26587117 353.27793264 261.26587117 Z M108.46543264 265.95337117 C104.91339444 269.70838299 102.27793264 274.02164973 102.27793264 279.26587117 C104.25793264 279.92587117 106.23793264 280.58587117 108.27793264 281.26587117 C108.27793264 279.61587117 108.27793264 277.96587117 108.27793264 276.26587117 C111.57793264 276.26587117 114.87793264 276.26587117 118.27793264 276.26587117 C118.60793264 291.11587117 118.93793264 305.96587117 119.27793264 321.26587117 C132.14793264 321.26587117 145.01793264 321.26587117 158.27793264 321.26587117 C158.27793264 306.41587117 158.27793264 291.56587117 158.27793264 276.26587117 C161.57793264 276.26587117 164.87793264 276.26587117 168.27793264 276.26587117 C168.27793264 277.91587117 168.27793264 279.56587117 168.27793264 281.26587117 C170.25793264 280.60587117 172.23793264 279.94587117 174.27793264 279.26587117 C173.69122739 273.10546604 171.36721379 269.35515231 167.02793264 265.01587117 C162.74660508 262.29138999 158.38638322 261.26587117 153.27793264 261.26587117 C153.24054983 262.00192585 153.20316702 262.73798054 153.16465139 263.49633992 C152.48382101 273.60199875 152.48382101 273.60199875 149.27793264 277.26587117 C145.51587215 279.96245299 142.88841377 280.67615546 138.27793264 280.64087117 C137.26730764 280.64860554 136.25668264 280.65633992 135.21543264 280.66430867 C130.98867264 280.09099814 128.31827264 278.45483116 125.52793264 275.26587117 C123.64068621 270.73647972 123.52501026 266.13074414 123.27793264 261.26587117 C117.92072432 261.26587117 113.02664326 263.2166448 108.46543264 265.95337117 Z M218.46543264 265.95337117 C214.91339444 269.70838299 212.27793264 274.02164973 212.27793264 279.26587117 C214.25793264 279.92587117 216.23793264 280.58587117 218.27793264 281.26587117 C218.27793264 279.61587117 218.27793264 277.96587117 218.27793264 276.26587117 C221.57793264 276.26587117 224.87793264 276.26587117 228.27793264 276.26587117 C228.60793264 291.11587117 228.93793264 305.96587117 229.27793264 321.26587117 C242.14793264 321.26587117 255.01793264 321.26587117 268.27793264 321.26587117 C268.27793264 306.41587117 268.27793264 291.56587117 268.27793264 276.26587117 C271.57793264 276.26587117 274.87793264 276.26587117 278.27793264 276.26587117 C278.27793264 277.91587117 278.27793264 279.56587117 278.27793264 281.26587117 C280.25793264 280.60587117 282.23793264 279.94587117 284.27793264 279.26587117 C283.69122739 273.10546604 281.36721379 269.35515231 277.02793264 265.01587117 C272.74660508 262.29138999 268.38638322 261.26587117 263.27793264 261.26587117 C263.24054983 262.00192585 263.20316702 262.73798054 263.16465139 263.49633992 C262.48382101 273.60199875 262.48382101 273.60199875 259.27793264 277.26587117 C255.51587215 279.96245299 252.88841377 280.67615546 248.27793264 280.64087117 C247.26730764 280.64860554 246.25668264 280.65633992 245.21543264 280.66430867 C240.98867264 280.09099814 238.31827264 278.45483116 235.52793264 275.26587117 C233.64068621 270.73647972 233.52501026 266.13074414 233.27793264 261.26587117 C227.92072432 261.26587117 223.02664326 263.2166448 218.46543264 265.95337117 Z M328.46543264 265.95337117 C324.91339444 269.70838299 322.27793264 274.02164973 322.27793264 279.26587117 C324.25793264 279.92587117 326.23793264 280.58587117 328.27793264 281.26587117 C328.27793264 279.61587117 328.27793264 277.96587117 328.27793264 276.26587117 C331.57793264 276.26587117 334.87793264 276.26587117 338.27793264 276.26587117 C338.60793264 291.11587117 338.93793264 305.96587117 339.27793264 321.26587117 C352.14793264 321.26587117 365.01793264 321.26587117 378.27793264 321.26587117 C378.27793264 306.41587117 378.27793264 291.56587117 378.27793264 276.26587117 C381.57793264 276.26587117 384.87793264 276.26587117 388.27793264 276.26587117 C388.27793264 277.91587117 388.27793264 279.56587117 388.27793264 281.26587117 C390.25793264 280.60587117 392.23793264 279.94587117 394.27793264 279.26587117 C393.69122739 273.10546604 391.36721379 269.35515231 387.02793264 265.01587117 C382.74660508 262.29138999 378.38638322 261.26587117 373.27793264 261.26587117 C373.24054983 262.00192585 373.20316702 262.73798054 373.16465139 263.49633992 C372.48382101 273.60199875 372.48382101 273.60199875 369.27793264 277.26587117 C365.51587215 279.96245299 362.88841377 280.67615546 358.27793264 280.64087117 C357.26730764 280.64860554 356.25668264 280.65633992 355.21543264 280.66430867 C350.98867264 280.09099814 348.31827264 278.45483116 345.52793264 275.26587117 C343.64068621 270.73647972 343.52501026 266.13074414 343.27793264 261.26587117 C337.92072432 261.26587117 333.02664326 263.2166448 328.46543264 265.95337117 Z M243.27793264 372.26587117 C243.42230764 373.56524617 243.56668264 374.86462117 243.71543264 376.20337117 C243.79664358 376.9342696 243.87785452 377.66516804 243.96152639 378.41821492 C244.09679878 380.27727345 244.09679878 380.27727345 245.27793264 381.26587117 C247.27751628 381.306679 249.27838518 381.30841473 251.27793264 381.26587117 C253.32957501 377.80372468 253.27793264 376.67197881 253.27793264 372.26587117 C249.97793264 372.26587117 246.67793264 372.26587117 243.27793264 372.26587117 Z M218.46543264 376.95337117 C214.91339444 380.70838299 212.27793264 385.02164973 212.27793264 390.26587117 C214.25793264 390.92587117 216.23793264 391.58587117 218.27793264 392.26587117 C218.27793264 390.61587117 218.27793264 388.96587117 218.27793264 387.26587117 C221.57793264 387.26587117 224.87793264 387.26587117 228.27793264 387.26587117 C228.60793264 402.11587117 228.93793264 416.96587117 229.27793264 432.26587117 C242.14793264 432.26587117 255.01793264 432.26587117 268.27793264 432.26587117 C268.27793264 417.41587117 268.27793264 402.56587117 268.27793264 387.26587117 C271.57793264 387.26587117 274.87793264 387.26587117 278.27793264 387.26587117 C278.27793264 388.91587117 278.27793264 390.56587117 278.27793264 392.26587117 C280.25793264 391.60587117 282.23793264 390.94587117 284.27793264 390.26587117 C283.69122739 384.10546604 281.36721379 380.35515231 277.02793264 376.01587117 C272.74660508 373.29138999 268.38638322 372.26587117 263.27793264 372.26587117 C263.24054983 373.00192585 263.20316702 373.73798054 263.16465139 374.49633992 C262.48382101 384.60199875 262.48382101 384.60199875 259.27793264 388.26587117 C255.51587215 390.96245299 252.88841377 391.67615546 248.27793264 391.64087117 C247.26730764 391.64860554 246.25668264 391.65633992 245.21543264 391.66430867 C240.98867264 391.09099814 238.31827264 389.45483116 235.52793264 386.26587117 C233.64068621 381.73647972 233.52501026 377.13074414 233.27793264 372.26587117 C227.92072432 372.26587117 223.02664326 374.2166448 218.46543264 376.95337117 Z M207.71543264 421.82837117 C206.99452444 422.19406209 206.27361624 422.559753 205.53086233 422.93652546 C183.0415865 434.56169685 165.86329589 453.98513746 157.93027639 478.17993367 C155.49405233 486.47532026 154.27793264 493.55627323 154.27793264 502.26587117 C216.31793264 502.26587117 278.35793264 502.26587117 342.27793264 502.26587117 C342.27793264 496.45540098 342.04244422 491.77922625 340.71543264 486.26587117 C340.53979788 485.53602009 340.36416311 484.80616902 340.18320608 484.05420125 C333.9814553 459.83870964 318.51469128 438.8561865 297.03110647 426.0148946 C291.25827543 422.63984157 285.65020789 420.21137686 279.27793264 418.26587117 C279.25811331 418.85602009 279.23829397 419.44616902 279.21787405 420.05420125 C279.12258606 422.72937213 279.01292325 425.40376614 278.90293264 428.07837117 C278.87199514 429.0071407 278.84105764 429.93591023 278.80918264 430.89282429 C278.77051077 431.78550007 278.73183889 432.67817585 278.69199514 433.59790242 C278.6448638 434.83117268 278.6448638 434.83117268 278.5967803 436.0893575 C278.27793264 438.26587117 278.27793264 438.26587117 276.27793264 441.26587117 C273.91817617 441.63336384 273.91817617 441.63336384 270.926126 441.62231648 C269.24945097 441.62681813 269.24945097 441.62681813 267.53890371 441.63141072 C266.3274317 441.61906392 265.11595968 441.60671711 263.86777639 441.59399617 C262.62999945 441.592123 261.3922225 441.59024983 260.11693716 441.5883199 C256.82424743 441.5798601 253.53199176 441.55785473 250.23941946 441.53015339 C246.88443271 441.50647899 243.52948242 441.50516712 240.17441702 441.50024617 C237.63469867 441.49107646 235.09498433 441.4807008 232.55527639 441.46899617 C231.34178015 441.46474629 230.1282839 441.46049641 228.87801504 441.45611775 C227.20606825 441.44170643 227.20606825 441.44170643 225.50034475 441.42700398 C224.51376379 441.42017598 223.52718283 441.41334797 222.51070547 441.40631306 C220.27793264 441.26587117 220.27793264 441.26587117 219.27793264 440.26587117 C219.1207861 438.63330359 219.02707851 436.99451779 218.96152639 435.35571492 C218.91963186 434.36635945 218.87773733 433.37700398 218.83457327 432.35766804 C218.79525686 431.31675007 218.75594046 430.2758321 218.71543264 429.20337117 C218.67224905 428.15858601 218.62906546 427.11380085 218.58457327 426.03735554 C218.4781204 423.44700233 218.37610505 420.85654931 218.27793264 418.26587117 C214.20869651 418.26587117 211.26523668 420.02687426 207.71543264 421.82837117 Z " fill="#000000" transform="translate(7.722067356109619,-0.26587116718292236)"/>
<path d="M0 0 C1.28701057 -0.0049926 1.28701057 -0.0049926 2.60002136 -0.01008606 C4.40953031 -0.01513128 6.21904848 -0.01749513 8.02856445 -0.01733398 C10.77375905 -0.01951598 13.51854846 -0.03768497 16.26367188 -0.05664062 C18.02994656 -0.05957608 19.79622313 -0.06155986 21.5625 -0.0625 C22.77701591 -0.07327827 22.77701591 -0.07327827 24.0160675 -0.08427429 C35.13773772 -0.04045007 43.68791142 2.61461806 51.66796875 10.54296875 C54.79203163 14.30768047 56.45156192 18.28660893 58.04296875 22.85546875 C58.38557739 23.81815674 58.38557739 23.81815674 58.73510742 24.80029297 C59.67510221 27.77932955 60.04848569 29.86167591 59.3671875 32.9296875 C57.76205568 35.5205059 56.30982806 36.68744918 53.73046875 38.29296875 C52.9828125 38.76992188 52.23515625 39.246875 51.46484375 39.73828125 C48.69076216 41.33468669 45.84737458 42.74632595 42.98046875 44.16796875 C42.96588623 45.14668945 42.95130371 46.12541016 42.9362793 47.13378906 C42.87821769 50.77201501 42.80098615 54.40962711 42.71801758 58.04736328 C42.68480503 59.62050397 42.65676158 61.19376276 42.6340332 62.76708984 C42.60041847 65.03143547 42.54810251 67.2947024 42.4921875 69.55859375 C42.48579758 70.25978333 42.47940765 70.9609729 42.4728241 71.68341064 C42.34829622 75.83797234 41.94108158 78.2088505 38.98046875 81.16796875 C36.50718689 81.66244507 36.50718689 81.66244507 33.53100586 81.65380859 C31.85928566 81.66303848 31.85928566 81.66303848 30.15379333 81.67245483 C28.95061966 81.6580838 27.74744598 81.64371277 26.5078125 81.62890625 C25.27382217 81.62798981 24.03983185 81.62707336 22.76844788 81.62612915 C19.48917284 81.61853323 16.21067181 81.59251665 12.93157959 81.5592041 C9.59304841 81.53228618 6.25465155 81.53865252 2.91601562 81.5390625 C0.38410655 81.52923194 -2.14779624 81.51757521 -4.6796875 81.50390625 C-5.88488541 81.5016806 -7.09008331 81.49945496 -8.33180237 81.49716187 C-9.44313034 81.48440216 -10.55445831 81.47164246 -11.69946289 81.45849609 C-12.68080704 81.4508725 -13.66215118 81.4432489 -14.67323303 81.43539429 C-17.01953125 81.16796875 -17.01953125 81.16796875 -19.01953125 79.16796875 C-19.19463511 76.51505118 -19.25108608 73.96810701 -19.21484375 71.31640625 C-19.21201385 70.54237457 -19.20918396 69.7683429 -19.20626831 68.97085571 C-19.19505879 66.49473718 -19.16995328 64.01897825 -19.14453125 61.54296875 C-19.13450243 59.86589063 -19.12537641 58.18880686 -19.1171875 56.51171875 C-19.09511699 52.39699652 -19.06058227 48.28254364 -19.01953125 44.16796875 C-19.9537793 43.86761719 -20.88802734 43.56726563 -21.85058594 43.2578125 C-24.96316149 42.18735508 -27.47086402 40.88494251 -30.26953125 39.16796875 C-31.1203125 38.65234375 -31.97109375 38.13671875 -32.84765625 37.60546875 C-35.01953125 36.16796875 -35.01953125 36.16796875 -37.01953125 34.16796875 C-38.24329132 26.3009397 -34.61522621 18.28550517 -30.48046875 11.7265625 C-22.55722805 1.83189936 -11.99600797 0.01636462 0 0 Z M5.98046875 11.16796875 C6.12484375 12.46734375 6.26921875 13.76671875 6.41796875 15.10546875 C6.49917969 15.83636719 6.58039063 16.56726563 6.6640625 17.3203125 C6.79933489 19.17937104 6.79933489 19.17937104 7.98046875 20.16796875 C9.98005239 20.20877658 11.98092129 20.21051231 13.98046875 20.16796875 C16.03211112 16.70582226 15.98046875 15.5740764 15.98046875 11.16796875 C12.68046875 11.16796875 9.38046875 11.16796875 5.98046875 11.16796875 Z M-18.83203125 15.85546875 C-22.38406946 19.61048057 -25.01953125 23.92374732 -25.01953125 29.16796875 C-23.03953125 29.82796875 -21.05953125 30.48796875 -19.01953125 31.16796875 C-19.01953125 29.51796875 -19.01953125 27.86796875 -19.01953125 26.16796875 C-15.71953125 26.16796875 -12.41953125 26.16796875 -9.01953125 26.16796875 C-8.68953125 41.01796875 -8.35953125 55.86796875 -8.01953125 71.16796875 C4.85046875 71.16796875 17.72046875 71.16796875 30.98046875 71.16796875 C30.98046875 56.31796875 30.98046875 41.46796875 30.98046875 26.16796875 C34.28046875 26.16796875 37.58046875 26.16796875 40.98046875 26.16796875 C40.98046875 27.81796875 40.98046875 29.46796875 40.98046875 31.16796875 C42.96046875 30.50796875 44.94046875 29.84796875 46.98046875 29.16796875 C46.3937635 23.00756363 44.0697499 19.2572499 39.73046875 14.91796875 C35.44914118 12.19348757 31.08891932 11.16796875 25.98046875 11.16796875 C25.94308594 11.90402344 25.90570313 12.64007813 25.8671875 13.3984375 C25.18635712 23.50409633 25.18635712 23.50409633 21.98046875 27.16796875 C18.21840825 29.86455058 15.59094987 30.57825304 10.98046875 30.54296875 C9.96984375 30.55070312 8.95921875 30.5584375 7.91796875 30.56640625 C3.69120875 29.99309572 1.02080875 28.35692874 -1.76953125 25.16796875 C-3.65677768 20.63857731 -3.77245364 16.03284172 -4.01953125 11.16796875 C-9.37673958 11.16796875 -14.27082064 13.11874238 -18.83203125 15.85546875 Z " fill="#000000" transform="translate(410.01953125,360.83203125)"/>
<path d="M0 0 C1.28701057 -0.0049926 1.28701057 -0.0049926 2.60002136 -0.01008606 C4.40953031 -0.01513128 6.21904848 -0.01749513 8.02856445 -0.01733398 C10.77375905 -0.01951598 13.51854846 -0.03768497 16.26367188 -0.05664062 C18.02994656 -0.05957608 19.79622313 -0.06155986 21.5625 -0.0625 C22.77701591 -0.07327827 22.77701591 -0.07327827 24.0160675 -0.08427429 C35.13773772 -0.04045007 43.68791142 2.61461806 51.66796875 10.54296875 C54.79203163 14.30768047 56.45156192 18.28660893 58.04296875 22.85546875 C58.38557739 23.81815674 58.38557739 23.81815674 58.73510742 24.80029297 C59.67510221 27.77932955 60.04848569 29.86167591 59.3671875 32.9296875 C57.76205568 35.5205059 56.30982806 36.68744918 53.73046875 38.29296875 C52.9828125 38.76992188 52.23515625 39.246875 51.46484375 39.73828125 C48.69076216 41.33468669 45.84737458 42.74632595 42.98046875 44.16796875 C42.96588623 45.14668945 42.95130371 46.12541016 42.9362793 47.13378906 C42.87821769 50.77201501 42.80098615 54.40962711 42.71801758 58.04736328 C42.68480503 59.62050397 42.65676158 61.19376276 42.6340332 62.76708984 C42.60041847 65.03143547 42.54810251 67.2947024 42.4921875 69.55859375 C42.48579758 70.25978333 42.47940765 70.9609729 42.4728241 71.68341064 C42.34829622 75.83797234 41.94108158 78.2088505 38.98046875 81.16796875 C36.50718689 81.66244507 36.50718689 81.66244507 33.53100586 81.65380859 C31.85928566 81.66303848 31.85928566 81.66303848 30.15379333 81.67245483 C28.95061966 81.6580838 27.74744598 81.64371277 26.5078125 81.62890625 C25.27382217 81.62798981 24.03983185 81.62707336 22.76844788 81.62612915 C19.48917284 81.61853323 16.21067181 81.59251665 12.93157959 81.5592041 C9.59304841 81.53228618 6.25465155 81.53865252 2.91601562 81.5390625 C0.38410655 81.52923194 -2.14779624 81.51757521 -4.6796875 81.50390625 C-5.88488541 81.5016806 -7.09008331 81.49945496 -8.33180237 81.49716187 C-9.44313034 81.48440216 -10.55445831 81.47164246 -11.69946289 81.45849609 C-12.68080704 81.4508725 -13.66215118 81.4432489 -14.67323303 81.43539429 C-17.01953125 81.16796875 -17.01953125 81.16796875 -19.01953125 79.16796875 C-19.19463511 76.51505118 -19.25108608 73.96810701 -19.21484375 71.31640625 C-19.21201385 70.54237457 -19.20918396 69.7683429 -19.20626831 68.97085571 C-19.19505879 66.49473718 -19.16995328 64.01897825 -19.14453125 61.54296875 C-19.13450243 59.86589063 -19.12537641 58.18880686 -19.1171875 56.51171875 C-19.09511699 52.39699652 -19.06058227 48.28254364 -19.01953125 44.16796875 C-19.9537793 43.86761719 -20.88802734 43.56726563 -21.85058594 43.2578125 C-24.96316149 42.18735508 -27.47086402 40.88494251 -30.26953125 39.16796875 C-31.1203125 38.65234375 -31.97109375 38.13671875 -32.84765625 37.60546875 C-35.01953125 36.16796875 -35.01953125 36.16796875 -37.01953125 34.16796875 C-38.24329132 26.3009397 -34.61522621 18.28550517 -30.48046875 11.7265625 C-22.55722805 1.83189936 -11.99600797 0.01636462 0 0 Z M5.98046875 11.16796875 C6.12484375 12.46734375 6.26921875 13.76671875 6.41796875 15.10546875 C6.49917969 15.83636719 6.58039063 16.56726563 6.6640625 17.3203125 C6.79933489 19.17937104 6.79933489 19.17937104 7.98046875 20.16796875 C9.98005239 20.20877658 11.98092129 20.21051231 13.98046875 20.16796875 C16.03211112 16.70582226 15.98046875 15.5740764 15.98046875 11.16796875 C12.68046875 11.16796875 9.38046875 11.16796875 5.98046875 11.16796875 Z M-18.9375 15.75 C-22.50609208 19.79440436 -25.01953125 23.64170668 -25.01953125 29.16796875 C-23.03953125 29.82796875 -21.05953125 30.48796875 -19.01953125 31.16796875 C-19.01953125 29.51796875 -19.01953125 27.86796875 -19.01953125 26.16796875 C-15.71953125 26.16796875 -12.41953125 26.16796875 -9.01953125 26.16796875 C-9.02533203 26.98861816 -9.03113281 27.80926758 -9.03710938 28.65478516 C-9.0735819 37.964398 -8.84529632 47.23956077 -8.51953125 56.54296875 C-8.35453125 61.36921875 -8.18953125 66.19546875 -8.01953125 71.16796875 C4.85046875 71.16796875 17.72046875 71.16796875 30.98046875 71.16796875 C30.98046875 56.31796875 30.98046875 41.46796875 30.98046875 26.16796875 C34.28046875 26.16796875 37.58046875 26.16796875 40.98046875 26.16796875 C40.98046875 27.81796875 40.98046875 29.46796875 40.98046875 31.16796875 C42.96046875 30.50796875 44.94046875 29.84796875 46.98046875 29.16796875 C46.3937635 23.00756363 44.0697499 19.2572499 39.73046875 14.91796875 C35.44914118 12.19348757 31.08891932 11.16796875 25.98046875 11.16796875 C25.94308594 11.90402344 25.90570313 12.64007813 25.8671875 13.3984375 C25.18635712 23.50409633 25.18635712 23.50409633 21.98046875 27.16796875 C18.21840825 29.86455058 15.59094987 30.57825304 10.98046875 30.54296875 C9.96984375 30.55070312 8.95921875 30.5584375 7.91796875 30.56640625 C3.69120875 29.99309572 1.02080875 28.35692874 -1.76953125 25.16796875 C-3.65677768 20.63857731 -3.77245364 16.03284172 -4.01953125 11.16796875 C-9.31152308 11.16796875 -14.78689748 12.32638693 -18.9375 15.75 Z " fill="#000000" transform="translate(81.01953125,360.83203125)"/>
</svg>
