<?xml version="1.0" encoding="UTF-8"?>
<svg version="1.1" xmlns="http://www.w3.org/2000/svg" width="512" height="512">
<path d="M0 0 C1.3365287 -0.01469078 1.3365287 -0.01469078 2.70005798 -0.02967834 C22.60828118 -0.20334589 41.90456474 -0.03544421 61.4453125 4.23828125 C62.92451172 4.55974121 62.92451172 4.55974121 64.43359375 4.88769531 C113.29447026 15.88619536 161.14969796 42.34158506 193.4453125 81.23828125 C194.22777344 82.1096875 195.01023437 82.98109375 195.81640625 83.87890625 C224.76774894 116.38002403 243.92344787 159.36421165 250.4453125 202.23828125 C250.62046387 203.358396 250.79561523 204.47851074 250.97607422 205.63256836 C252.5800588 216.94273439 252.84456538 228.13833039 252.8203125 239.55078125 C252.81949677 240.99969254 252.81949677 240.99969254 252.81866455 242.47787476 C252.67723335 297.28359543 233.91294268 351.1405859 198.4453125 393.23828125 C198.00074707 393.77163086 197.55618164 394.30498047 197.09814453 394.85449219 C188.22536736 405.48522354 179.07675597 415.36819695 168.21484375 424.02734375 C166.40012249 425.47604929 164.60476024 426.94942113 162.83203125 428.44921875 C121.52207816 463.33317913 66.69507132 480.72710773 13.1328125 480.61328125 C12.16687164 480.61273743 11.20093079 480.6121936 10.20571899 480.6116333 C-5.69146444 480.57060916 -20.9742443 479.64585488 -36.5546875 476.23828125 C-37.54082031 476.02397461 -38.52695313 475.80966797 -39.54296875 475.58886719 C-80.68601851 466.32763679 -118.66455293 447.01341561 -149.5546875 418.23828125 C-150.94613416 417.02489906 -152.34177389 415.81630322 -153.7421875 414.61328125 C-160.23579506 408.92488103 -165.82997583 402.84849748 -171.23828125 396.11328125 C-172.72964128 394.26228465 -174.24130496 392.42737276 -175.77734375 390.61328125 C-186.48593264 377.92162035 -194.84788293 363.9027082 -202.5546875 349.23828125 C-202.90241211 348.58762695 -203.25013672 347.93697266 -203.60839844 347.26660156 C-214.77726192 326.11658788 -221.86063665 301.78641992 -225.5546875 278.23828125 C-225.73725098 277.08271729 -225.91981445 275.92715332 -226.10791016 274.73657227 C-227.70824137 263.46656388 -227.95385383 252.29750635 -227.9296875 240.92578125 C-227.92914368 239.95984039 -227.92859985 238.99389954 -227.92803955 237.99868774 C-227.88701541 222.10150431 -226.96226113 206.81872445 -223.5546875 191.23828125 C-223.34038086 190.25214844 -223.12607422 189.26601562 -222.90527344 188.25 C-213.64404304 147.10695024 -194.32982186 109.12841582 -165.5546875 78.23828125 C-164.34130531 76.84683459 -163.13270947 75.45119486 -161.9296875 74.05078125 C-123.10814371 29.60680698 -58.8157333 0.53681239 0 0 Z M-118.5546875 79.23828125 C-119.46371826 79.9972168 -119.46371826 79.9972168 -120.39111328 80.77148438 C-130.90119906 89.55392209 -139.96890098 98.52464816 -148.5546875 109.23828125 C-149.22628906 110.04265625 -149.89789063 110.84703125 -150.58984375 111.67578125 C-176.91812055 143.5000204 -194.37627297 187.41375101 -194.79296875 228.890625 C-194.8027626 229.69965271 -194.81255646 230.50868042 -194.82264709 231.34222412 C-195.18915117 269.50152491 -188.59881689 304.37890675 -170.5546875 338.23828125 C-170.1947168 338.91955078 -169.83474609 339.60082031 -169.46386719 340.30273438 C-164.53782061 349.56248241 -159.13718584 358.03600583 -152.5546875 366.23828125 C-151.84699219 367.13804687 -151.13929688 368.0378125 -150.41015625 368.96484375 C-129.52774751 395.07726116 -103.94352776 415.23494914 -73.5546875 429.23828125 C-72.4203125 429.769375 -71.2859375 430.30046875 -70.1171875 430.84765625 C-21.9620681 452.47287191 34.30025125 453.58626112 83.6328125 435.35546875 C109.54461757 425.44851949 132.57219371 411.73410473 152.7890625 392.68359375 C155.4453125 390.23828125 155.4453125 390.23828125 158.09375 388.1328125 C161.69454984 385.23183589 164.46046669 381.75351554 167.4453125 378.23828125 C168.26128906 377.32175781 169.07726562 376.40523438 169.91796875 375.4609375 C177.69140321 366.65464919 184.2101843 357.18102099 190.4453125 347.23828125 C191.06019531 346.26665039 191.06019531 346.26665039 191.6875 345.27539062 C203.04638229 327.07449703 210.62142805 306.07944656 215.4453125 285.23828125 C215.65414063 284.34931152 215.86296875 283.4603418 216.078125 282.54443359 C226.63879465 235.26371403 217.97847817 184.67315325 195.4453125 142.23828125 C195.10129395 141.57828125 194.75727539 140.91828125 194.40283203 140.23828125 C187.12517757 126.34118444 178.14548764 113.87420582 167.4453125 102.390625 C165.60449531 100.40958931 163.86806607 98.37390871 162.1328125 96.30078125 C150.11527174 82.5703956 135.00516158 71.59939521 119.4453125 62.23828125 C118.76871582 61.83077637 118.09211914 61.42327148 117.39501953 61.00341797 C44.43828147 17.60342662 -53.38683749 24.14131093 -118.5546875 79.23828125 Z " fill="#000000" transform="translate(243.5546875,15.76171875)"/>
<path d="M0 0 C4.524353 2.03814453 8.52515863 4.6526993 12.63378906 7.42041016 C15.31269131 9.20874048 18.02363125 10.94052501 20.7421875 12.66796875 C25.03105606 15.39327145 29.31235614 18.12968811 33.5859375 20.87890625 C39.44230842 24.64471957 45.31151939 28.38987644 51.1875 32.125 C52.53050171 32.97904419 52.53050171 32.97904419 53.90063477 33.8503418 C55.69980194 34.9944101 57.49903666 36.13837217 59.29833984 37.28222656 C63.86646057 40.18673564 68.43315077 43.09349229 73 46 C74.83332663 47.1666772 76.66665996 48.33334387 78.5 49.5 C106 67 106 67 133.5 84.5 C134.4084668 85.07806396 135.31693359 85.65612793 136.25292969 86.25170898 C138.07668528 87.41238387 139.90025461 88.57335147 141.72363281 89.73461914 C146.4519798 92.74545118 151.18396162 95.75033442 155.921875 98.74609375 C156.89769531 99.36419922 157.87351562 99.98230469 158.87890625 100.61914062 C160.72404504 101.78772852 162.57030712 102.9545457 164.41796875 104.11914062 C183.63450818 116.30131517 183.63450818 116.30131517 186 122 C186.70544457 127.44092884 186.74374636 132.20824739 184.625 137.3125 C178.14168266 143.95018204 169.5661561 148.63591845 161.75 153.5625 C159.80725243 154.7929068 157.86454523 156.02337735 155.921875 157.25390625 C154.44750977 158.18614014 154.44750977 158.18614014 152.94335938 159.13720703 C148.28977524 162.08236686 143.6451716 165.04159697 139 168 C137.16671363 169.16674046 135.3333802 170.33340698 133.5 171.5 C132.5925 172.0775 131.685 172.655 130.75 173.25 C106 189 81.25 204.75 56.5 220.5 C55.59217773 221.0777417 54.68435547 221.6554834 53.74902344 222.25073242 C51.91907938 223.4151684 50.08900163 224.57939431 48.25878906 225.7434082 C42.68267297 229.29026667 37.1117873 232.84516621 31.54443359 236.40576172 C28.79260975 238.16033191 26.03360334 239.90312204 23.2734375 241.64453125 C19.82662441 243.82196367 16.42173857 246.048588 13.0390625 248.32421875 C-0.93862112 257.57161455 -0.93862112 257.57161455 -9.578125 256.62890625 C-14.43284951 255.36824392 -16.96483441 253.24049017 -20.12450409 249.45410156 C-22.58769721 244.91763782 -22.55846541 241.43740683 -22.50793457 236.359375 C-22.51417453 235.39476349 -22.5204145 234.43015198 -22.52684355 233.43630981 C-22.54278556 230.2072905 -22.5301642 226.97902478 -22.51757812 223.75 C-22.52299868 221.43375203 -22.53012097 219.11750751 -22.53881836 216.80126953 C-22.55706229 210.51208045 -22.54997957 204.22315367 -22.53730202 197.93395996 C-22.52718001 191.35440358 -22.53656548 184.77486976 -22.54284668 178.1953125 C-22.55139149 166.43789297 -22.53815549 154.68058385 -22.51780933 142.92318344 C-22.49993868 132.26643815 -22.50304291 121.60986715 -22.52148438 110.953125 C-22.5428985 98.57281375 -22.55085424 86.19261362 -22.53903532 73.81228638 C-22.53279688 67.2605572 -22.53197453 60.70894805 -22.54518127 54.15722656 C-22.55672961 47.99790486 -22.54873215 41.83891255 -22.52560425 35.67962646 C-22.52031179 33.41811673 -22.52184005 31.15657931 -22.53065491 28.89508057 C-22.54157232 25.80988685 -22.5278919 22.72575115 -22.50793457 19.640625 C-22.51685746 18.74393097 -22.52578034 17.84723694 -22.53497362 16.92337036 C-22.46624432 11.45238178 -21.62831524 8.3479898 -18 4 C-12.70897277 -1.02647587 -6.90777418 -1.38958713 0 0 Z M10 46 C10 100.12 10 154.24 10 210 C17.40297382 205.90139074 17.40297382 205.90139074 24.57421875 201.50390625 C25.55994873 200.8701709 26.54567871 200.23643555 27.5612793 199.58349609 C29.10875854 198.58310303 29.10875854 198.58310303 30.6875 197.5625 C32.35270685 196.49131718 34.01791713 195.42013959 35.6834259 194.34942627 C36.81188647 193.6238092 37.94013132 192.89785654 39.06816101 192.17156982 C44.42909776 188.72017276 49.80635018 185.29476429 55.1875 181.875 C56.08235107 181.30595947 56.97720215 180.73691895 57.89916992 180.15063477 C59.6988186 179.00623029 61.49854154 177.86194259 63.29833984 176.71777344 C67.86646057 173.81326436 72.43315077 170.90650771 77 168 C78.83332663 166.8333228 80.66665996 165.66665613 82.5 164.5 C83.4075 163.9225 84.315 163.345 85.25 162.75 C93.5 157.5 93.5 157.5 96.25390625 155.74755859 C98.07427244 154.58911432 99.89458556 153.43058664 101.71484375 152.27197266 C106.49612661 149.22879245 111.27851535 146.18736893 116.0625 143.1484375 C117.05636719 142.51679688 118.05023438 141.88515625 119.07421875 141.234375 C120.97231479 140.02810836 122.87073305 138.82234856 124.76953125 137.6171875 C129.21326349 134.7923862 133.63424523 131.94401226 138 129 C136.77333981 125.32001944 135.78281895 124.9632045 132.53125 122.98828125 C131.58040527 122.40361084 130.62956055 121.81894043 129.64990234 121.21655273 C128.61043457 120.58821533 127.5709668 119.95987793 126.5 119.3125 C124.29346586 117.95703869 122.08776201 116.60022503 119.8828125 115.2421875 C119.31390289 114.89306808 118.74499329 114.54394867 118.15884399 114.18424988 C112.18169061 110.51209754 106.27580506 106.73090772 100.375 102.9375 C98.28264517 101.594907 96.19019779 100.25245823 94.09765625 98.91015625 C93.07945801 98.2567627 92.06125977 97.60336914 91.01220703 96.93017578 C86.28556342 93.9014155 81.54965632 90.88728258 76.8125 87.875 C75.91644043 87.30515381 75.02038086 86.73530762 74.09716797 86.14819336 C72.29872305 85.00462933 70.50022065 83.86115569 68.70166016 82.71777344 C64.13353943 79.81326436 59.56684908 76.90650794 55 74 C53.18099629 72.84243738 51.36198586 71.68488531 49.54296875 70.52734375 C42.06640625 65.76953125 34.58984375 61.01171875 27.11328125 56.25390625 C26.28779785 55.72941895 25.46231445 55.20493164 24.61181641 54.66455078 C22.72052354 53.45920074 20.83260157 52.2485561 18.94677734 51.03466797 C17.94727051 50.39287598 16.94776367 49.75108398 15.91796875 49.08984375 C15.00168701 48.49937256 14.08540527 47.90890137 13.14135742 47.30053711 C11.27510735 45.91348288 11.27510735 45.91348288 10 46 Z " fill="#000000" transform="translate(198,128)"/>
</svg>
