<?xml version="1.0" encoding="UTF-8"?>
<svg version="1.1" xmlns="http://www.w3.org/2000/svg" width="512" height="512">
<path d="M0 0 C3.61421319 3.36902211 7.10998867 6.84562239 10.59277344 10.34985352 C11.59738356 11.35338713 12.60242733 12.35648678 13.60786438 13.35919189 C16.30431608 16.05085247 18.99456745 18.7486288 21.68350887 21.44778943 C24.51559466 24.28874848 27.35304209 27.12434395 30.1897583 29.9606781 C34.94714477 34.7189969 39.7006678 39.48114697 44.45166016 44.24584961 C49.92711535 49.73704827 55.40779795 55.22298444 60.89149642 60.70595032 C66.75928436 66.57306051 72.62325141 72.44397828 78.48611164 78.31601214 C80.16386334 79.99588447 81.84231472 81.67505492 83.52092743 83.35406685 C86.16635475 86.00050595 88.80919149 88.64950671 91.45012474 91.3004303 C92.8700371 92.72460888 94.29233984 94.14640302 95.71473694 95.56809998 C100.13379857 100.00906721 104.42495371 104.49533302 108.48115921 109.2717123 C110.60683344 111.69051528 112.91393343 113.89598423 115.23852539 116.12133789 C128.32094771 128.68155125 137.43885079 144.19438896 138.3359375 162.7265625 C138.67716587 181.16035319 134.94020253 198.86825508 121.94048786 212.72958088 C121.46001655 213.2436827 120.97954524 213.75778451 120.4845142 214.28746517 C115.42804209 219.66934749 110.23496077 224.91673978 105.01469421 230.13920593 C103.95490571 231.20302395 102.89532312 232.26704713 101.8359254 233.3312543 C98.95980732 236.21917544 96.08067795 239.104077 93.20095646 241.98840439 C90.08189794 245.11348075 86.96563164 248.24133974 83.84890747 251.3687439 C76.34482107 258.89719796 68.83592518 266.42084567 61.32611844 273.943593 C59.20229028 276.07114184 57.07858814 278.19881638 54.95492959 280.32653451 C41.73794805 293.56874002 28.51936912 306.80934876 15.29600811 320.04518414 C12.24297334 323.10114801 9.18995492 326.1571282 6.13696289 329.21313477 C5.37826776 329.97257595 4.61957262 330.73201713 3.83788673 331.51447169 C-8.46279815 343.8278211 -20.75315444 356.15142708 -33.03934131 368.4792408 C-45.6797486 381.16212105 -58.32961384 393.83550647 -70.98866528 406.49977809 C-78.08566408 413.60018273 -85.17847946 420.7046577 -92.26064491 427.81986046 C-98.28813214 433.87542172 -104.32414173 439.92232425 -110.37126223 445.95828231 C-113.45178425 449.03363856 -116.52821525 452.11280055 -119.59368324 455.20316887 C-122.40755271 458.03970254 -125.23303234 460.86413862 -128.06765094 463.67993269 C-129.0833648 464.69287066 -130.09498906 465.70993254 -131.10171203 466.73180672 C-146.30442477 482.1489761 -163.86301283 491.43158413 -185.8125 492.3125 C-210.37945617 491.67335968 -228.17851316 479.45852783 -244.89941406 462.6340332 C-246.12728271 461.41324244 -247.35598661 460.19329129 -248.58544922 458.97410583 C-251.88797037 455.69387762 -255.17787815 452.40127873 -258.46480274 449.10543084 C-261.22414636 446.34093761 -263.98972486 443.58272329 -266.75526977 440.82443589 C-273.2856609 434.31097968 -279.80580736 427.78739596 -286.31933594 421.25708008 C-293.00923197 414.55026414 -299.71534821 407.85999431 -306.4298346 401.17780429 C-312.22364333 395.4107964 -318.00757273 389.63400997 -323.78376555 383.84935826 C-327.22083081 380.40739499 -330.66125407 376.96898562 -334.11109161 373.53981972 C-337.35652491 370.31290953 -340.58930153 367.073807 -343.81326294 363.82544899 C-344.98877381 362.64498285 -346.16842899 361.4686246 -347.35280609 360.29705429 C-363.15966944 344.64747728 -373.58148566 326.97078041 -374.3125 304.1875 C-373.81358286 280.33302401 -362.44438662 262.78661834 -346.06538391 246.55072021 C-344.9860564 245.46605226 -343.90759763 244.38051929 -342.82992142 243.29421067 C-339.89895097 240.34478472 -336.95584337 237.40775068 -334.01037276 234.47281504 C-330.82307683 231.29256008 -327.64736815 228.10076767 -324.47007751 224.91052246 C-318.25675135 218.675633 -312.03267418 212.45158623 -305.80448089 206.23155138 C-300.73946475 201.17285284 -295.67820607 196.11042343 -290.61955833 191.04535675 C-289.89767522 190.32257198 -289.1757921 189.59978721 -288.43203374 188.85509987 C-286.96522819 187.38644299 -285.49842825 185.91778049 -284.03163388 184.44911245 C-270.2987854 170.69971238 -256.55335184 156.96294883 -242.80379554 143.23025969 C-230.24366559 130.68482596 -217.69825929 118.12478829 -205.15990267 105.55759665 C-192.26212509 92.63038026 -179.35511292 79.7124536 -166.43784016 66.80471635 C-164.97505296 65.34295162 -163.51227968 63.88117295 -162.04952049 62.41938019 C-161.32994846 61.70028455 -160.61037643 60.98118891 -159.86899919 60.24030249 C-154.81669567 55.19015708 -149.7703804 50.134076 -144.72646523 45.07555389 C-138.57293373 38.9044498 -132.41057351 32.74232696 -126.23691521 26.59135553 C-123.09166825 23.45720558 -119.95044847 20.31929671 -116.82011032 17.17024994 C-113.94691673 14.28010708 -111.06215356 11.40203305 -108.16826262 8.53261903 C-107.13098315 7.50017616 -106.0977708 6.46362475 -105.06941966 5.42228863 C-75.17811042 -24.81865292 -32.67916622 -28.46688593 0 0 Z M-92.38671875 42.15625 C-93.8574474 43.62817353 -95.32854897 45.09972453 -96.80000305 46.57092285 C-99.86823514 49.6407108 -102.93310504 52.71380188 -105.99536133 55.78955078 C-109.90377143 59.71497169 -113.81875355 63.63375606 -117.73605633 67.5503006 C-120.76908774 70.58360499 -123.79949807 73.6195166 -126.82905006 76.65629578 C-128.27123925 78.10164698 -129.71401711 79.54641107 -131.15741539 80.99055481 C-133.17866978 83.01399791 -135.19658689 85.04071242 -137.21362305 87.06835938 C-138.0920562 87.94611275 -138.0920562 87.94611275 -138.98823547 88.84159851 C-141.87318379 91.7485612 -144.64179334 94.70842014 -147.31222534 97.81420898 C-151.5776569 102.73878527 -156.17652145 107.30866151 -160.79077148 111.90429688 C-161.75752407 112.87076673 -162.72405521 113.83745813 -163.69038391 114.80435181 C-166.29095898 117.40521152 -168.89458594 120.00299587 -171.49880862 122.60020256 C-174.22855633 125.32366103 -176.95543598 128.0499882 -179.68263245 130.77600098 C-184.83695698 135.92722852 -189.99382326 141.0759036 -195.1516276 146.22364664 C-201.02791182 152.0887188 -206.90132644 157.9566611 -212.77451217 163.82483578 C-224.8465043 175.88640052 -236.92206131 187.94438996 -249 200 C-244.94359888 204.86694415 -240.69388023 209.44798744 -236.20425415 213.91600037 C-235.54575922 214.57534972 -234.8872643 215.23469907 -234.20881498 215.9140287 C-232.01869034 218.10579035 -229.82502952 220.29397689 -227.63134766 222.48217773 C-226.05391312 224.05932998 -224.47669917 225.63670288 -222.89968872 227.21427917 C-218.62968896 231.48456531 -214.35661761 235.75176575 -210.08298159 240.01841235 C-205.61288561 244.48224818 -201.14562988 248.94892461 -196.67807007 253.41529846 C-189.18298668 260.907629 -181.68616098 268.39821262 -174.18798828 275.88745117 C-166.46741057 283.59883935 -158.74789169 291.31128494 -151.02978516 299.02514648 C-150.5534422 299.50122671 -150.07709925 299.97730694 -149.58632167 300.46781384 C-147.19647684 302.85635356 -144.80665272 305.24491399 -142.41683888 307.63348472 C-122.61443436 327.42553517 -102.80837132 347.2139214 -83 367 C-78.02259369 362.82514628 -73.33387397 358.48055847 -68.74473572 353.88517761 C-68.04878424 353.19219725 -67.35283276 352.4992169 -66.63579184 351.78523713 C-64.31984928 349.47792031 -62.0074505 347.1670858 -59.69506836 344.85620117 C-58.02910648 343.19487165 -56.36294843 341.53373882 -54.6966095 339.87278748 C-50.18182921 335.37108925 -45.67035457 330.86609282 -41.15988612 326.36007476 C-38.33988921 323.54301416 -35.51930857 320.72653929 -32.69854927 317.91024208 C-24.87732525 310.10119974 -17.05704105 302.29121892 -9.24021053 294.47777843 C-8.74097184 293.97875931 -8.24173314 293.47974018 -7.727366 292.96559926 C-7.2269943 292.46544583 -6.7266226 291.96529241 -6.21108812 291.44998282 C-5.19728621 290.43662437 -4.18348275 289.42326746 -3.16967773 288.40991211 C-2.6668056 287.9072614 -2.16393346 287.40461069 -1.64582277 286.88672815 C6.50497203 278.73988253 14.66250121 270.59981597 22.82295115 262.46264275 C31.21580372 254.09353562 39.60298825 245.71878286 47.984559 237.33837682 C52.68479428 232.63905619 57.38755724 227.94231478 62.09626961 223.25148582 C66.52452042 218.83972836 70.94553752 214.42084777 75.36116219 209.99645424 C76.97986676 208.37698009 78.60112476 206.76005338 80.22515488 205.1459198 C82.44771311 202.93611027 84.6607407 200.71716013 86.87171936 198.49577332 C87.51092868 197.8646204 88.15013801 197.23346748 88.80871731 196.58318871 C96.92810468 188.37459677 102.87533232 179.32546847 103.375 167.5 C102.64019329 151.39077601 91.19791791 140.74496219 80.40258789 130.0144043 C79.25284522 128.8605861 78.10373944 127.70613298 76.95521545 126.55110168 C73.86295469 123.4452813 70.76142161 120.34888471 67.65759969 117.25462317 C64.39550281 114.00017856 61.14079622 110.7383557 57.88487244 107.47773743 C52.42057017 102.00799526 46.95001394 96.54456808 41.47583008 91.0847168 C35.1626573 84.78788342 28.86038595 78.48029408 22.56363493 72.16704243 C17.13706672 66.72682842 11.70463445 61.29252205 6.26732248 55.86304599 C3.02849502 52.62887595 -0.20831814 49.39275983 -3.43983269 46.15128136 C-6.47745502 43.10494589 -9.52241293 40.0661324 -12.57300758 37.03278923 C-13.68611136 35.92362645 -14.79671816 34.8119508 -15.90451813 33.69749069 C-25.90485285 23.64262506 -35.18801923 15.05471233 -49.875 14.5625 C-68.51369884 15.05926703 -80.10466485 29.80772182 -92.38671875 42.15625 Z M-280.35839844 231.16552734 C-281.19513092 231.98999359 -281.19513092 231.98999359 -282.04876709 232.83111572 C-283.90546999 234.66288383 -285.75791841 236.49886745 -287.609375 238.3359375 C-288.24210579 238.96334461 -288.87483658 239.59075172 -289.52674103 240.23717117 C-292.88147754 243.56512832 -296.23249034 246.89679029 -299.58105469 250.23095703 C-303.02849444 253.66182839 -306.48975605 257.07839131 -309.95437241 260.49190331 C-312.62401442 263.12773008 -315.28239594 265.77470458 -317.93799591 268.42467117 C-319.20789322 269.68788466 -320.48201849 270.94686353 -321.76055145 272.20133591 C-331.32614359 281.59724111 -338.99053505 290.06021551 -339.3125 304.125 C-339.1278642 320.63144013 -327.51446899 330.7875689 -316.53198242 341.75854492 C-315.38423283 342.91229085 -314.2368901 344.06644164 -313.08992004 345.22096252 C-309.99541869 348.33301255 -306.89457154 351.43866151 -303.79192519 354.54258895 C-301.84941799 356.48652395 -299.90834444 358.43187883 -297.96776772 360.37774086 C-291.18562114 367.1783466 -284.39837257 373.97381126 -277.60620117 380.7644043 C-271.29352694 387.07587631 -264.99210364 393.39842853 -258.69583243 399.72626036 C-253.27174905 405.17655312 -247.83992316 410.61904773 -242.40208131 416.05561334 C-239.16219776 419.2949889 -235.92544129 422.53733938 -232.69646263 425.78758812 C-229.65929553 428.84421781 -226.61253998 431.89096285 -223.55839348 434.93062401 C-222.44481574 436.04212293 -221.33458579 437.15698861 -220.2281456 438.2755928 C-210.83468321 447.76553552 -200.81315206 456.42729838 -186.90234375 457.1640625 C-171.23408271 456.67851448 -161.68793356 447.5494373 -151.359375 436.9453125 C-150.09989752 435.67461842 -148.8390694 434.40526179 -147.57696533 433.13717651 C-144.28876607 429.82627329 -141.01900399 426.49774896 -137.75299072 423.16497803 C-134.40505217 419.75521631 -131.03966134 416.36277259 -127.67578125 412.96875 C-121.10017523 406.3291574 -114.54395248 399.67078219 -108 393 C-109.60125167 389.03033777 -112.36231653 386.36077448 -115.34976196 383.40299988 C-116.17690313 382.57223709 -116.17690313 382.57223709 -117.02075422 381.72469121 C-118.87059912 379.86920868 -120.72750899 378.02096347 -122.58447266 376.17260742 C-123.91209449 374.84391266 -125.23928326 373.51478506 -126.56607056 372.18525696 C-130.17337104 368.57310449 -133.78689943 364.96724165 -137.40169191 361.36258864 C-141.1862304 357.58683362 -144.96549594 353.80580756 -148.74545288 350.02546692 C-155.09919561 343.67266127 -161.45680123 337.32374236 -167.81689453 330.97729492 C-175.15915546 323.65072952 -182.49620734 316.31898125 -189.83025706 308.98419684 C-197.64604382 301.16773297 -205.46564114 293.3550897 -213.28634977 285.54355073 C-215.53430487 283.29772188 -217.78155316 281.05118786 -220.02864456 278.80449486 C-223.57045448 275.26369422 -227.11482098 271.7254719 -230.661129 268.18917656 C-231.95834835 266.89486297 -233.25474034 265.59971952 -234.55021667 264.30366135 C-243.2681077 255.56470038 -243.2681077 255.56470038 -252.45328426 247.32353592 C-254.79867408 245.31656878 -256.95537704 243.13894249 -259.12109375 240.94140625 C-259.99314453 240.06162109 -260.86519531 239.18183594 -261.76367188 238.27539062 C-262.64603516 237.38013672 -263.52839844 236.48488281 -264.4375 235.5625 C-266.22559426 233.74906068 -268.01583357 231.93773299 -269.80859375 230.12890625 C-270.98119751 228.93890015 -270.98119751 228.93890015 -272.17749023 227.72485352 C-275.79154778 224.30444942 -277.51628445 228.34621884 -280.35839844 231.16552734 Z " fill="#000000" transform="translate(374,20)"/>
<path d="M0 0 C0.79985829 -0.00382555 1.59971657 -0.00765109 2.42381299 -0.01159257 C5.09520103 -0.0218842 7.7663726 -0.01793773 10.43777466 -0.01396179 C12.35669147 -0.0183104 14.27560654 -0.02349405 16.19451904 -0.02944946 C21.401166 -0.04283503 26.60774034 -0.04341859 31.81440115 -0.04088616 C36.16327852 -0.0398161 40.51214122 -0.04470077 44.86101544 -0.04949158 C55.1222901 -0.06058537 65.38352815 -0.06102497 75.64480591 -0.05497742 C86.22508529 -0.04893765 96.80523169 -0.06124904 107.38548839 -0.08254749 C116.47441514 -0.10017002 125.56329958 -0.10616379 134.65224278 -0.10290974 C140.07837803 -0.1010977 145.50441842 -0.10372525 150.93053818 -0.11762428 C156.03429682 -0.13020846 161.13784835 -0.12825284 166.24160385 -0.11521339 C168.11204092 -0.11284931 169.98249258 -0.11557625 171.8529129 -0.12383652 C174.41178392 -0.13432007 176.96996206 -0.12619061 179.52880859 -0.11352539 C180.63165422 -0.12458682 180.63165422 -0.12458682 181.75677955 -0.13587171 C188.23366747 -0.0687095 193.49545813 1.56331606 198.85232544 5.35835266 C201.74141315 9.47059819 201.62982633 12.78631421 201.51638794 17.69819641 C201.53572388 18.53157532 201.55505981 19.36495422 201.57498169 20.22358704 C201.54176264 24.42579616 201.25772976 27.37588634 198.60232544 30.73335266 C193.78752443 35.22207925 190.16505461 35.55383456 183.70611572 35.52812195 C182.45777224 35.53491862 182.45777224 35.53491862 181.1842097 35.54185259 C178.3913965 35.55452792 175.59877753 35.55287421 172.80593872 35.55122375 C170.8052546 35.55720703 168.8045728 35.56401211 166.80389404 35.57157898 C161.36587263 35.58926622 155.92791413 35.5939355 150.48986673 35.59521055 C145.95201541 35.59710849 141.41417879 35.60446478 136.87633312 35.61155474 C126.17122014 35.62784652 115.4661408 35.63272296 104.76101685 35.63130188 C93.71378312 35.63010011 82.66674466 35.65120726 71.61956036 35.68278921 C62.13835102 35.7089296 52.65720553 35.71967012 43.17596042 35.71839106 C37.511729 35.71788079 31.84767107 35.72360024 26.18347549 35.74474716 C20.85645939 35.76409188 15.52978296 35.76427972 10.20275497 35.7497139 C8.24762222 35.74762005 6.29246842 35.75236085 4.33737183 35.76443481 C1.66805634 35.77985185 -1.00008273 35.77060287 -3.66937256 35.75517273 C-4.44292048 35.76545986 -5.21646841 35.77574698 -6.01345718 35.78634584 C-11.19768537 35.72012874 -14.10694901 34.51644364 -18.10861206 31.26069641 C-22.62743817 26.25334856 -23.46658188 22.40973328 -23.38986206 15.83100891 C-22.8300274 10.71474212 -20.40526546 7.52322735 -16.73361206 3.94819641 C-11.36833337 0.49908868 -6.25143929 -0.03194061 0 0 Z " fill="#000000" transform="translate(311.1086120605469,476.7393035888672)"/>
</svg>
