<?xml version="1.0" encoding="UTF-8"?>
<svg version="1.1" xmlns="http://www.w3.org/2000/svg" width="512" height="512">
<path d="M0 0 C0.90105469 -0.06058594 1.80210937 -0.12117188 2.73046875 -0.18359375 C10.60104782 1.40249253 16.82947895 9.1659098 22.29223633 14.65844727 C23.50107986 15.86203384 23.50107986 15.86203384 24.73434448 17.0899353 C27.37610014 19.72294379 30.01053795 22.36313423 32.64453125 25.00390625 C34.48649885 26.84452558 36.32876316 28.68484802 38.17131042 30.52488708 C42.02202264 34.3719741 45.86852858 38.22322884 49.71264648 42.0769043 C54.14989528 46.5250581 58.5943341 50.96593023 63.04252988 55.40313488 C67.33566757 59.68609119 71.62314635 63.97466171 75.90826988 68.26563835 C77.72687678 70.08557885 79.54696899 71.90403637 81.36857033 73.72097969 C83.91049624 76.25782819 86.44592571 78.80099662 88.97973633 81.34594727 C89.73249344 82.09465591 90.48525055 82.84336456 91.26081848 83.61476135 C96.34418011 88.73961497 100.22023005 92.71468319 100.4375 100.25 C100.49164062 101.22582031 100.54578125 102.20164062 100.6015625 103.20703125 C98.21523754 112.97678738 85.31766247 122.10717398 78.34892273 129.1020813 C76.86234169 130.5976981 75.37595687 132.09350996 73.88975078 133.58949935 C69.81523509 137.68949015 65.73759605 141.78636191 61.65934122 145.88263297 C58.15928066 149.3989071 54.66100783 152.91695728 51.16269233 156.43496741 C18.53637847 189.24402505 -14.13390691 222.00939779 -46.81434905 254.76453006 C-51.67303372 259.63435419 -56.53150324 264.50439295 -61.38989258 269.37451172 C-61.92669177 269.91259713 -62.46349095 270.45068254 -63.01655678 271.00507357 C-80.41928264 288.4497897 -97.8011042 305.9151536 -115.17172968 323.39182941 C-133.04739145 341.37642483 -150.94264102 359.34129304 -168.86314258 377.28121447 C-171.39641311 379.81724221 -173.92946701 382.35348621 -176.46239281 384.88985825 C-176.96085416 385.38898218 -177.45931552 385.88810611 -177.97288177 386.40235501 C-185.97714652 394.41837937 -193.96075973 402.4546684 -201.93681024 410.49875586 C-209.96061366 418.59007926 -218.00677601 426.65851623 -226.07453201 434.70606174 C-230.44051179 439.06238585 -234.79627148 443.42776156 -239.12611008 447.82003403 C-243.09619407 451.84691835 -247.09340578 455.84470498 -251.11328723 459.82186125 C-252.55659402 461.25943691 -253.98996622 462.70707746 -255.41170756 464.16598453 C-264.49126435 473.46848087 -272.39861844 478.76395393 -285.09065493 481.90833132 C-287.93242294 482.6254919 -290.72831237 483.47584383 -293.53210988 484.32764811 C-296.95097473 485.35956743 -300.38933872 486.32380858 -303.82421875 487.30078125 C-305.3610073 487.74111682 -306.89769183 488.18181559 -308.4342804 488.62284851 C-312.44074159 489.77183832 -316.44846871 490.91634411 -320.45654297 492.05969238 C-325.22533788 493.42086416 -329.99276315 494.78682483 -334.76008797 496.1531353 C-338.67048123 497.27367101 -342.5815072 498.39187131 -346.49411011 499.50466919 C-354.02783195 501.65038323 -361.54596341 503.83509239 -369.04150391 506.11083984 C-371.13987295 506.74193426 -373.23857035 507.37192402 -375.33738136 508.00154686 C-377.2606356 508.58385223 -379.17898386 509.18228636 -381.09709167 509.78132629 C-388.88705236 512.11643435 -397.31293861 514.51178144 -405.125 511.1875 C-411.86325619 505.47019172 -411.86325619 505.47019172 -412.42166138 500.24736023 C-412.64751752 492.00264049 -410.67447792 484.79088005 -408.3046875 476.95703125 C-407.89286103 475.55582436 -407.48237691 474.15422234 -407.07313538 472.7522583 C-405.97901627 469.01726152 -404.8671407 465.28778012 -403.75150681 461.55916214 C-402.59688947 457.68953616 -401.45835481 453.81518744 -400.31860352 449.94116211 C-398.71195499 444.48482704 -397.10027133 439.03003034 -395.48204136 433.57711887 C-392.8985792 424.86960116 -390.35749816 416.15094862 -387.84765625 407.421875 C-387.20529091 405.19293806 -386.56287735 402.96401501 -385.92041016 400.73510742 C-385.03027179 397.64609301 -384.14125603 394.55678643 -383.25653076 391.46621704 C-382.45641152 388.67509056 -381.64904945 385.88615956 -380.83984375 383.09765625 C-380.61257095 382.29773254 -380.38529816 381.49780884 -380.15113831 380.67364502 C-379.8267704 379.5630069 -379.8267704 379.5630069 -379.49584961 378.42993164 C-379.22326576 377.48302208 -379.22326576 377.48302208 -378.94517517 376.51698303 C-376.72701897 370.42912592 -373.62302033 366.44123422 -369.09516144 361.97043133 C-368.47296555 361.34417472 -367.85076967 360.7179181 -367.20971936 360.07268402 C-365.11826838 357.97126941 -363.01627423 355.88073132 -360.91418457 353.78996277 C-359.39929373 352.27233199 -357.88505916 350.7540459 -356.37142611 349.23516065 C-352.20636067 345.05949037 -348.03196687 340.89325534 -343.85600305 336.72848809 C-339.35567517 332.23698882 -334.86398178 327.73686926 -330.37120056 323.23782349 C-322.07665603 314.93433081 -313.77534098 306.63764753 -305.47058354 298.34437029 C-297.80036855 290.6846864 -290.13315273 283.02201561 -282.46888733 275.35637856 C-281.96073965 274.84814685 -281.45259198 274.33991514 -280.92904589 273.81628248 C-278.86640575 271.7532901 -276.80378149 269.69028183 -274.7411799 267.62725091 C-255.39034396 248.27244934 -236.03117507 228.92600241 -216.6679743 209.58357187 C-199.4553599 192.38933404 -182.24904215 175.18882033 -165.04833984 157.98266602 C-163.94354911 156.87752884 -162.8387582 155.77239184 -161.73396713 154.66725501 C-161.18778532 154.1209022 -160.64160351 153.5745494 -160.07887074 153.01164046 C-157.32960635 150.26152256 -154.5803271 147.51141951 -151.8310318 144.76133251 C-151.28866728 144.21881091 -150.74630275 143.6762893 -150.18750294 143.11732765 C-135.82294249 128.74878018 -121.45365538 114.38496138 -107.08284903 100.02266103 C-105.5372164 98.47793546 -103.99158447 96.93320919 -102.44595411 95.38848135 C-101.42058198 94.36371033 -100.3952061 93.33894307 -99.36982644 92.31417958 C-92.21305855 85.16163782 -85.05811992 78.00727073 -77.90441646 70.85166411 C-68.68874444 61.63355265 -59.46973704 52.41880105 -50.24515116 43.20960882 C-45.79476233 38.76648542 -41.34600218 34.32176257 -36.90151787 29.87273216 C-32.83853789 25.8056973 -28.77101965 21.74326126 -24.69971746 17.68455783 C-23.22224383 16.21002952 -21.74647774 14.73378801 -20.27253395 13.25573125 C-18.27951591 11.2576544 -16.28053398 9.26574783 -14.27983856 7.27536297 C-13.40975427 6.39868395 -13.40975427 6.39868395 -12.52209252 5.50429425 C-8.43606185 1.45868527 -5.68381789 0.26455006 0 0 Z M-1.94020081 39.06994629 C-3.08270546 40.21578186 -3.08270546 40.21578186 -4.24829102 41.38476562 C-5.10910782 42.24565796 -5.96992462 43.10655029 -6.85682678 43.99353027 C-7.8017397 44.94355071 -8.74659823 45.89362524 -9.69140625 46.84375 C-10.65383004 47.80803787 -11.61647413 48.77210592 -12.57933044 49.73596191 C-15.11820828 52.27866569 -17.65406943 54.82435777 -20.18933105 57.3706665 C-22.7748092 59.96635714 -25.36310547 62.55923421 -27.95117188 65.15234375 C-33.03272309 70.24463363 -38.11109326 75.34008113 -43.1875 80.4375 C-37.38611308 87.54262006 -30.84360323 93.9076862 -24.3515625 100.37109375 C-23.1043849 101.61640345 -21.85742999 102.86193621 -20.61068726 104.10768127 C-17.34801895 107.36655366 -14.08235749 110.62241018 -10.81604004 113.87762451 C-7.47578938 117.20759779 -4.13841069 120.54044673 -0.80078125 123.87304688 C5.73418893 130.39733139 12.27232831 136.91842996 18.8125 143.4375 C24.36689924 138.81258621 29.49775669 133.88389036 34.58984375 128.7578125 C35.40119278 127.94504852 36.21254181 127.13228455 37.04847717 126.29489136 C39.6180259 123.71978262 42.18405968 121.1412038 44.75 118.5625 C46.50041929 116.80706054 48.251068 115.05184983 50.00195312 113.296875 C54.27479302 109.01305918 58.54475899 104.72639528 62.8125 100.4375 C57.01345811 93.34234554 50.48948168 86.96931379 44.01171875 80.50390625 C42.76700991 79.25852303 41.52244949 78.01299146 40.2780304 76.76731873 C37.68331205 74.17113301 35.0868106 71.5767477 32.48901367 68.98364258 C29.15195331 65.65231477 25.81945043 62.31646943 22.48823833 58.97929478 C19.92595874 56.41341397 17.36131757 53.84990433 14.79593849 51.28712273 C13.56514811 50.05700099 12.33510445 48.82613168 11.10581017 47.59451485 C9.39675174 45.8829333 7.68454964 44.1745619 5.97143555 42.46704102 C5.20550583 41.69807495 5.20550583 41.69807495 4.42410278 40.91357422 C1.45564371 37.21742844 1.45564371 37.21742844 -1.94020081 39.06994629 Z M-67.9339419 105.0597434 C-68.70211613 105.82829735 -69.47029036 106.5968513 -70.26174259 107.38869476 C-71.14503272 108.26999384 -72.02832285 109.15129292 -72.93837935 110.05929804 C-73.92983491 111.05360725 -74.92124443 112.04796237 -75.91261292 113.0423584 C-76.95683677 114.08614672 -78.00128012 115.12971549 -79.04592556 116.17308187 C-81.93052173 119.0554296 -84.81196974 121.94090713 -87.69294202 124.8268764 C-90.79476621 127.93299992 -93.89945995 131.03625277 -97.0038147 134.1398468 C-102.38677966 139.5222862 -107.76790373 144.90656045 -113.14779854 150.29206848 C-120.92632514 158.0787057 -128.70759601 165.86259572 -136.48954975 173.64580768 C-149.11372255 186.27217169 -161.73565836 198.90076947 -174.35620117 211.53076172 C-186.61935581 223.80308869 -198.88355532 236.07436991 -211.14916992 248.34423828 C-211.90461708 249.09994816 -212.66006424 249.85565804 -213.43840373 250.63426822 C-217.22808594 254.42525543 -221.0177888 258.216222 -224.80750191 262.00717831 C-256.27070227 293.48075344 -287.73027817 324.95794952 -319.1875 356.4375 C-318.24794915 357.54329621 -317.30699535 358.64790047 -316.36546898 359.75201511 C-315.84162947 360.36727198 -315.31778996 360.98252885 -314.77807653 361.61642987 C-312.41922872 364.317103 -309.90934524 366.8473948 -307.36572266 369.37280273 C-306.81864655 369.92002487 -306.27157043 370.46724701 -305.70791626 371.03105164 C-303.92482867 372.81345053 -302.13824117 374.59229523 -300.3515625 376.37109375 C-299.1043849 377.61640345 -297.85742999 378.86193621 -296.61068726 380.10768127 C-293.34801895 383.36655366 -290.08235749 386.62241018 -286.81604004 389.87762451 C-283.47578938 393.20759779 -280.13841069 396.54044673 -276.80078125 399.87304688 C-270.26581107 406.39733139 -263.72767169 412.91842996 -257.1875 419.4375 C-251.10514571 414.4020266 -245.53981324 408.92782951 -239.96864319 403.33889771 C-238.94398926 402.3146804 -237.91911537 401.29068311 -236.89404196 400.26688564 C-234.09142195 397.46649254 -231.29191425 394.66300639 -228.49292219 391.85898781 C-225.46892928 388.8306646 -222.4420347 385.80524408 -219.41549683 382.77946472 C-214.17669403 377.54118552 -208.939721 372.3010828 -203.70399666 367.05972672 C-196.13407386 359.48166673 -188.56138163 351.90637919 -180.98801702 344.33175908 C-168.69993313 332.04148816 -156.4140827 319.7489871 -144.12963867 307.45507812 C-132.19852069 295.51477701 -120.2663498 283.57552969 -108.33276367 271.63769531 C-107.59681483 270.90148375 -106.86086599 270.16527218 -106.10261566 269.40675117 C-102.41046172 265.71329216 -98.7182871 262.01985384 -95.02610219 258.32642579 C-64.41002725 227.6999891 -33.79757766 197.06993068 -3.1875 166.4375 C-4.12721616 165.331725 -5.06830393 164.22711555 -6.00995159 163.12298489 C-6.53386917 162.50772802 -7.05778674 161.89247115 -7.59758061 161.25857013 C-9.95314059 158.5605466 -12.45665127 156.02869447 -14.9934082 153.50219727 C-15.53887802 152.95497513 -16.08434784 152.40775299 -16.64634705 151.84394836 C-18.42450906 150.06143479 -20.20624378 148.28254474 -21.98828125 146.50390625 C-23.23299009 145.25852303 -24.47755051 144.01299146 -25.7219696 142.76731873 C-28.31668795 140.17113301 -30.9131894 137.5767477 -33.51098633 134.98364258 C-36.84804669 131.65231477 -40.18054957 128.31646943 -43.51176167 124.97929478 C-46.07404126 122.41341397 -48.63868243 119.84990433 -51.20406151 117.28712273 C-52.43485189 116.05700099 -53.66489555 114.82613168 -54.89418983 113.59451485 C-56.60324826 111.8829333 -58.31545036 110.1745619 -60.02856445 108.46704102 C-60.53918427 107.95439697 -61.04980408 107.44175293 -61.57589722 106.91357422 C-64.53931616 103.2223918 -64.53931616 103.2223918 -67.9339419 105.0597434 Z M-345.52319336 382.05224609 C-350.56243725 387.2686614 -351.95367192 393.77585686 -353.81640625 400.6015625 C-354.2160061 401.99914091 -354.61765513 403.39613483 -355.02122498 404.79257202 C-356.07657843 408.4647133 -357.10427516 412.14403206 -358.12609863 415.82562256 C-359.15033022 419.49780641 -360.20012738 423.16264512 -361.24804688 426.828125 C-362.85464068 432.45851717 -364.44616664 438.09290733 -366.02392578 443.73144531 C-367.36894704 448.53811751 -368.7288412 453.34011034 -370.11279297 458.13574219 C-370.39767075 459.12319427 -370.68254852 460.11064636 -370.97605896 461.12802124 C-371.49359133 462.91737268 -372.01303786 464.70617211 -372.5348053 466.49429321 C-373.74618283 470.40162633 -373.74618283 470.40162633 -374.1875 474.4375 C-363.2886757 471.78364297 -352.48299553 468.89099344 -341.70703125 465.77734375 C-340.19489204 465.34180143 -338.6827407 464.90630122 -337.170578 464.47084045 C-334.03814896 463.56789194 -330.90644283 462.66248343 -327.77514648 461.75561523 C-323.77161827 460.59666136 -319.76545145 459.44711469 -315.75861073 458.29967403 C-312.65079521 457.4080139 -309.5448677 456.50991479 -306.43942833 455.61001778 C-304.9621784 455.18308509 -303.48425026 454.75849154 -302.00562477 454.33634758 C-299.94678823 453.74784901 -297.89077733 453.1503226 -295.83520508 452.55053711 C-294.66878983 452.21396591 -293.50237457 451.87739471 -292.3006134 451.53062439 C-286.73537761 449.57647297 -283.21928906 446.69967701 -279.1875 442.4375 C-280.81167696 438.35232394 -283.73713162 435.60618302 -286.79882812 432.56738281 C-287.37136826 431.99133804 -287.94390839 431.41529327 -288.53379822 430.8217926 C-290.4237881 428.9230142 -292.32098298 427.03162809 -294.21875 425.140625 C-295.53418788 423.82384002 -296.84932873 422.50675826 -298.16418457 421.18939209 C-300.91822645 418.43240316 -303.67585014 415.67906091 -306.43603516 412.92822266 C-309.98059114 409.39508329 -313.51606402 405.85301214 -317.04892731 402.30818558 C-319.7612708 399.58863133 -322.47833963 396.87383859 -325.19688416 394.16048431 C-326.50295512 392.85575086 -327.80753283 391.5495209 -329.11061096 390.2417984 C-330.92768158 388.41967305 -332.75099708 386.60404158 -334.57617188 384.79003906 C-335.38821327 383.97192497 -335.38821327 383.97192497 -336.21665955 383.13728333 C-340.07745469 379.32036041 -341.3560449 378.33292228 -345.52319336 382.05224609 Z " fill="#000000" transform="translate(412.1875,-0.4375)"/>
</svg>
