<?xml version="1.0" encoding="UTF-8"?>
<svg version="1.1" xmlns="http://www.w3.org/2000/svg" width="512" height="512">
<path d="M0 0 C0.89162842 0.37125 0.89162842 0.37125 1.80126953 0.75 C18.03386153 7.65374575 30.77337855 18.5070636 37.84814453 34.97412109 C44.18182341 51.24997258 45.2766224 68.71400734 38.75 85.125 C31.16561251 102.08484025 19.95657461 114.41352388 2.8125 121.9375 C-14.29477311 128.38887738 -33.26241166 127.87017049 -50.08984375 120.6796875 C-65.22066481 112.91267417 -77.28292315 100.58362194 -83.29296875 84.55078125 C-89.19311883 65.87052269 -88.04161975 48.4582809 -79.9375 30.75 C-71.51578525 14.9682824 -56.81685813 3.44448352 -39.75 -1.8125 C-27.50320099 -4.59225334 -11.66621685 -5.01190158 0 0 Z " fill="#000000" transform="translate(457,26)"/>
<path d="M0 0 C15.57869703 12.32578671 23.28278088 28.32950229 25.73046875 47.70703125 C27.45441854 64.32399175 21.39004528 81.02779732 11.16015625 93.890625 C2.99601439 103.35420423 -5.9095389 108.86050455 -17.26953125 113.70703125 C-18.16027344 114.09117187 -19.05101562 114.4753125 -19.96875 114.87109375 C-35.13917227 120.09890432 -54.26210323 117.60146564 -68.45703125 110.95703125 C-73.8968578 108.08088275 -78.6420367 104.75160497 -83.26953125 100.70703125 C-83.8728125 100.19785156 -84.47609375 99.68867188 -85.09765625 99.1640625 C-96.954252 88.34892448 -103.40566 72.04197979 -104.5078125 56.3046875 C-104.92683795 36.34584392 -98.28860142 19.37931176 -84.47265625 4.8125 C-61.25405008 -17.16579601 -25.72808235 -18.04346994 0 0 Z " fill="#000000" transform="translate(246.26953125,395.29296875)"/>
<path d="M0 0 C6.64459325 4.73232475 12.28098853 11.16138626 18 16.9375 C18.87011719 17.81212891 19.74023438 18.68675781 20.63671875 19.58789062 C22.76013549 21.72297449 24.88116378 23.86037205 27 26 C32.96636844 21.06704856 38.38297085 15.70049617 43.8125 10.1875 C45.50420152 8.47037847 47.19809948 6.75541718 48.89453125 5.04296875 C50.00598511 3.91411255 50.00598511 3.91411255 51.13989258 2.76245117 C53.37448707 0.64517362 54.59700382 0.07676118 57.625 -0.5 C62.86088076 0.27568604 65.32382812 3.34684015 69 7 C70.19657445 8.17061394 71.39319264 9.34118317 72.58984375 10.51171875 C75.10945045 12.99476293 77.62483146 15.48175472 80.12109375 17.98828125 C80.6514624 18.51977783 81.18183105 19.05127441 81.72827148 19.59887695 C83.66261818 21.73003758 83.99528729 22.95147905 84.27734375 25.85546875 C83.94416857 29.63301833 83.16803982 30.61830287 80.5625 33.3125 C79.76070313 34.15167969 78.95890625 34.99085938 78.1328125 35.85546875 C77.09029389 36.90538861 76.04577205 37.95332069 75 39 C74.30874023 39.69818848 73.61748047 40.39637695 72.90527344 41.11572266 C67.96388489 46.10456371 62.99302284 51.062866 58 56 C62.93295144 61.96636844 68.29950383 67.38297085 73.8125 72.8125 C75.52962153 74.50420152 77.24458282 76.19809948 78.95703125 77.89453125 C79.70960205 78.63550049 80.46217285 79.37646973 81.23754883 80.13989258 C83.35482638 82.37448707 83.92323882 83.59700382 84.5 86.625 C83.72431396 91.86088076 80.65315985 94.32382812 77 98 C75.82938606 99.19657445 74.65881683 100.39319264 73.48828125 101.58984375 C71.00523707 104.10945045 68.51824528 106.62483146 66.01171875 109.12109375 C65.48022217 109.6514624 64.94872559 110.18183105 64.40112305 110.72827148 C62.35646317 112.58410583 61.02131832 112.9967396 58.26708984 113.41796875 C53.77794861 112.84365924 51.705689 110.46318697 48.7265625 107.3125 C48.15795502 106.73540283 47.58934753 106.15830566 47.00350952 105.5637207 C45.19607263 103.72277877 43.41064143 101.86206592 41.625 100 C40.4011352 98.7460322 39.17588913 97.49341093 37.94921875 96.2421875 C34.94991206 93.17683504 31.97016891 90.09358313 29 87 C25.16930757 88.57521721 22.78313758 91.00168598 19.90234375 93.9375 C19.18903648 94.65860962 19.18903648 94.65860962 18.46131897 95.39428711 C16.94852486 96.92482801 15.44260912 98.46190417 13.9375 100 C12.42796597 101.53720762 10.91697455 103.0729084 9.40296936 104.60571289 C8.03088294 105.99560387 6.6636314 107.39026285 5.29663086 108.78515625 C2.58907513 111.39629111 0.88712821 112.88866002 -2.89453125 113.36328125 C-6.73678041 112.91381059 -7.93324933 111.85758002 -10.6875 109.1875 C-11.53699219 108.37410156 -12.38648437 107.56070313 -13.26171875 106.72265625 C-14.16535156 105.82417969 -15.06898437 104.92570312 -16 104 C-17.00598496 103.01899213 -18.01250556 102.03853326 -19.01953125 101.05859375 C-28.66745049 91.58884765 -28.66745049 91.58884765 -29.5625 87.3125 C-28.14180633 78.94619284 -17.87021109 71.75029646 -12.0625 66 C-11.18787109 65.12988281 -10.31324219 64.25976562 -9.41210938 63.36328125 C-7.27702551 61.23986451 -5.13962795 59.11883622 -3 57 C-4.5849623 53.01002458 -7.38673902 50.45567674 -10.4453125 47.5703125 C-11.53312731 46.51752113 -12.62034914 45.46411675 -13.70703125 44.41015625 C-15.41700864 42.76214525 -17.13108572 41.11924046 -18.85595703 39.48681641 C-20.52438664 37.90316569 -22.1732288 36.30111307 -23.8203125 34.6953125 C-24.59835739 33.97313034 -24.59835739 33.97313034 -25.39212036 33.23635864 C-27.93747935 30.72809503 -28.95739798 29.35521307 -29.38867188 25.75927734 C-28.95864777 22.70643033 -28.47798796 21.69622388 -26.375 19.5 C-25.74980469 18.83871094 -25.12460938 18.17742187 -24.48046875 17.49609375 C-23.66191406 16.67238281 -22.84335938 15.84867188 -22 15 C-20.82938606 13.80342555 -19.65881683 12.60680736 -18.48828125 11.41015625 C-16.00523707 8.89054955 -13.51824528 6.37516854 -11.01171875 3.87890625 C-10.48022217 3.3485376 -9.94872559 2.81816895 -9.40112305 2.27172852 C-6.39709802 -0.45487305 -3.94743826 -0.58480567 0 0 Z " fill="#000000" transform="translate(115,101)"/>
<path d="M0 0 C2.31862293 1.8074449 4.16211185 3.45549477 6.15234375 5.56640625 C6.69734024 6.11989243 7.24233673 6.6733786 7.80384827 7.24363708 C9.52974451 9.00293868 11.23352735 10.78198218 12.9375 12.5625 C14.10862314 13.76373912 15.28113606 14.96362497 16.45507812 16.16210938 C19.31970919 19.09265345 22.16469934 22.04108086 25 25 C28.83069243 23.42478279 31.21686242 20.99831402 34.09765625 18.0625 C34.81096352 17.34139038 34.81096352 17.34139038 35.53868103 16.60571289 C37.05147514 15.07517199 38.55739088 13.53809583 40.0625 12 C41.57203403 10.46279238 43.08302545 8.9270916 44.59703064 7.39428711 C45.96911706 6.00439613 47.3363686 4.60973715 48.70336914 3.21484375 C51 1 51 1 54 -1 C59.64578974 -0.84041475 62.29193966 0.53212263 66.2421875 4.48046875 C67.16257812 5.39763672 68.08296875 6.31480469 69.03125 7.25976562 C69.73121094 7.98160034 69.73121094 7.98160034 70.4453125 8.71801758 C71.87325064 10.18570195 73.32831906 11.62168368 74.7890625 13.05664062 C82.90533078 21.27034998 82.90533078 21.27034998 83 27 C81.93334961 28.96679688 81.93334961 28.96679688 80.21484375 30.71875 C79.56628418 31.39550781 78.91772461 32.07226562 78.24951172 32.76953125 C77.50717285 33.50558594 76.76483398 34.24164063 76 35 C75.18934082 35.82886719 74.37868164 36.65773438 73.54345703 37.51171875 C70.90307199 40.1952101 68.23699883 42.85053248 65.5625 45.5 C64.64017578 46.4178125 63.71785156 47.335625 62.76757812 48.28125 C60.51400101 50.52315055 58.25810925 52.762666 56 55 C59.4414198 59.19476543 63.02770595 63.07095637 66.92578125 66.84765625 C67.80427734 67.70037109 68.68277344 68.55308594 69.58789062 69.43164062 C71.4163726 71.19720709 73.2524403 72.95494858 75.09570312 74.70507812 C75.96775391 75.55650391 76.83980469 76.40792969 77.73828125 77.28515625 C78.53274658 78.04707275 79.32721191 78.80898926 80.14575195 79.59399414 C82.36166504 82.46928361 82.8172652 84.39899565 83 88 C80.08458698 93.88783132 75.01217662 98.24923811 70.375 102.8125 C69.59898437 103.58787109 68.82296875 104.36324219 68.0234375 105.16210938 C61.30163357 111.83139921 61.30163357 111.83139921 56.77319336 112.41796875 C51.91063207 111.87932721 49.82880381 109.72946744 46.62890625 106.3125 C46.06171371 105.73540283 45.49452118 105.15830566 44.91014099 104.5637207 C43.1104376 102.72497472 41.33665285 100.86337756 39.5625 99 C38.34343147 97.74580494 37.12274425 96.49318108 35.90039062 95.2421875 C32.91453595 92.17934246 29.95168665 89.09577177 27 86 C23.01227068 87.5819769 20.47775677 90.38079901 17.60546875 93.4453125 C16.55739755 94.53328176 15.50854496 95.62049873 14.45898438 96.70703125 C12.81833449 98.41574463 11.18372559 100.12901991 9.56225586 101.85595703 C7.98841431 103.52686685 6.39305289 105.17456817 4.79296875 106.8203125 C4.07852852 107.59835739 4.07852852 107.59835739 3.34965515 108.39212036 C0.75980485 111.02069766 -0.85771448 111.97511656 -4.52075195 112.61572266 C-8.87147821 111.84577447 -10.38570182 110.46483156 -13.4609375 107.328125 C-13.93697418 106.84929871 -14.41301086 106.37047241 -14.9034729 105.87713623 C-15.90152198 104.86637615 -16.89112899 103.84721748 -17.87255859 102.8203125 C-19.3739931 101.25105239 -20.90060672 99.71026506 -22.43359375 98.171875 C-30.96441796 89.47380046 -30.96441796 89.47380046 -31 86 C-29.14730929 81.10067156 -26.15826251 77.75280934 -22.45703125 74.1640625 C-21.92857101 73.63984711 -21.40011078 73.11563171 -20.8556366 72.57553101 C-19.18155613 70.91811845 -17.49730741 69.27149991 -15.8125 67.625 C-14.66923111 66.4967933 -13.52664568 65.36789358 -12.38476562 64.23828125 C-9.59768333 61.48411023 -6.80143798 58.73956456 -4 56 C-9.86801466 48.86690756 -16.46420817 42.53656627 -23.09570312 36.11914062 C-23.96775391 35.26126953 -24.83980469 34.40339844 -25.73828125 33.51953125 C-26.53274658 32.74714111 -27.32721191 31.97475098 -28.14575195 31.17895508 C-30.93605109 27.90003212 -30.93605109 27.90003212 -31 25 C-29.26615073 20.59645204 -26.96552582 17.59667928 -23.62109375 14.29296875 C-22.36329102 13.04290039 -22.36329102 13.04290039 -21.08007812 11.76757812 C-20.20802734 10.91615234 -19.33597656 10.06472656 -18.4375 9.1875 C-17.56158203 8.31673828 -16.68566406 7.44597656 -15.78320312 6.54882812 C-7.35051735 -1.77999086 -7.35051735 -1.77999086 0 0 Z " fill="#000000" transform="translate(357,260)"/>
<path d="M0 0 C1.50780343 1.50780343 1.24599547 2.90712402 1.38891602 5.01318359 C1.44890274 5.86431732 1.50888947 6.71545105 1.57069397 7.59237671 C1.63115402 8.51837677 1.69161407 9.44437683 1.75390625 10.3984375 C1.85166603 11.81728745 1.85166603 11.81728745 1.95140076 13.26480103 C2.15941389 16.30125781 2.36088786 19.33811219 2.5625 22.375 C2.70207398 24.41669405 2.84204282 26.45836115 2.98242188 28.5 C3.11493274 30.44528873 3.24710536 32.39060054 3.37890625 34.3359375 C3.44139053 35.2578891 3.50387482 36.1798407 3.56825256 37.12973022 C3.65350441 38.4158873 3.65350441 38.4158873 3.74047852 39.72802734 C3.79075699 40.48223969 3.84103546 41.23645203 3.89283752 42.01351929 C3.98239473 43.67364944 4 45.33745598 4 47 C0.30648408 45.86353356 -3.20231191 44.50361876 -6.72265625 42.921875 C-7.52582275 42.5619043 -8.32898926 42.20193359 -9.15649414 41.83105469 C-9.76485107 41.55680664 -10.37320801 41.28255859 -11 41 C-39.5203437 116.04421263 -47.06939076 192.20371037 -13.97583008 267.39501953 C-7.4217897 281.92591168 -0.1443262 296.09108728 8.83447266 309.28125 C10.07734482 311.11405688 11.29462861 312.96248583 12.51171875 314.8125 C24.82373926 333.33404149 39.65833822 349.65234393 55.25 365.4375 C55.89952637 366.10015869 56.54905273 366.76281738 57.21826172 367.44555664 C61.01780917 371.25137716 64.91014606 374.57624584 69.31494141 377.66650391 C71.99735551 379.78927207 73.06783459 381.73742108 74 385 C73.44666546 389.0808422 72.87247811 391.20230573 69.8125 394 C66.06203881 395.33349731 63.87114582 394.90055077 60 394 C57.68427331 392.46311849 55.83676787 391.04075054 53.8125 389.1875 C52.94322876 388.41744629 52.94322876 388.41744629 52.05639648 387.63183594 C8.98972732 348.82217786 -24.06028667 300.26437084 -42 245 C-42.26699707 244.17935059 -42.53399414 243.35870117 -42.80908203 242.51318359 C-57.31531882 197.07228459 -58.75458365 147.56061959 -49 101 C-48.79391113 100.01354492 -48.58782227 99.02708984 -48.37548828 98.01074219 C-43.86750317 76.95100025 -37.38289121 56.3692792 -28.99609375 36.52734375 C-27.87777487 34.14264279 -27.87777487 34.14264279 -28 32 C-32.29 29.69 -36.58 27.38 -41 25 C-36.49713791 20.49713791 -36.49713791 20.49713791 -33.68774414 18.61816406 C-33.06352066 18.1980304 -32.43929718 17.77789673 -31.79615784 17.34503174 C-31.13252731 16.90632751 -30.46889679 16.46762329 -29.78515625 16.015625 C-29.09240097 15.55516785 -28.39964569 15.09471069 -27.68589783 14.62030029 C-26.22598206 13.65297498 -24.76432017 12.68828039 -23.30102539 11.72607422 C-21.06578017 10.25216293 -18.84251154 8.76127486 -16.61914062 7.26953125 C-15.19601567 6.32966357 -13.77220991 5.39082578 -12.34765625 4.453125 C-11.68604996 4.00632385 -11.02444366 3.55952271 -10.3427887 3.09918213 C-6.80449477 0.80080899 -4.27073528 -0.69204254 0 0 Z " fill="#000000" transform="translate(67,0)"/>
<path d="M0 0 C1.10556667 3.28320322 0.91768133 5.02070736 -0.35522461 8.21777344 C-0.83583595 9.4485965 -0.83583595 9.4485965 -1.32615662 10.70428467 C-1.85886925 12.01855438 -1.85886925 12.01855438 -2.40234375 13.359375 C-2.75889542 14.26375305 -3.11544708 15.1681311 -3.48280334 16.09991455 C-4.62400579 18.98751176 -5.78051432 21.86869527 -6.9375 24.75 C-7.71390648 26.70662846 -8.48930964 28.66365536 -9.26367188 30.62109375 C-11.16416987 35.41876354 -13.07841771 40.21073818 -15 45 C-18.78080393 43.73973202 -19.77295425 42.06453466 -22.1875 38.9375 C-23.26064453 37.55884766 -23.26064453 37.55884766 -24.35546875 36.15234375 C-24.89816406 35.44207031 -25.44085938 34.73179687 -26 34 C-31.94273392 38.90233932 -37.417178 44.23099449 -42.86035156 49.67504883 C-44.35984444 51.17236643 -45.86715415 52.66149127 -47.375 54.15039062 C-53.70055063 60.43912969 -59.46326292 66.99412124 -65 74 C-66.02492664 75.25458271 -67.05196899 76.50744291 -68.08203125 77.7578125 C-101.7506726 119.09839967 -129.53143821 171.05738845 -135.34765625 224.7578125 C-136.21757256 227.74782425 -137.60800195 229.05000159 -140 231 C-143.4375 232 -143.4375 232 -147 232 C-149.80189446 230.23358828 -151.51524911 228.96950178 -153 226 C-154.77489658 193.68209139 -137.72078689 156.88628733 -122.99316406 128.90087891 C-121.96180871 126.9269033 -120.96016761 124.93962829 -119.9609375 122.94921875 C-108.02916584 99.45149507 -92.35650543 77.77900619 -75 58 C-74.39027344 57.29101562 -73.78054688 56.58203125 -73.15234375 55.8515625 C-62.26221131 43.23651546 -50.92154183 30.57217059 -38 20 C-39.48445114 16.72371138 -41.37609285 14.11206548 -43.625 11.3125 C-47 7.10408163 -47 7.10408163 -47 6 C-41.75445632 5.13639739 -36.50748717 4.28225951 -31.2590332 3.43652344 C-29.47704439 3.14804938 -27.6954578 2.85707832 -25.91430664 2.56347656 C-23.34104746 2.13976433 -20.7664332 1.72531596 -18.19140625 1.3125 C-17.40665421 1.18125732 -16.62190216 1.05001465 -15.81336975 0.91479492 C-10.48289295 0.07238798 -5.39722661 -0.11278488 0 0 Z " fill="#000000" transform="translate(360,131)"/>
</svg>
