<?xml version="1.0" encoding="UTF-8"?>
<svg version="1.1" xmlns="http://www.w3.org/2000/svg" width="512" height="512">
<path d="M0 0 C1.61100082 -0.01051392 1.61100082 -0.01051392 3.25454712 -0.02124023 C6.80065885 -0.03882531 10.34597013 -0.02718991 13.89208984 -0.01367188 C16.36583611 -0.01636781 18.83958133 -0.02025107 21.31332397 -0.02526855 C26.50000082 -0.03116533 31.68640208 -0.02259883 36.87304688 -0.00390625 C43.49704422 0.01881132 50.12039066 0.00580634 56.74436378 -0.01819611 C61.85587385 -0.03271011 66.96723193 -0.02802116 72.0787468 -0.01768494 C74.51940362 -0.01502941 76.96007455 -0.01824576 79.40071487 -0.02760315 C82.82740564 -0.03785269 86.25307225 -0.02214641 89.6796875 0 C90.67440063 -0.00809692 91.66911377 -0.01619385 92.69396973 -0.02453613 C106.39252293 0.13807003 117.07309786 5.64038425 126.97802734 14.83007812 C136.55217835 24.94616221 139.69466952 36.49833914 139.6157074 50.11740112 C139.6237857 51.80810799 139.6237857 51.80810799 139.63202721 53.53297055 C139.64626911 57.28820657 139.63921214 61.04308822 139.63208008 64.79833984 C139.63778562 67.49953313 139.64465059 70.20070147 139.65287781 72.90188599 C139.67002723 79.46453732 139.67091384 86.02709274 139.6656649 92.58976065 C139.66161464 97.92695768 139.6630769 103.26412648 139.66841316 108.60132217 C139.66916158 109.3625023 139.66991001 110.12368243 139.67068111 110.90792862 C139.67221267 112.45453651 139.67375102 114.0011444 139.67529608 115.54775228 C139.68900725 130.0342804 139.68359324 144.52075444 139.67211086 159.00728132 C139.66218067 172.24203877 139.67511788 185.47665638 139.69904505 198.71139227 C139.72346455 212.32165068 139.73303688 225.93184404 139.72639233 239.54212391 C139.72290634 247.17492244 139.72509103 254.80761347 139.74264336 262.44039536 C139.75740109 268.93817777 139.75795441 275.43577699 139.74057245 281.93355595 C139.73208891 285.24458742 139.73203474 288.55502506 139.745224 291.86608124 C139.75846425 295.46562212 139.74685804 299.0642841 139.72923279 302.66378784 C139.7436403 304.21197749 139.7436403 304.21197749 139.75833887 305.79144371 C139.62005813 319.58730443 134.17730469 330.2849549 124.91552734 340.26757812 C114.90370836 349.74304966 103.40171957 352.98226509 89.90673828 352.92163086 C88.82251587 352.92849411 87.73829346 352.93535736 86.62121582 352.94242859 C83.06814162 352.96060304 79.51551264 352.95687421 75.96240234 352.95117188 C73.47999936 352.95573633 70.99759765 352.96104269 68.51519775 352.96705627 C63.32729945 352.97596761 58.13955528 352.97358452 52.95166016 352.96362305 C46.30470852 352.95210302 39.65853476 352.97240137 33.0116539 353.00154018 C27.89183175 353.0198796 22.77213709 353.01961474 17.65229034 353.01390266 C15.20108546 353.01374935 12.74987199 353.01980196 10.29869843 353.03219414 C6.87603889 353.04706861 3.45436686 353.03645401 0.03173828 353.01928711 C-0.97826233 353.02895508 -1.98826294 353.03862305 -3.02886963 353.04858398 C-8.79841009 352.98797774 -12.22218252 352.42660138 -16.77197266 348.51757812 C-20.40030929 344.6982764 -21.08197724 341.63478806 -21.27197266 336.51757812 C-21.08197724 331.40036819 -20.40030929 328.33687985 -16.77197266 324.51757812 C-11.51259028 320.09916902 -7.43260386 319.94964143 -0.87036133 320.01928711 C0.11092239 320.01376831 1.09220612 320.00824951 2.10322571 320.00256348 C4.2278983 319.99325839 6.35262667 319.99312594 8.47730446 320.00115776 C11.84523402 320.01380395 15.21234594 320.00248141 18.58024597 319.98512268 C24.5197939 319.95842149 30.45914122 319.95282676 36.39874268 319.95422363 C45.89434332 319.95645164 55.38969488 319.94222847 64.88519859 319.89863777 C68.19384834 319.88883107 71.50210384 319.89750182 74.81074524 319.90733337 C76.85324355 319.90118552 78.89573975 319.89427257 80.93823242 319.88647461 C82.30621979 319.89805351 82.30621979 319.89805351 83.70184326 319.90986633 C90.59685852 319.85581053 97.43613268 319.09471166 102.66552734 314.26757812 C106.40677534 307.68298164 106.51755639 301.41437809 106.48872375 294.01760864 C106.4925493 292.97258836 106.49637485 291.92756807 106.50031632 290.8508805 C106.51061956 287.35577644 106.5066592 283.86083748 106.50268555 280.36572266 C106.5070335 277.85715585 106.51221692 275.34859036 106.51817322 272.84002686 C106.53017503 266.73719159 106.53271567 260.634417 106.53037295 254.53157224 C106.52858801 249.56947331 106.53034323 244.60738771 106.5345974 239.64529037 C106.53519259 238.93834483 106.53578777 238.23139929 106.536401 237.50303116 C106.53761279 236.06674147 106.53882692 234.63045179 106.54004338 233.19416212 C106.55091353 219.73211488 106.54875894 206.27009271 106.54265853 192.80804406 C106.53749019 180.50227119 106.54874355 168.19657749 106.56775675 155.89082028 C106.58714569 143.24457894 106.59538928 130.59837505 106.5916335 117.95211875 C106.58972301 110.85650201 106.59219411 103.76095265 106.60634804 96.66534805 C106.61952481 89.99226122 106.61698749 83.31935835 106.60393715 76.64626312 C106.60157059 74.19894991 106.60430886 71.75162555 106.61256027 69.3043251 C106.62302235 65.95987125 106.61493079 62.61594973 106.60224915 59.27151489 C106.61331057 57.82387636 106.61331057 57.82387636 106.62459546 56.34699261 C106.56883146 49.34140879 105.89192608 42.40346842 100.97802734 37.08007812 C94.52635876 33.41435734 88.41229815 33.22969265 81.1652832 33.26220703 C80.17903458 33.25858658 79.19278595 33.25496613 78.176651 33.25123596 C76.04488484 33.24436625 73.91310119 33.24183196 71.78132439 33.24318314 C68.40589944 33.24415123 65.03079041 33.23117368 61.65541077 33.21420288 C52.06204637 33.16800707 42.46871602 33.14331397 32.87524414 33.13671875 C26.99910963 33.13170572 21.12330772 33.10747135 15.24728584 33.07139206 C13.01102253 33.06159434 10.77471348 33.05926194 8.53843498 33.06456375 C5.41238654 33.07163015 2.28733151 33.05436174 -0.83862305 33.03173828 C-1.75982941 33.03991074 -2.68103577 33.04808319 -3.63015747 33.0565033 C-9.18261714 32.98503706 -12.36701128 32.21936355 -16.77197266 28.51757812 C-20.40030929 24.6982764 -21.08197724 21.63478806 -21.27197266 16.51757812 C-21.08197724 11.40036819 -20.40030929 8.33687985 -16.77197266 4.51757812 C-11.35768988 -0.12828997 -6.80237425 -0.05470312 0 0 Z " fill="#2096F3" transform="translate(340.77197265625,79.482421875)"/>
<path d="M0 0 C1.62633362 -0.01029488 1.62633362 -0.01029488 3.28552246 -0.02079773 C6.83859666 -0.03897218 10.39122564 -0.03524335 13.94433594 -0.02954102 C16.42673892 -0.03410547 18.90914063 -0.03941183 21.39154053 -0.04542542 C26.57943883 -0.05433675 31.76718301 -0.05195366 36.95507812 -0.04199219 C43.60202976 -0.03047216 50.24820352 -0.05077051 56.89508438 -0.07990932 C62.01490653 -0.09824874 67.13460119 -0.09798388 72.25444794 -0.0922718 C74.70565282 -0.09211849 77.15686629 -0.0981711 79.60803986 -0.11056328 C83.0306994 -0.12543775 86.45237142 -0.11482315 89.875 -0.09765625 C90.88500061 -0.10732422 91.89500122 -0.11699219 92.93560791 -0.12695312 C98.70514837 -0.06634688 102.1289208 0.49502948 106.67871094 4.40405273 C110.30704757 8.22335445 110.98871552 11.2868428 111.17871094 16.40405273 C110.98871552 21.52126267 110.30704757 24.58475101 106.67871094 28.40405273 C101.41932857 32.82246184 97.33934214 32.97198943 90.77709961 32.90234375 C89.79581589 32.90786255 88.81453217 32.91338135 87.80351257 32.91906738 C85.67883998 32.92837247 83.55411161 32.92850492 81.42943382 32.9204731 C78.06150426 32.9078269 74.69439234 32.91914945 71.32649231 32.93650818 C65.38694438 32.96320937 59.44759706 32.9688041 53.50799561 32.96740723 C44.01239496 32.96517922 34.5170434 32.97940239 25.02153969 33.02299309 C21.71288994 33.03279979 18.40463444 33.02412904 15.09599304 33.01429749 C13.05349473 33.02044534 11.01099854 33.02735829 8.96850586 33.03515625 C7.60051849 33.02357735 7.60051849 33.02357735 6.20489502 33.01176453 C-0.69012024 33.06582033 -7.5293944 33.8269192 -12.75878906 38.65405273 C-16.50003706 45.23864922 -16.6108181 51.50725277 -16.58198547 58.90402222 C-16.58581102 59.9490425 -16.58963657 60.99406279 -16.59357804 62.07075036 C-16.60388128 65.56585442 -16.59992092 69.06079338 -16.59594727 72.5559082 C-16.60029521 75.06447501 -16.60547864 77.5730405 -16.61143494 80.081604 C-16.62343674 86.18443927 -16.62597739 92.28721385 -16.62363467 98.39005862 C-16.62184972 103.35215755 -16.62360495 108.31424315 -16.62785912 113.27634048 C-16.6284543 113.98328603 -16.62904949 114.69023157 -16.62966272 115.4185997 C-16.6308745 116.85488938 -16.63208864 118.29117907 -16.6333051 119.72746874 C-16.64417525 133.18951598 -16.64202066 146.65153815 -16.63592025 160.1135868 C-16.63075191 172.41935967 -16.64200527 184.72505337 -16.66101847 197.03081058 C-16.68040741 209.67705192 -16.688651 222.32325581 -16.68489522 234.9695121 C-16.68298473 242.06512885 -16.68545583 249.16067821 -16.69960976 256.25628281 C-16.71278653 262.92936964 -16.71024921 269.60227251 -16.69719887 276.27536774 C-16.69483231 278.72268095 -16.69757058 281.17000531 -16.70582199 283.61730576 C-16.71628406 286.96175961 -16.70819251 290.30568113 -16.69551086 293.65011597 C-16.70657229 295.0977545 -16.70657229 295.0977545 -16.71785718 296.57463825 C-16.66209318 303.58022207 -15.9851878 310.51816244 -11.07128906 315.84155273 C-4.61962048 319.50727352 1.49444013 319.69193821 8.74145508 319.65942383 C10.22082802 319.66485451 10.22082802 319.66485451 11.73008728 319.6703949 C13.86185344 319.67726461 15.99363709 319.6797989 18.12541389 319.67844772 C21.50083884 319.67747963 24.87594787 319.69045718 28.25132751 319.70742798 C37.84469191 319.75362379 47.43802226 319.77831689 57.03149414 319.78491211 C62.90762865 319.78992513 68.78343056 319.81415951 74.65945244 319.8502388 C76.89571575 319.86003652 79.13202481 319.86236892 81.3683033 319.85706711 C84.49435174 319.85000071 87.61940678 319.86726912 90.74536133 319.88989258 C91.66656769 319.88172012 92.58777405 319.87354767 93.53689575 319.86512756 C99.08935542 319.9365938 102.27374956 320.70226731 106.67871094 324.40405273 C110.30704757 328.22335445 110.98871552 331.2868428 111.17871094 336.40405273 C110.98871552 341.52126267 110.30704757 344.58475101 106.67871094 348.40405273 C101.26442817 353.04992083 96.70911253 352.97633398 89.90673828 352.92163086 C88.29573746 352.93214478 88.29573746 352.93214478 86.65219116 352.94287109 C83.10607944 352.96045616 79.56076815 352.94882077 76.01464844 352.93530273 C73.54090218 352.93799867 71.06715695 352.94188193 68.59341431 352.94689941 C63.40673746 352.95279619 58.2203362 352.94422969 53.03369141 352.92553711 C46.40969407 352.90281954 39.78634762 352.91582452 33.1623745 352.93982697 C28.05086443 352.95434097 22.93950635 352.94965201 17.82799149 352.9393158 C15.38733466 352.93666027 12.94666373 352.93987662 10.50602341 352.94923401 C7.07933264 352.95948355 3.65366604 352.94377726 0.22705078 352.92163086 C-0.76766235 352.92972778 -1.76237549 352.93782471 -2.78723145 352.94616699 C-16.48578465 352.78356083 -27.16635958 347.28124661 -37.07128906 338.09155273 C-46.64544007 327.97546865 -49.78793124 316.42329172 -49.70896912 302.80422974 C-49.71435465 301.67709183 -49.71974019 300.54995392 -49.72528893 299.38866031 C-49.73953083 295.63342429 -49.73247386 291.87854264 -49.7253418 288.12329102 C-49.73104734 285.42209773 -49.73791231 282.72092938 -49.74613953 280.01974487 C-49.76328895 273.45709354 -49.76417556 266.89453812 -49.75892662 260.33187021 C-49.75487636 254.99467318 -49.75633862 249.65750438 -49.76167488 244.32030869 C-49.7624233 243.55912856 -49.76317173 242.79794843 -49.76394283 242.01370224 C-49.76547439 240.46709435 -49.76701274 238.92048646 -49.76855779 237.37387858 C-49.78226897 222.88735046 -49.77685496 208.40087642 -49.76537258 193.91434954 C-49.75544239 180.67959209 -49.7683796 167.44497448 -49.79230677 154.21023859 C-49.81672627 140.59998018 -49.8262986 126.98978682 -49.81965405 113.37950695 C-49.81616806 105.74670842 -49.81835275 98.11401739 -49.83590508 90.4812355 C-49.85066281 83.98345309 -49.85121613 77.48585387 -49.83383416 70.98807491 C-49.82535063 67.67704344 -49.82529646 64.3666058 -49.83848572 61.05554962 C-49.85172597 57.45600874 -49.84011976 53.85734675 -49.82249451 50.25784302 C-49.83209951 49.22571658 -49.84170452 48.19359015 -49.85160059 47.13018715 C-49.71331985 33.33432643 -44.27056641 22.63667596 -35.00878906 12.65405273 C-24.99697008 3.1785812 -13.49498129 -0.06063423 0 0 Z " fill="#2196F3" transform="translate(81.3212890625,79.595947265625)"/>
<path d="M0 0 C4.97396728 2.30934195 7.32690389 5.27531913 10 10 C10.50139666 13.4826355 10.50139666 13.4826355 10.50336456 17.40576172 C10.51208521 18.49738585 10.51208521 18.49738585 10.52098203 19.611063 C10.53558615 22.05094204 10.52169555 24.48981571 10.50793457 26.9296875 C10.51254334 28.69600946 10.51889609 30.4623276 10.52684355 32.2286377 C10.54356335 37.08347572 10.53527844 41.9379998 10.52289867 46.79283905 C10.51386137 52.02809288 10.52781136 57.26329211 10.53881836 62.49853516 C10.55662226 72.75481154 10.55275525 83.01097096 10.5411678 93.26725197 C10.53214111 101.60135484 10.53090616 109.93542489 10.53526306 118.26953125 C10.53587599 119.45484058 10.53648893 120.64014992 10.53712043 121.86137772 C10.53839931 124.26917013 10.53969616 126.67696254 10.5410108 129.08475494 C10.55242208 151.67254868 10.53929428 174.26027752 10.51780933 196.84806061 C10.49993787 216.23728124 10.50304182 235.62640609 10.52148438 255.015625 C10.54288139 277.52156146 10.55132339 300.02744102 10.53903532 322.53338623 C10.5377611 324.93241373 10.53650362 327.33144123 10.53526306 329.73046875 C10.53464596 330.91089375 10.53402886 332.09131874 10.53339306 333.30751419 C10.52993665 341.63340875 10.53577476 349.95926727 10.54518127 358.28515625 C10.55638964 368.42906404 10.55338565 378.57284799 10.5320583 388.71674156 C10.52153228 393.89417717 10.51745253 399.07140616 10.53065491 404.24884033 C10.54255242 408.98614249 10.53605989 413.72304602 10.5147447 418.46031189 C10.51026742 420.17624008 10.51257006 421.89220178 10.52224785 423.60810852 C10.53437938 425.93729994 10.52197117 428.26511893 10.50336456 430.59423828 C10.50271515 431.88886993 10.50206574 433.18350159 10.50139666 434.5173645 C9.74704732 439.75697621 7.26855526 442.7948725 3.5 446.375 C-1.66500009 448.77303575 -6.4002288 448.75381535 -12 448 C-16.97396728 445.69065805 -19.32690389 442.72468087 -22 438 C-22.50139666 434.5173645 -22.50139666 434.5173645 -22.50336456 430.59423828 C-22.50917833 429.86648886 -22.51499209 429.13873943 -22.52098203 428.388937 C-22.53558615 425.94905796 -22.52169555 423.51018429 -22.50793457 421.0703125 C-22.51254334 419.30399054 -22.51889609 417.5376724 -22.52684355 415.7713623 C-22.54356335 410.91652428 -22.53527844 406.0620002 -22.52289867 401.20716095 C-22.51386137 395.97190712 -22.52781136 390.73670789 -22.53881836 385.50146484 C-22.55662226 375.24518846 -22.55275525 364.98902904 -22.5411678 354.73274803 C-22.53214111 346.39864516 -22.53090616 338.06457511 -22.53526306 329.73046875 C-22.53587599 328.54515942 -22.53648893 327.35985008 -22.53712043 326.13862228 C-22.53839931 323.73082987 -22.53969616 321.32303746 -22.5410108 318.91524506 C-22.55242208 296.32745132 -22.53929428 273.73972248 -22.51780933 251.15193939 C-22.49993787 231.76271876 -22.50304182 212.37359391 -22.52148438 192.984375 C-22.54288139 170.47843854 -22.55132339 147.97255898 -22.53903532 125.46661377 C-22.5377611 123.06758627 -22.53650362 120.66855877 -22.53526306 118.26953125 C-22.53433741 116.49889376 -22.53433741 116.49889376 -22.53339306 114.69248581 C-22.52993665 106.36659125 -22.53577476 98.04073273 -22.54518127 89.71484375 C-22.55638964 79.57093596 -22.55338565 69.42715201 -22.5320583 59.28325844 C-22.52153228 54.10582283 -22.51745253 48.92859384 -22.53065491 43.75115967 C-22.54255242 39.01385751 -22.53605989 34.27695398 -22.5147447 29.53968811 C-22.51026742 27.82375992 -22.51257006 26.10779822 -22.52224785 24.39189148 C-22.53437938 22.06270006 -22.52197117 19.73488107 -22.50336456 17.40576172 C-22.50271515 16.11113007 -22.50206574 14.81649841 -22.50139666 13.4826355 C-21.74704732 8.24302379 -19.26855526 5.2051275 -15.5 1.625 C-10.33499991 -0.77303575 -5.5997712 -0.75381535 0 0 Z " fill="#414141" transform="translate(262,32)"/>
</svg>
