<?xml version="1.0" standalone="no"?>
<!DOCTYPE svg PUBLIC "-//W3C//DTD SVG 20010904//EN"
 "http://www.w3.org/TR/2001/REC-SVG-20010904/DTD/svg10.dtd">
<svg version="1.0" xmlns="http://www.w3.org/2000/svg"
 width="512.000000pt" height="512.000000pt" viewBox="0 0 512.000000 512.000000"
 preserveAspectRatio="xMidYMid meet">

<g transform="translate(0.000000,512.000000) scale(0.100000,-0.100000)"
fill="#000000" stroke="none">
<path d="M1405 4524 c-38 -8 -113 -36 -165 -61 -111 -54 -139 -80 -755 -709
-402 -411 -397 -403 -380 -491 6 -33 47 -79 303 -337 321 -323 348 -343 425
-331 38 6 60 25 215 178 l172 171 0 -140 c0 -157 9 -184 59 -184 56 0 61 19
61 209 0 216 -14 251 -100 251 -43 0 -66 -13 -135 -80 l-60 -58 -304 298 -303
298 388 391 c388 390 389 391 474 430 100 46 171 61 291 61 l87 0 13 -32 c25
-61 107 -174 172 -240 307 -307 790 -381 1192 -183 169 84 334 242 408 392
l31 63 61 0 c94 0 172 -18 265 -61 85 -39 86 -40 473 -429 l387 -390 -302
-299 -303 -300 -60 59 c-33 32 -70 63 -82 69 -37 19 -89 13 -120 -13 l-28 -24
-5 -1142 -5 -1142 -28 -24 -28 -24 -1159 0 -1159 0 -28 24 -28 24 -2 719 c-3
717 -3 718 -24 736 -30 24 -54 21 -79 -10 -20 -26 -20 -28 -18 -742 l3 -716
25 -45 c14 -24 45 -58 68 -75 l44 -30 1198 0 1198 0 44 30 c23 17 54 51 68 75
l25 45 3 1104 2 1105 173 -171 c154 -153 176 -172 214 -178 77 -12 104 8 425
331 256 258 297 304 303 337 17 88 22 80 -380 491 -612 625 -644 655 -755 709
-133 65 -204 77 -452 77 -235 0 -241 -2 -320 -100 -234 -290 -663 -333 -951
-95 -35 29 -81 76 -101 104 -65 88 -78 91 -348 90 -164 0 -254 -5 -303 -15z
m564 -159 c59 -78 161 -159 266 -211 110 -54 182 -73 302 -81 267 -17 501 91
690 320 20 23 30 27 78 27 30 0 55 -3 55 -6 0 -9 -60 -95 -102 -146 -86 -104
-244 -205 -393 -251 -323 -101 -685 -17 -915 213 -54 54 -102 117 -129 168
-12 22 -11 22 47 22 l60 0 41 -55z m-1237 -1285 l228 -225 -72 -72 c-40 -40
-77 -73 -82 -73 -17 0 -586 573 -586 590 0 8 30 45 67 82 l67 68 76 -72 c41
-40 177 -174 302 -298z m4168 220 c0 -17 -569 -590 -586 -590 -5 0 -42 33 -82
73 l-73 73 302 298 301 299 69 -69 c38 -38 69 -75 69 -84z"/>
<path d="M3230 3727 c-93 -26 -154 -79 -196 -171 -23 -51 -26 -67 -22 -135 5
-87 28 -140 85 -197 108 -108 292 -114 407 -13 25 22 57 65 73 97 37 76 39
183 4 254 -63 130 -218 203 -351 165z m138 -121 c68 -24 122 -101 122 -174 0
-55 -48 -130 -102 -158 -40 -21 -122 -18 -168 6 -53 27 -90 91 -90 154 0 83
43 145 117 171 46 17 77 17 121 1z"/>
<path d="M1490 2812 c-39 -12 -40 -22 -40 -462 0 -401 1 -428 18 -443 25 -23
58 -21 82 3 19 19 20 33 20 438 0 351 -2 421 -15 439 -16 22 -41 32 -65 25z"/>
<path d="M1470 1750 c-17 -17 -20 -33 -20 -108 0 -98 12 -122 62 -122 45 0 58
27 58 123 0 74 -3 90 -20 107 -11 11 -29 20 -40 20 -11 0 -29 -9 -40 -20z"/>
</g>
</svg>
