<?xml version="1.0" encoding="UTF-8"?>
<svg version="1.1" xmlns="http://www.w3.org/2000/svg" width="512" height="512">
<path d="M0 0 C1.92585536 -0.01564648 1.92585536 -0.01564648 3.89061689 -0.03160906 C5.3184961 -0.0229605 6.74637305 -0.01393386 8.17424774 -0.00457001 C9.68865703 -0.00917728 11.20306186 -0.01552903 12.71745729 -0.02347898 C16.88519619 -0.04021954 21.05257002 -0.03190466 25.22031045 -0.01953411 C29.712545 -0.01050518 34.2047156 -0.0244426 38.69693756 -0.0354538 C47.49965701 -0.05326673 56.30224025 -0.04938671 65.10496509 -0.03780323 C72.25730756 -0.02878008 79.40961179 -0.02754006 86.56195831 -0.0318985 C87.57881904 -0.03251143 88.59567976 -0.03312436 89.64335445 -0.03375587 C91.7089044 -0.03503473 93.77445434 -0.03633159 95.84000427 -0.03764623 C115.22158105 -0.04906016 134.60308223 -0.03592559 153.98464662 -0.01444477 C170.62515537 0.00342694 187.26555252 0.00032306 203.90605927 -0.01811981 C223.21693813 -0.03951219 242.52775068 -0.04796145 261.83863974 -0.03567076 C263.89671166 -0.03439652 265.95478359 -0.03313904 268.01285553 -0.0318985 C269.53188403 -0.03097285 269.53188403 -0.03097285 271.08159998 -0.03002849 C278.22769749 -0.02657069 285.37375304 -0.03241319 292.51984406 -0.04181671 C301.22520553 -0.05301995 309.93042269 -0.05003202 318.63576758 -0.02869374 C323.07980649 -0.01816068 327.52360454 -0.0140997 331.96764183 -0.02729034 C336.032623 -0.03917366 340.09713911 -0.03271941 344.16207784 -0.01138014 C345.63577005 -0.00689674 347.10950122 -0.00921913 348.58316857 -0.01888329 C350.58035694 -0.03098011 352.57765474 -0.01622579 354.57481384 0 C356.24157142 0.00097411 356.24157142 0.00097411 357.94200087 0.00196791 C361.44668232 0.61953725 362.59515364 1.76203506 364.78740692 4.50336456 C366.3695464 7.66764352 365.92656337 11.06964578 365.91883469 14.54417896 C365.92088732 15.38917551 365.92293995 16.23417206 365.92505479 17.10477456 C365.93075841 19.96725119 365.92926342 22.82968021 365.92784882 25.69216156 C365.93043053 27.75272496 365.93344314 29.81328785 365.93685222 31.87385005 C365.94494826 37.56046768 365.94671323 43.24707272 365.94744968 48.93369544 C365.94929572 55.05719762 365.95684075 61.1806932 365.9635849 67.30419159 C365.97789673 81.40397035 365.98369708 95.50374496 365.98827684 109.60352924 C365.99061114 116.56781187 365.99421359 123.53209366 365.99797222 130.49637564 C366.01080885 154.32567631 366.02152815 178.15497653 366.02497482 201.98428059 C366.02519646 203.48072258 366.02541824 204.97716457 366.02564017 206.47360657 C366.02586082 207.97370808 366.0260813 209.47380959 366.02630162 210.97391111 C366.02674418 213.98348479 366.02719129 216.99305846 366.0276413 220.00263214 C366.02780538 221.12193481 366.02780538 221.12193481 366.02797278 222.26384965 C366.03160445 246.46645317 366.04752807 270.66902676 366.07083166 294.87161882 C366.09541214 320.44700925 366.10914682 346.02238258 366.11034274 371.59778517 C366.1105142 374.40380745 366.11072963 377.20982971 366.11097717 380.01585197 C366.11103294 380.7067971 366.11108871 381.39774222 366.11114617 382.10962508 C366.11229815 393.24236327 366.1233326 404.37507082 366.13786423 415.50779865 C366.15221066 426.69180188 366.15522363 437.87576623 366.14742425 449.05977968 C366.1435052 455.12207435 366.14450829 461.18426561 366.1584816 467.2465477 C366.17114552 472.79127415 366.17008952 478.33581869 366.15789089 483.88054463 C366.15592079 485.89132938 366.15907224 487.90212669 366.16773525 489.91289375 C366.17873337 492.63716199 366.17140726 495.36077747 366.15934372 498.08502674 C366.17073651 499.26772568 366.17073651 499.26772568 366.18235946 500.47431752 C366.13896699 504.98483814 365.60205525 507.92502467 362.78740692 511.50336456 C360.05188062 512.87112771 357.8847531 512.63265737 354.8209095 512.63758564 C353.54098802 512.64204348 352.26106654 512.64650133 350.94235957 512.65109426 C349.50859808 512.65100495 348.0748366 512.65081508 346.64107513 512.65053558 C345.1283971 512.65383315 343.61571994 512.65755849 342.10304391 512.66167706 C337.93090615 512.67171713 333.75878277 512.67541706 329.58663464 512.67806637 C325.09302086 512.68196342 320.59941855 512.69154207 316.10581207 512.70027924 C305.24706244 512.72005928 294.38831185 512.73011121 283.5295487 512.73900703 C278.42056852 512.74338687 273.31158938 512.74875441 268.20261002 512.7539959 C251.22768176 512.77100871 234.25275416 512.78550446 217.27781868 512.79274464 C212.8708585 512.79465464 208.46389833 512.79657496 204.05693817 512.79853058 C202.41387511 512.79925619 202.41387511 512.79925619 200.73761885 512.79999646 C182.98010114 512.80830265 165.22265067 512.83364926 147.46516235 512.86611126 C129.24927846 512.89914082 111.03342879 512.91718962 92.81751478 512.92038888 C82.58366756 512.92255764 72.34991842 512.93135984 62.11610031 512.95685005 C53.40339174 512.97850097 44.69080507 512.98663519 35.97807266 512.97688327 C31.52998263 512.97232239 27.0821444 512.97432795 22.63408852 512.99364471 C18.56535129 513.01116221 14.49705169 513.01037254 10.42831056 512.99474742 C8.95320272 512.99235387 7.47806548 512.99678456 6.00300284 513.00857607 C4.00391744 513.02357193 2.00468371 513.01169721 0.00558662 512.99834919 C-1.10666924 512.999326 -2.2189251 513.00030281 -3.36488569 513.00130922 C-6.21259308 512.50336456 -6.21259308 512.50336456 -8.56976902 510.99443883 C-10.89281158 507.47192435 -10.76390655 504.23167335 -10.71595764 500.15119171 C-10.7217714 499.29683438 -10.72758517 498.44247705 -10.73357511 497.56223011 C-10.7482528 494.67969592 -10.73425374 491.7980029 -10.72052765 488.91547394 C-10.72513349 486.83596865 -10.73148426 484.75646662 -10.73943663 482.67697144 C-10.75619655 476.94725013 -10.74785333 471.21779394 -10.73549175 465.48807144 C-10.72647079 459.31484646 -10.74039628 453.14166825 -10.75141144 446.96845245 C-10.76820194 435.56897771 -10.76670209 424.16961153 -10.75576556 412.77013946 C-10.74571242 402.24004327 -10.74307228 391.70997823 -10.74785614 381.17987823 C-10.74816168 380.48201492 -10.74846722 379.7841516 -10.74878202 379.0651409 C-10.75002733 376.23244966 -10.75130092 373.39975844 -10.75262108 370.56706724 C-10.7648634 343.98178516 -10.75375322 317.3965572 -10.73223349 290.81128347 C-10.71325035 267.17996901 -10.71494883 243.54874077 -10.73407745 219.91742706 C-10.75548534 193.38148678 -10.76399526 166.84559432 -10.7516284 140.30964661 C-10.75034548 137.48204805 -10.74909413 134.65444947 -10.74785614 131.82685089 C-10.74753983 131.13059874 -10.74722352 130.43434659 -10.74689763 129.71699589 C-10.74234333 119.19224045 -10.74767702 108.66751953 -10.75777435 98.14276886 C-10.76919545 86.17839146 -10.76599997 74.21411593 -10.74465138 62.24974251 C-10.73411179 56.14095654 -10.7300686 50.03234591 -10.74324799 43.9235611 C-10.75511752 38.33757822 -10.74869947 32.75193414 -10.72733778 27.16598225 C-10.72284856 25.13912957 -10.7251895 23.1122486 -10.73484093 21.08541393 C-10.74690947 18.34170805 -10.73462769 15.59918052 -10.71595764 12.85553741 C-10.73000464 11.66012943 -10.73000464 11.66012943 -10.74433541 10.44057178 C-10.69776938 7.04413859 -10.45901247 4.87686137 -8.56941986 2.01281404 C-5.52609512 0.06369119 -3.60787899 0.00210858 0 0 Z M7.78740692 18.50336456 C7.78740692 25.76336456 7.78740692 33.02336456 7.78740692 40.50336456 C16.20724642 38.81939666 21.69717242 34.38352633 26.59600067 27.43305206 C29.16908016 23.2780024 29.16908016 23.2780024 29.78740692 18.50336456 C22.52740692 18.50336456 15.26740692 18.50336456 7.78740692 18.50336456 Z M48.78740692 18.50336456 C47.46740692 22.46336456 46.14740692 26.42336456 44.78740692 30.50336456 C37.69174767 43.48691128 28.91835115 52.44117571 14.78740692 57.50336456 C12.47740692 58.16336456 10.16740692 58.82336456 7.78740692 59.50336456 C7.78740692 121.54336456 7.78740692 183.58336456 7.78740692 247.50336456 C47.05740692 247.50336456 86.32740692 247.50336456 126.78740692 247.50336456 C129.26240692 240.57336456 129.26240692 240.57336456 131.78740692 233.50336456 C139.10368365 220.2777874 148.54265115 211.98858126 163.12725067 207.46820831 C178.38191261 203.64119277 192.35244054 205.77100299 206.01006317 213.81195831 C218.45825902 222.54796852 223.60465979 233.68270554 228.78740692 247.50336456 C235.71740692 247.50336456 242.64740692 247.50336456 249.78740692 247.50336456 C248.10523808 242.45685803 246.26607563 238.69661323 243.34990692 234.37836456 C242.9125119 233.72674347 242.47511688 233.07512238 242.02446747 232.40375519 C237.52196914 225.86104983 232.32192517 220.17581473 226.78740692 214.50336456 C226.2073288 213.86141144 225.62725067 213.21945831 225.02959442 212.55805206 C207.68675933 193.82081817 180.49148548 183.57919092 155.78740692 180.50336456 C153.2271863 180.42548777 150.66519729 180.39542163 148.10381317 180.40570831 C147.40344437 180.40712326 146.70307556 180.40853821 145.98148346 180.40999603 C143.77091226 180.41553979 141.56044688 180.4280813 139.34990692 180.44086456 C137.84014277 180.44588685 136.33037702 180.45044847 134.82061005 180.45453644 C131.14284199 180.46549069 127.4651348 180.48271566 123.78740692 180.50336456 C124.1973288 180.96227081 124.60725067 181.42117706 125.02959442 181.89398956 C125.56842255 182.50758331 126.10725067 183.12117706 126.66240692 183.75336456 C127.1960788 184.35664581 127.72975067 184.95992706 128.27959442 185.58148956 C129.78740692 187.50336456 129.78740692 187.50336456 131.78740692 191.50336456 C128.15740692 195.13336456 124.52740692 198.76336456 120.78740692 202.50336456 C114.6469447 197.42276295 109.03326742 191.89862822 103.41240692 186.25336456 C102.49846161 185.34328644 101.5845163 184.43320831 100.64287567 183.49555206 C99.77533661 182.62672394 98.90779755 181.75789581 98.01396942 180.86273956 C97.22586884 180.07351105 96.43776825 179.28428253 95.62578583 178.471138 C93.063269 175.7282581 92.10402201 173.41060507 92.22100067 169.58930206 C93.40909322 165.213844 96.97846482 162.2952639 100.11650848 159.18158722 C102.12143442 157.16787289 104.07299983 155.10702046 106.02959442 153.04633331 C107.55153266 151.46806327 109.07498105 149.89124814 110.59990692 148.31586456 C111.34103729 147.53614288 112.08216766 146.7564212 112.84575653 145.95307159 C113.55482147 145.23361359 114.26388641 144.51415558 114.99443817 143.77289581 C115.62841522 143.11909943 116.26239227 142.46530304 116.91558075 141.79169464 C118.78740692 140.50336456 118.78740692 140.50336456 120.87700653 140.66986847 C123.70387238 141.90321288 125.41585445 143.85071419 127.53740692 146.06586456 C128.33662567 146.89215363 129.13584442 147.71844269 129.95928192 148.56977081 C130.8642038 149.52689972 130.8642038 149.52689972 131.78740692 150.50336456 C130.38226546 153.71815792 128.70000857 155.78379798 126.16240692 158.19086456 C125.02131598 159.2783941 123.89165713 160.37844657 122.78740692 161.50336456 C122.78740692 161.83336456 122.78740692 162.16336456 122.78740692 162.50336456 C123.75339813 162.51794708 124.71938934 162.5325296 125.71465302 162.54755402 C171.81962098 163.29929683 210.51649722 172.11229038 244.02959442 206.43695831 C255.0508499 218.40210952 263.40601392 232.61344755 269.78740692 247.50336456 C295.52740692 247.50336456 321.26740692 247.50336456 347.78740692 247.50336456 C347.78740692 185.46336456 347.78740692 123.42336456 347.78740692 59.50336456 C342.83740692 58.01836456 342.83740692 58.01836456 337.78740692 56.50336456 C325.59232813 51.86245958 315.97060631 42.77012082 310.60771942 30.89008331 C309.61466196 28.44368263 308.69092963 25.98394509 307.78740692 23.50336456 C307.12740692 21.85336456 306.46740692 20.20336456 305.78740692 18.50336456 C285.98740692 18.50336456 266.18740692 18.50336456 245.78740692 18.50336456 C245.4982328 33.5068091 245.4982328 33.5068091 245.21929169 48.51044464 C245.18117025 50.3896026 245.14270124 52.26875356 245.10381317 54.14789581 C245.08733734 55.12577057 245.07086151 56.10364532 245.05388641 57.11115265 C245.03370453 58.04471588 245.01352264 58.97827911 244.99272919 59.94013214 C244.97718491 60.75065536 244.96164062 61.56117859 244.94562531 62.39626312 C244.78740692 64.50336456 244.78740692 64.50336456 243.78740692 67.50336456 C240.3160557 68.28820563 237.10641622 68.63199935 233.5502243 68.64380646 C231.9983416 68.65237167 231.9983416 68.65237167 230.41510773 68.66110992 C229.29079849 68.66222778 228.16648926 68.66334564 227.00811005 68.66449738 C225.8157222 68.66946228 224.62333435 68.67442719 223.39481354 68.67954254 C220.13247543 68.69162396 216.8701731 68.6991015 213.6078167 68.7035532 C211.56831717 68.70649005 209.5288232 68.71059588 207.48932648 68.71505737 C201.10399322 68.72871626 194.71867271 68.73839225 188.33332586 68.74225926 C180.96929938 68.74674409 173.60545814 68.76431823 166.24148798 68.79325986 C160.54283853 68.81487771 154.84424122 68.8249635 149.1455512 68.82630038 C145.74440468 68.82734782 142.34343267 68.83324313 138.94232941 68.85112 C135.1503103 68.86813514 131.35874537 68.86631141 127.5667038 68.85980988 C126.44239456 68.86902466 125.31808533 68.87823944 124.15970612 68.88773346 C123.12511765 68.88216431 122.09052917 68.87659515 121.02458954 68.87085724 C119.68067768 68.87305708 119.68067768 68.87305708 118.30961609 68.87530136 C115.21137468 68.41842015 113.31865528 67.317602 110.78740692 65.50336456 C109.62314716 63.17484504 109.632827 61.74056272 109.58208466 59.14545441 C109.56190277 58.23207306 109.54172089 57.31869171 109.52092743 56.37763214 C109.49621368 54.93553375 109.49621368 54.93553375 109.47100067 53.46430206 C109.45234955 52.58169708 109.43369843 51.6990921 109.41448212 50.78974152 C109.34607427 47.48605309 109.28599595 44.18219643 109.22490692 40.87836456 C109.08053192 33.49461456 108.93615692 26.11086456 108.78740692 18.50336456 C88.98740692 18.50336456 69.18740692 18.50336456 48.78740692 18.50336456 Z M126.78740692 18.50336456 C126.78740692 29.39336456 126.78740692 40.28336456 126.78740692 51.50336456 C160.11740692 51.50336456 193.44740692 51.50336456 227.78740692 51.50336456 C227.78740692 40.61336456 227.78740692 29.72336456 227.78740692 18.50336456 C194.45740692 18.50336456 161.12740692 18.50336456 126.78740692 18.50336456 Z M324.78740692 18.50336456 C327.52960941 26.72997203 332.30799389 33.79050022 339.78740692 38.50336456 C342.42740692 39.49336456 345.06740692 40.48336456 347.78740692 41.50336456 C347.78740692 33.91336456 347.78740692 26.32336456 347.78740692 18.50336456 C340.19740692 18.50336456 332.60740692 18.50336456 324.78740692 18.50336456 Z M153.71709442 232.35883331 C148.92348824 237.38309419 148.23272784 240.1674018 145.78740692 247.50336456 C166.90740692 247.50336456 188.02740692 247.50336456 209.78740692 247.50336456 C206.00609379 237.41986287 200.70151437 230.07910646 190.78740692 225.50336456 C189.98303192 225.11148956 189.17865692 224.71961456 188.34990692 224.31586456 C175.71034501 220.30819859 163.46928065 223.61866641 153.71709442 232.35883331 Z M7.78740692 265.50336456 C7.78740692 327.54336456 7.78740692 389.58336456 7.78740692 453.50336456 C11.74740692 454.82336456 15.70740692 456.14336456 19.78740692 457.50336456 C32.77095364 464.59902381 41.72521807 473.37242033 46.78740692 487.50336456 C47.44740692 489.81336456 48.10740692 492.12336456 48.78740692 494.50336456 C68.58740692 494.50336456 88.38740692 494.50336456 108.78740692 494.50336456 C108.99737594 479.87416849 108.99737594 479.87416849 109.17534637 465.2445755 C109.20763494 463.40894277 109.24100847 461.57332867 109.27568817 459.73773956 C109.28505402 458.31098907 109.28505402 458.31098907 109.29460907 456.85541534 C109.31454926 455.9422757 109.33448944 455.02913605 109.35503387 454.0883255 C109.36613693 453.29778778 109.37723999 452.50725006 109.3886795 451.69275665 C109.89237704 448.92697897 110.87836291 447.54515626 112.78740692 445.50336456 C115.75666897 444.51361055 117.68691377 444.37768158 120.78408051 444.37638092 C121.81591965 444.3735611 122.84775879 444.37074127 123.91086578 444.367836 C125.60811546 444.37087234 125.60811546 444.37087234 127.33965302 444.37397003 C128.53174881 444.37221771 129.7238446 444.37046539 130.95206451 444.36865997 C134.22279309 444.36500912 137.49348129 444.36587051 140.76420927 444.36903906 C144.18784641 444.37157003 147.61148085 444.36922295 151.0351181 444.36765289 C156.78686253 444.36583287 162.53859413 444.36823263 168.29033661 444.37299347 C174.93577778 444.3784306 181.58118824 444.37667676 188.22662866 444.37116706 C193.9337291 444.36662502 199.64082031 444.36599089 205.34792197 444.36860573 C208.75573773 444.37016316 212.16353908 444.370377 215.57135391 444.36706924 C219.37304769 444.36453249 223.17468239 444.36839813 226.97637177 444.37397003 C228.66754875 444.37093369 228.66754875 444.37093369 230.39289093 444.367836 C231.94910912 444.37206573 231.94910912 444.37206573 233.53676605 444.37638092 C234.88457437 444.37694646 234.88457437 444.37694646 236.25961113 444.37752342 C238.85601306 444.50677998 241.25510195 444.92963086 243.78740692 445.50336456 C244.7253039 448.3170555 244.93672674 450.14646956 244.99272919 453.06659698 C245.01291107 454.00016022 245.03309296 454.93372345 245.05388641 455.89557648 C245.07860016 457.36238861 245.07860016 457.36238861 245.10381317 458.85883331 C245.13178986 460.21071747 245.13178986 460.21071747 245.16033173 461.58991241 C245.22863384 464.95679667 245.28877974 468.3238424 245.34990692 471.69086456 C245.56646942 482.98305206 245.56646942 482.98305206 245.78740692 494.50336456 C265.58740692 494.50336456 285.38740692 494.50336456 305.78740692 494.50336456 C306.77740692 491.86336456 307.76740692 489.22336456 308.78740692 486.50336456 C315.12168211 471.68509904 323.15291672 462.89098162 338.12334442 456.50727081 C341.31084167 455.26900515 344.46790731 454.33323947 347.78740692 453.50336456 C347.78740692 391.46336456 347.78740692 329.42336456 347.78740692 265.50336456 C324.02740692 265.50336456 300.26740692 265.50336456 275.78740692 265.50336456 C277.76740692 278.37336456 277.76740692 278.37336456 279.78740692 291.50336456 C282.75740692 293.48336456 285.72740692 295.46336456 288.78740692 297.50336456 C294.93433682 303.91186595 296.65377859 309.77743467 296.78740692 318.50336456 C296.12637559 325.22384973 293.06979929 331.40898513 288.15068817 336.04633331 C281.79134005 340.91945176 274.67157879 342.38693555 266.78740692 341.50336456 C259.81186128 339.75947815 253.91388595 336.58567185 249.97490692 330.44086456 C246.00786268 323.75209418 246.08603209 317.12877695 246.78740692 309.50336456 C248.93507554 301.96645272 253.15694292 297.46993354 259.78740692 293.50336456 C260.77740692 293.00836456 260.77740692 293.00836456 261.78740692 292.50336456 C261.69770346 290.44018492 261.58958419 288.37780687 261.47490692 286.31586456 C261.3878952 284.59303253 261.3878952 284.59303253 261.29912567 282.83539581 C260.60762071 276.98135766 259.11289491 271.24714584 257.78740692 265.50336456 C247.88740692 265.50336456 237.98740692 265.50336456 227.78740692 265.50336456 C226.46740692 269.79336456 225.14740692 274.08336456 223.78740692 278.50336456 C218.97722583 287.33839106 218.97722583 287.33839106 216.10381317 290.15180206 C214.55483074 291.42770155 214.55483074 291.42770155 214.78740692 293.50336456 C214.21248505 293.77406769 213.63756317 294.04477081 213.04521942 294.32367706 C210.75936456 295.51801645 208.76175398 296.88325761 206.66240692 298.37836456 C194.58442189 306.4830681 181.24050439 309.01029819 167.03740692 306.37836456 C153.5429578 303.27536289 142.74935028 296.75370193 134.97490692 285.19086456 C131.78044356 279.87664129 129.64096274 274.40285405 127.78740692 268.50336456 C127.29240692 267.01836456 127.29240692 267.01836456 126.78740692 265.50336456 C87.51740692 265.50336456 48.24740692 265.50336456 7.78740692 265.50336456 Z M145.78740692 265.50336456 C147.48759008 274.00428037 152.59509082 280.67907073 159.78740692 285.50336456 C168.38731447 290.42661439 176.43995838 291.32244938 186.08428192 289.28852081 C194.62775894 286.80696174 201.82070854 281.57303902 206.33037567 273.86664581 C208.68153164 269.87342244 208.68153164 269.87342244 209.78740692 265.50336456 C188.66740692 265.50336456 167.54740692 265.50336456 145.78740692 265.50336456 Z M265.34990692 310.06586456 C263.18344664 313.44554261 263.2245269 315.56320444 263.78740692 319.50336456 C265.71723109 322.21941339 267.12941467 323.25029062 270.22490692 324.44086456 C273.70022382 324.52562839 275.1320669 323.7281089 277.78740692 321.50336456 C279.44600292 318.69440394 279.44600292 318.69440394 279.78740692 315.50336456 C278.45614245 312.57458272 277.05435727 310.77031491 274.78740692 308.50336456 C270.9323393 308.07502372 268.65940327 307.94439255 265.34990692 310.06586456 Z M126.78740692 461.50336456 C126.78740692 472.39336456 126.78740692 483.28336456 126.78740692 494.50336456 C160.11740692 494.50336456 193.44740692 494.50336456 227.78740692 494.50336456 C227.78740692 483.61336456 227.78740692 472.72336456 227.78740692 461.50336456 C194.45740692 461.50336456 161.12740692 461.50336456 126.78740692 461.50336456 Z M7.78740692 472.50336456 C7.78740692 479.76336456 7.78740692 487.02336456 7.78740692 494.50336456 C15.04740692 494.50336456 22.30740692 494.50336456 29.78740692 494.50336456 C28.10343902 486.08352507 23.66756869 480.59359906 16.71709442 475.69477081 C12.56204476 473.12169133 12.56204476 473.12169133 7.78740692 472.50336456 Z M332.97490692 479.75336456 C329.47612583 483.52574702 324.78740692 489.14979127 324.78740692 494.50336456 C332.37740692 494.50336456 339.96740692 494.50336456 347.78740692 494.50336456 C347.78740692 486.91336456 347.78740692 479.32336456 347.78740692 471.50336456 C342.77585339 471.50336456 336.44818796 476.46409842 332.97490692 479.75336456 Z " fill="#000000" transform="translate(78.21259307861328,-0.5033645629882813)"/>
<path d="M0 0 C7.07840049 4.85883476 12.97935445 11.86215883 19 17.9375 C19.97502386 18.9175531 20.9502828 19.8973724 21.92578125 20.87695312 C24.28616618 23.24902313 26.64416905 25.6234086 29 28 C25.16171005 32.53451965 21.25222428 36.84901916 17 41 C12.37866085 39.22256187 10.93994379 36.93994379 7 33 C6.67 48.18 6.34 63.36 6 79 C8.97 79.99 8.97 79.99 12 81 C16.89285415 85.05748881 20.87959511 90.46641534 22.8125 96.5625 C22.874375 97.366875 22.93625 98.17125 23 99 C23.0825 100.051875 23.165 101.10375 23.25 102.1875 C22.72182548 110.24216141 20.58911807 116.41435181 14.96875 122.30859375 C9.25998716 127.21314595 2.69835228 129.3400979 -4.7890625 129.21484375 C-11.60208182 128.55280124 -18.07464002 125.77833431 -23 121 C-29.03242172 113.15472615 -29.98154749 105.80419271 -29 96 C-26.8879467 89.05769026 -23.03217903 83.99446307 -17 80 C-15.02 79.01 -15.02 79.01 -13 78 C-13 62.82 -13 47.64 -13 32 C-15.97 34.97 -18.94 37.94 -22 41 C-25.72934886 39.13532557 -27.86585213 37.49072216 -30.8125 34.625 C-31.62332031 33.85414062 -32.43414062 33.08328125 -33.26953125 32.2890625 C-35 30 -35 30 -34.95166016 28.22094727 C-33.52600814 24.89381632 -31.05290082 22.66599473 -28.50390625 20.17578125 C-27.95516342 19.62891159 -27.40642059 19.08204193 -26.84104919 18.51860046 C-25.68195146 17.36621492 -24.51926649 16.21742781 -23.35327148 15.07202148 C-21.5655657 13.3155122 -19.78879042 11.5485172 -18.01367188 9.77929688 C-16.88603795 8.6608316 -15.75780296 7.54297194 -14.62890625 6.42578125 C-14.09552139 5.89664627 -13.56213654 5.36751129 -13.0125885 4.82234192 C-8.58854132 0.48379223 -6.33752049 -0.81774458 0 0 Z M-8.875 97.125 C-11.20082135 99.83128667 -11.20082135 99.83128667 -11.5625 103.0625 C-10.87380287 106.65902947 -9.90567935 107.82074049 -7 110 C-5.15732132 111.08568503 -5.15732132 111.08568503 -3 111 C0.90340215 109.67284327 2.57219931 108.81995133 4.5 105.125 C5.06718169 101.58011443 4.79500359 100.07714901 3 97 C-1.54076024 93.9728265 -4.43424585 93.84270345 -8.875 97.125 Z " fill="#000000" transform="translate(387,68)"/>
<path d="M0 0 C6.73990748 5.09348061 12.57094751 11.45243175 18.5 17.4375 C19.4178125 18.35982422 20.335625 19.28214844 21.28125 20.23242188 C23.52315055 22.48599899 25.762666 24.74189075 28 27 C26.32867581 30.54023647 24.36660667 32.99347254 21.625 35.8125 C20.46871094 37.02873047 20.46871094 37.02873047 19.2890625 38.26953125 C18.53367188 38.84058594 17.77828125 39.41164062 17 40 C13 39 13 39 6 32 C5.67 43.88 5.34 55.76 5 68 C-0.94 68 -6.88 68 -13 68 C-13.495 49.685 -13.495 49.685 -14 31 C-16.97 33.97 -19.94 36.94 -23 40 C-26.84281736 38.07859132 -28.80431927 36.4073184 -31.75 33.375 C-32.54921875 32.55773437 -33.3484375 31.74046875 -34.171875 30.8984375 C-34.77515625 30.27195312 -35.3784375 29.64546875 -36 29 C-34.53398305 25.60011879 -32.64744314 23.42539741 -30.0078125 20.84765625 C-29.22019531 20.07099609 -28.43257813 19.29433594 -27.62109375 18.49414062 C-26.79738281 17.69169922 -25.97367188 16.88925781 -25.125 16.0625 C-23.5002765 14.472427 -21.87780809 12.88004587 -20.2578125 11.28515625 C-19.5373877 10.58269775 -18.81696289 9.88023926 -18.07470703 9.15649414 C-15.91869319 6.9867465 -15.91869319 6.9867465 -13.91357422 4.34936523 C-10.06724617 -0.37291274 -5.77275399 -2.07819144 0 0 Z " fill="#000000" transform="translate(132,60)"/>
<path d="M0 0 C6.67282038 4.98432082 10.88673621 11.03523917 12.60546875 19.19921875 C13.36690469 27.42272694 10.69355096 34.76429125 5.60546875 41.19921875 C-0.95525181 47.24198769 -7.56426043 49.40290207 -16.39453125 49.19921875 C-24.9246492 47.71838048 -31.27765719 44.2636216 -36.31640625 37.17578125 C-39.96589276 30.48505598 -40.23411021 23.64173641 -39.39453125 16.19921875 C-36.78270189 7.67579346 -31.73071891 2.85402752 -24.33203125 -1.67578125 C-16.80704973 -4.51893037 -6.90087129 -4.19349321 0 0 Z M-19.26953125 17.32421875 C-21.5953526 20.03050542 -21.5953526 20.03050542 -21.95703125 23.26171875 C-21.26833412 26.85824822 -20.3002106 28.01995924 -17.39453125 30.19921875 C-15.55185257 31.28490378 -15.55185257 31.28490378 -13.39453125 31.19921875 C-9.4911291 29.87206202 -7.82233194 29.01917008 -5.89453125 25.32421875 C-5.32734956 21.77933318 -5.59952766 20.27636776 -7.39453125 17.19921875 C-11.93529149 14.17204525 -14.8287771 14.0419222 -19.26953125 17.32421875 Z " fill="#000000" transform="translate(141.39453125,147.80078125)"/>
<path d="M0 0 C0.83637497 0.00707474 1.67274994 0.01414948 2.5344696 0.0214386 C5.19447927 0.0493314 7.85235014 0.11205644 10.51171875 0.17578125 C12.31963096 0.20087091 14.12757632 0.22368292 15.93554688 0.24414062 C20.35824883 0.29488296 24.77635286 0.39273206 29.19921875 0.48828125 C29.19921875 6.42828125 29.19921875 12.36828125 29.19921875 18.48828125 C25.56921875 18.81828125 21.93921875 19.14828125 18.19921875 19.48828125 C21.16921875 22.45828125 24.13921875 25.42828125 27.19921875 28.48828125 C23.18450054 33.38427906 19.09521656 37.47356304 14.19921875 41.48828125 C9.74421875 37.03328125 9.74421875 37.03328125 5.19921875 32.48828125 C4.86921875 36.11828125 4.53921875 39.74828125 4.19921875 43.48828125 C-1.74078125 43.48828125 -7.68078125 43.48828125 -13.80078125 43.48828125 C-13.91574596 38.16669279 -14.01522127 32.84943012 -14.07543945 27.52758789 C-14.10054515 25.71851993 -14.1346372 23.90955303 -14.17797852 22.10083008 C-14.23880704 19.49665374 -14.26702934 16.89382094 -14.2890625 14.2890625 C-14.31486893 13.48366531 -14.34067535 12.67826813 -14.36726379 11.84846497 C-14.36926573 7.81754968 -14.08386064 5.9198796 -11.8203125 2.46875 C-7.74078031 -0.2069587 -4.77321022 -0.15294255 0 0 Z " fill="#000000" transform="translate(294.80078125,84.51171875)"/>
<path d="M0 0 C3.21524305 1.40844718 5.32183868 3.10344786 7.75 5.625 C8.67039063 6.57246094 8.67039063 6.57246094 9.609375 7.5390625 C10.06828125 8.02117187 10.5271875 8.50328125 11 9 C14.21524305 7.59155282 16.32183868 5.89655214 18.75 3.375 C19.36359375 2.74335938 19.9771875 2.11171875 20.609375 1.4609375 C21.06828125 0.97882813 21.5271875 0.49671875 22 0 C25.58402695 1.53248049 28.02850134 3.6674601 30.8125 6.375 C32.02873047 7.53128906 32.02873047 7.53128906 33.26953125 8.7109375 C35 11 35 11 35.015625 13.0234375 C33.69522274 15.59314343 32.02710368 17.25990125 29.9375 19.25 C28.83728516 20.30960937 28.83728516 20.30960937 27.71484375 21.390625 C27.14894531 21.92171875 26.58304688 22.4528125 26 23 C26.93590504 24.1055189 27.87379858 25.20935453 28.8125 26.3125 C29.59560547 27.23482422 29.59560547 27.23482422 30.39453125 28.17578125 C31.94331789 30.02734304 31.94331789 30.02734304 33.76171875 31.48046875 C35 33 35 33 35.00390625 34.859375 C33.55187645 37.95553192 31.39270177 39.88803374 28.9375 42.25 C27.55884766 43.58804688 27.55884766 43.58804688 26.15234375 44.953125 C25.44207031 45.62859375 24.73179687 46.3040625 24 47 C20.78475695 45.59155282 18.67816132 43.89655214 16.25 41.375 C15.63640625 40.74335938 15.0228125 40.11171875 14.390625 39.4609375 C13.93171875 38.97882813 13.4728125 38.49671875 13 38 C9.78475695 39.40844718 7.67816132 41.10344786 5.25 43.625 C4.63640625 44.25664062 4.0228125 44.88828125 3.390625 45.5390625 C2.93171875 46.02117187 2.4728125 46.50328125 2 47 C-1.90285767 45.41332422 -4.33520982 42.86649519 -7.25 39.875 C-8.14203125 38.96492188 -9.0340625 38.05484375 -9.953125 37.1171875 C-10.62859375 36.41851562 -11.3040625 35.71984375 -12 35 C-11.61328125 34.55269531 -11.2265625 34.10539062 -10.828125 33.64453125 C-10.30734375 33.03996094 -9.7865625 32.43539062 -9.25 31.8125 C-8.73953125 31.22082031 -8.2290625 30.62914062 -7.703125 30.01953125 C-5.75955818 27.71488894 -3.88331086 25.35413857 -2 23 C-5.3 19.7 -8.6 16.4 -12 13 C-8.17420552 8.44548277 -4.25602708 4.15469311 0 0 Z " fill="#000000" transform="translate(210,352)"/>
<path d="M0 0 C6.41069287 5.27101414 12.18590512 11.09128152 18 17 C16.46356148 20.68069887 14.21849055 22.98775204 11.375 25.75 C10.55773437 26.54921875 9.74046875 27.3484375 8.8984375 28.171875 C8.27195312 28.77515625 7.64546875 29.3784375 7 30 C3.84795019 28.60652624 1.73828227 26.97514921 -0.671875 24.5234375 C-1.33574219 23.853125 -1.99960937 23.1828125 -2.68359375 22.4921875 C-3.36550781 21.79351562 -4.04742187 21.09484375 -4.75 20.375 C-5.44738281 19.66859375 -6.14476562 18.9621875 -6.86328125 18.234375 C-8.58012488 16.49401297 -10.29211832 14.74915019 -12 13 C-8.16171005 8.46548035 -4.25222428 4.15098084 0 0 Z " fill="#000000" transform="translate(338,130)"/>
<path d="M0 0 C2.89186625 2.73145922 4.42485568 5.48063266 6.1875 9.0625 C6.71730469 10.12597656 7.24710937 11.18945312 7.79296875 12.28515625 C9 15 9 15 9 17 C6.39939496 18.34070318 3.79495084 19.67273354 1.1875 21 C0.44951172 21.3815625 -0.28847656 21.763125 -1.04882812 22.15625 C-1.76103516 22.5171875 -2.47324219 22.878125 -3.20703125 23.25 C-3.8616333 23.58515625 -4.51623535 23.9203125 -5.19067383 24.265625 C-7 25 -7 25 -10 25 C-11.19984797 22.73495035 -12.38494769 20.46410112 -13.5625 18.1875 C-13.90474609 17.54490234 -14.24699219 16.90230469 -14.59960938 16.24023438 C-15.4765023 14.53073605 -16.24515617 12.76678706 -17 11 C-16 8 -16 8 -14.41772461 6.92504883 C-13.75264893 6.60560303 -13.08757324 6.28615723 -12.40234375 5.95703125 C-11.68369141 5.60576172 -10.96503906 5.25449219 -10.22460938 4.89257812 C-9.46986328 4.53615234 -8.71511719 4.17972656 -7.9375 3.8125 C-7.17888672 3.44447266 -6.42027344 3.07644531 -5.63867188 2.69726562 C-3.76346181 1.78914503 -1.88227267 0.89338985 0 0 Z " fill="#000000" transform="translate(277,350)"/>
<path d="M0 0 C2.98076165 2.98076165 4.34542133 5.31921421 6.1875 9.0625 C6.71730469 10.12597656 7.24710937 11.18945312 7.79296875 12.28515625 C9 15 9 15 9 17 C6.40163864 18.36645701 3.79734444 19.71830669 1.1875 21.0625 C0.08051758 21.64741211 0.08051758 21.64741211 -1.04882812 22.24414062 C-1.76103516 22.60830078 -2.47324219 22.97246094 -3.20703125 23.34765625 C-3.8616333 23.68804932 -4.51623535 24.02844238 -5.19067383 24.37915039 C-7 25 -7 25 -10 24 C-11.36154447 21.47808143 -12.54477282 19.05322077 -13.6875 16.4375 C-14.780625 13.983125 -15.87375 11.52875 -17 9 C-11.39 6.03 -5.78 3.06 0 0 Z " fill="#000000" transform="translate(311,333)"/>
</svg>
